<mxfile host="app.diagrams.net" modified="2023-05-25T17:22:19.426Z" agent="Mozilla/5.0 (Macintosh; Intel Mac OS X 10_15_7) AppleWebKit/537.36 (KHTML, like Gecko) Chrome/113.0.0.0 Safari/537.36" etag="YbDo2IJW4ETZRtIUcZvH" version="21.3.4" type="device">
  <diagram name="페이지-1" id="Kd7_aPj8Ap2SnOBVTE2C">
    <mxGraphModel dx="1026" dy="621" grid="1" gridSize="10" guides="1" tooltips="1" connect="1" arrows="1" fold="1" page="1" pageScale="1" pageWidth="827" pageHeight="1169" math="0" shadow="0">
      <root>
        <mxCell id="0" />
        <mxCell id="1" parent="0" />
        <mxCell id="LdgYXwsfe8iCXs6my1w4-25" value="" style="rounded=0;whiteSpace=wrap;html=1;" vertex="1" parent="1">
          <mxGeometry x="500" y="240" width="320" height="140" as="geometry" />
        </mxCell>
        <mxCell id="LdgYXwsfe8iCXs6my1w4-2" value="Web&lt;br&gt;Browser" style="rounded=0;whiteSpace=wrap;html=1;" vertex="1" parent="1">
          <mxGeometry x="150" y="180" width="50" height="280" as="geometry" />
        </mxCell>
        <mxCell id="LdgYXwsfe8iCXs6my1w4-3" value="" style="endArrow=classic;html=1;rounded=0;" edge="1" parent="1">
          <mxGeometry width="50" height="50" relative="1" as="geometry">
            <mxPoint x="80" y="302" as="sourcePoint" />
            <mxPoint x="140" y="302" as="targetPoint" />
          </mxGeometry>
        </mxCell>
        <mxCell id="LdgYXwsfe8iCXs6my1w4-4" value="" style="endArrow=classic;html=1;rounded=0;" edge="1" parent="1">
          <mxGeometry width="50" height="50" relative="1" as="geometry">
            <mxPoint x="140" y="321.5" as="sourcePoint" />
            <mxPoint x="80" y="321.5" as="targetPoint" />
          </mxGeometry>
        </mxCell>
        <mxCell id="LdgYXwsfe8iCXs6my1w4-5" value="" style="shape=actor;whiteSpace=wrap;html=1;" vertex="1" parent="1">
          <mxGeometry x="30" y="280" width="40" height="60" as="geometry" />
        </mxCell>
        <mxCell id="LdgYXwsfe8iCXs6my1w4-6" value="" style="whiteSpace=wrap;html=1;aspect=fixed;" vertex="1" parent="1">
          <mxGeometry x="276" y="240" width="140" height="140" as="geometry" />
        </mxCell>
        <mxCell id="LdgYXwsfe8iCXs6my1w4-8" value="" style="shape=image;verticalLabelPosition=bottom;labelBackgroundColor=default;verticalAlign=top;aspect=fixed;imageAspect=0;image=data:image/png,iVBORw0KGgoAAAANSUhEUgAAAaYAAAFyCAYAAAC+3n46AAAMPWlDQ1BJQ0MgUHJvZmlsZQAASImVVwdYU8kWnluSkEBooUsJvQkiNYCUEFoA6V1UQhIglBgDQcVeFhVcu1jAhq6KKFhpFhRRLCyKvS8WVJR1sWBX3qSArvvK9+b7Zua//5z5z5lz55YBQO0ERyTKQ9UByBcWimNDAujJKal00lOAAyrQhS2Rwy0QMaOjIwAsQ/3fy7vrAJH2VxykWv8c/69Fg8cv4AKAREOcwSvg5kN8CAC8kisSFwJAlPLmUwpFUgwr0BLDACFeJMVZclwpxRlyvE9mEx/LgrgNACUVDkecBYDqJcjTi7hZUEO1H2InIU8gBECNDrFvfv4kHsTpENtAGxHEUn1Gxg86WX/TzBjW5HCyhrF8LbKiFCgoEOVxpv2f6fjfJT9PMuTDClaVbHForHTNMG83cyeFS7EKxH3CjMgoiDUh/iDgyewhRinZktAEuT1qyC1gwZwBHYideJzAcIgNIQ4W5kVGKPiMTEEwG2K4Q9CpgkJ2PMR6EC/iFwTFKWy2iCfFKnyh9ZliFlPBn+WIZX6lvu5LchOYCv3X2Xy2Qh9TLc6OT4KYArFFkSAxEmJViB0LcuPCFTZjirNZkUM2YkmsNH4LiGP5wpAAuT5WlCkOjlXYl+YXDK0X25ItYEcq8IHC7PhQeX6wNi5HFj9cC3aJL2QmDOnwC5IjhtbC4wcGydeOPeMLE+IUOh9EhQGx8rk4RZQXrbDHzfh5IVLeDGLXgqI4xVw8sRBuSLk+nikqjI6Xx4kX53DCouXx4MtBBGCBQEAHElgzwCSQAwSdfQ198Eo+Egw4QAyyAB84KJihGUmyESFs40Ax+BMiPigYnhcgG+WDIsh/HWblrQPIlI0WyWbkgicQ54NwkAevJbJZwmFvieAxZAT/8M6BlQvjzYNVOv7v+SH2O8OETISCkQx5pKsNWRKDiIHEUGIw0RY3wH1xbzwCtv6wOuMM3HNoHd/tCU8IXYSHhGuEbsKtiYJ54p+iHAu6oX6wIhcZP+YCt4KabngA7gPVoTKugxsAB9wV+mHiftCzG2RZirilWaH/pP23FfxwNxR2ZCcyStYl+5Ntfp6paqfqNqwizfWP+ZHHmjGcb9bwyM/+WT9knwf78J8tsUXYQawdO4mdw45iDYCOtWCNWAd2TIqHd9dj2e4a8hYriycX6gj+4W/ozkozWeBU49Tr9EU+VsifKn1HA9Yk0TSxICu7kM6EXwQ+nS3kOo6kOzs5uwAg/b7IX19vYmTfDUSn4zs3/w8AfFoGBwePfOfCWgDY7wEf/6bvnA0DfjqUATjbxJWIi+QcLm0I8C2hBp80fWAMzIENXI8zcAfewB8EgTAQBeJBCpgAo8+G+1wMpoAZYC4oAWVgOVgDNoDNYBvYBfaCA6ABHAUnwRlwAVwC18AduHt6wAvQD96BzwiCkBAqQkP0ERPEErFHnBEG4osEIRFILJKCpCNZiBCRIDOQ+UgZshLZgGxFqpH9SBNyEjmHdCG3kAdIL/Ia+YRiqAqqhRqhVugolIEy0XA0Hh2PZqGT0WJ0AboUXYdWoXvQevQkegG9hnajL9ABDGDKmA5mijlgDIyFRWGpWCYmxmZhpVg5VoXVYs3wPl/BurE+7CNOxGk4HXeAOzgUT8C5+GR8Fr4E34DvwuvxNvwK/gDvx78RqARDgj3Bi8AmJBOyCFMIJYRywg7CYcJp+Cz1EN4RiUQdojXRAz6LKcQc4nTiEuJGYh3xBLGL+Ig4QCKR9En2JB9SFIlDKiSVkNaT9pBaSJdJPaQPSspKJkrOSsFKqUpCpXlK5Uq7lY4rXVZ6qvSZrE62JHuRo8g88jTyMvJ2cjP5IrmH/JmiQbGm+FDiKTmUuZR1lFrKacpdyhtlZWUzZU/lGGWB8hzldcr7lM8qP1D+qKKpYqfCUklTkagsVdmpckLllsobKpVqRfWnplILqUup1dRT1PvUD6o0VUdVtipPdbZqhWq96mXVl2pkNUs1ptoEtWK1crWDahfV+tTJ6lbqLHWO+iz1CvUm9RvqAxo0jdEaURr5Gks0dmuc03imSdK00gzS5Gku0NymeUrzEQ2jmdNYNC5tPm077TStR4uoZa3F1srRKtPaq9Wp1a+tqe2qnag9VbtC+5h2tw6mY6XD1snTWaZzQOe6ziddI12mLl93sW6t7mXd93oj9Pz1+HqlenV61/Q+6dP1g/Rz9VfoN+jfM8AN7AxiDKYYbDI4bdA3QmuE9wjuiNIRB0bcNkQN7QxjDacbbjPsMBwwMjYKMRIZrTc6ZdRnrGPsb5xjvNr4uHGvCc3E10RgstqkxeQ5XZvOpOfR19Hb6P2mhqahphLTraadpp/NrM0SzOaZ1ZndM6eYM8wzzVebt5r3W5hYjLWYYVFjcduSbMmwzLZca9lu+d7K2irJaqFVg9Uzaz1rtnWxdY31XRuqjZ/NZJsqm6u2RFuGba7tRttLdqidm122XYXdRXvU3t1eYL/RvmskYaTnSOHIqpE3HFQcmA5FDjUODxx1HCMc5zk2OL4cZTEqddSKUe2jvjm5OeU5bXe6M1pzdNjoeaObR792tnPmOlc4X3WhugS7zHZpdHnlau/Kd93ketON5jbWbaFbq9tXdw93sXute6+HhUe6R6XHDYYWI5qxhHHWk+AZ4Dnb86jnRy93r0KvA15/eTt453rv9n42xnoMf8z2MY98zHw4Plt9un3pvum+W3y7/Uz9OH5Vfg/9zf15/jv8nzJtmTnMPcyXAU4B4oDDAe9ZXqyZrBOBWGBIYGlgZ5BmUELQhqD7wWbBWcE1wf0hbiHTQ06EEkLDQ1eE3mAbsbnsanZ/mEfYzLC2cJXwuPAN4Q8j7CLEEc1j0bFhY1eNvRtpGSmMbIgCUeyoVVH3oq2jJ0cfiSHGRMdUxDyJHR07I7Y9jhY3MW533Lv4gPhl8XcSbBIkCa2JaolpidWJ75MCk1YmdSePSp6ZfCHFIEWQ0phKSk1M3ZE6MC5o3JpxPWluaSVp18dbj586/twEgwl5E45NVJvImXgwnZCelL47/QsnilPFGchgZ1Rm9HNZ3LXcFzx/3mpeL9+Hv5L/NNMnc2XmsyyfrFVZvdl+2eXZfQKWYIPgVU5ozuac97lRuTtzB/OS8urylfLT85uEmsJcYdsk40lTJ3WJ7EUlou7JXpPXTO4Xh4t3FCAF4wsaC7Xgj3yHxEbyi+RBkW9RRdGHKYlTDk7VmCqc2jHNbtriaU+Lg4t/m45P505vnWE6Y+6MBzOZM7fOQmZlzGqdbT57weyeOSFzds2lzM2d+/s8p3kr572dnzS/eYHRgjkLHv0S8ktNiWqJuOTGQu+FmxfhiwSLOhe7LF6/+Fspr/R8mVNZedmXJdwl538d/eu6XweXZi7tXOa+bNNy4nLh8usr/FbsWqmxsnjlo1VjV9Wvpq8uXf12zcQ158pdyzevpayVrO1eF7Gucb3F+uXrv2zI3nCtIqCirtKwcnHl+428jZc3+W+q3Wy0uWzzpy2CLTe3hmytr7KqKt9G3Fa07cn2xO3tvzF+q95hsKNsx9edwp3du2J3tVV7VFfvNty9rAatkdT07knbc2lv4N7GWofarXU6dWX7wD7Jvuf70/dfPxB+oPUg42DtIctDlYdph0vrkfpp9f0N2Q3djSmNXU1hTa3N3s2Hjzge2XnU9GjFMe1jy45Tji84PthS3DJwQnSi72TWyUetE1vvnEo+dbUtpq3zdPjps2eCz5xqZ7a3nPU5e/Sc17mm84zzDRfcL9R3uHUc/t3t98Od7p31Fz0uNl7yvNTcNabr+GW/yyevBF45c5V99cK1yGtd1xOu37yRdqP7Ju/ms1t5t17dLrr9+c6cu4S7pffU75XfN7xf9YftH3Xd7t3HHgQ+6HgY9/DOI+6jF48LHn/pWfCE+qT8qcnT6mfOz472Bvdeej7uec8L0YvPfSV/avxZ+dLm5aG//P/q6E/u73klfjX4eskb/Tc737q+bR2IHrj/Lv/d5/elH/Q/7PrI+Nj+KenT089TvpC+rPtq+7X5W/i3u4P5g4Mijpgj+xXAYEUzMwF4vRMAagoANHg+o4yTn/9kBZGfWWUI/CcsPyPKijsAtfD/PaYP/t3cAGDfdnj8gvpqaQBEUwGI9wSoi8twHTqryc6V0kKE54AtUV8z8jPAvynyM+cPcf/cA6mqK/i5/xeBBnw7tObe9gAAAJZlWElmTU0AKgAAAAgABQESAAMAAAABAAEAAAEaAAUAAAABAAAASgEbAAUAAAABAAAAUgEoAAMAAAABAAIAAIdpAAQAAAABAAAAWgAAAAAAAACQAAAAAQAAAJAAAAABAAOShgAHAAAAEgAAAISgAgAEAAAAAQAAAaagAwAEAAAAAQAAAXIAAAAAQVNDSUkAAABTY3JlZW5zaG901aUrMwAAAAlwSFlzAAAWJQAAFiUBSVIk8AAAAttpVFh0WE1MOmNvbS5hZG9iZS54bXAAAAAAADx4OnhtcG1ldGEgeG1sbnM6eD0iYWRvYmU6bnM6bWV0YS8iIHg6eG1wdGs9IlhNUCBDb3JlIDYuMC4wIj4KICAgPHJkZjpSREYgeG1sbnM6cmRmPSJodHRwOi8vd3d3LnczLm9yZy8xOTk5LzAyLzIyLXJkZi1zeW50YXgtbnMjIj4KICAgICAgPHJkZjpEZXNjcmlwdGlvbiByZGY6YWJvdXQ9IiIKICAgICAgICAgICAgeG1sbnM6ZXhpZj0iaHR0cDovL25zLmFkb2JlLmNvbS9leGlmLzEuMC8iCiAgICAgICAgICAgIHhtbG5zOnRpZmY9Imh0dHA6Ly9ucy5hZG9iZS5jb20vdGlmZi8xLjAvIj4KICAgICAgICAgPGV4aWY6VXNlckNvbW1lbnQ+U2NyZWVuc2hvdDwvZXhpZjpVc2VyQ29tbWVudD4KICAgICAgICAgPGV4aWY6UGl4ZWxYRGltZW5zaW9uPjQyMjwvZXhpZjpQaXhlbFhEaW1lbnNpb24+CiAgICAgICAgIDxleGlmOlBpeGVsWURpbWVuc2lvbj4zNzA8L2V4aWY6UGl4ZWxZRGltZW5zaW9uPgogICAgICAgICA8dGlmZjpSZXNvbHV0aW9uVW5pdD4yPC90aWZmOlJlc29sdXRpb25Vbml0PgogICAgICAgICA8dGlmZjpYUmVzb2x1dGlvbj4xNDQvMTwvdGlmZjpYUmVzb2x1dGlvbj4KICAgICAgICAgPHRpZmY6WVJlc29sdXRpb24+MTQ0LzE8L3RpZmY6WVJlc29sdXRpb24+CiAgICAgICAgIDx0aWZmOk9yaWVudGF0aW9uPjE8L3RpZmY6T3JpZW50YXRpb24+CiAgICAgIDwvcmRmOkRlc2NyaXB0aW9uPgogICA8L3JkZjpSREY+CjwveDp4bXBtZXRhPgo1hpGaAABAAElEQVR4Aey952IcObK2mfTeSm1mzpmZz+z9X87ujzPT3qlbnt7v+7yByEQWq4qkJJJFqUBWwgciAibgMXMl1UzVlANTDkw5MOXAlAMTwoHZCcFjisaUA1MOTDkw5cCUA+bAVDBNC8KUA1MOTDkw5cBEcWAqmCYqO6bITDkw5cCUA1MOTAXTtAxMOTDlwJQDUw5MFAemgmmismOKzJQDUw5MOTDlwFQwTcvAlANTDkw5MOXARHFgKpgmKjumyEw5MOXAlANTDkwF07QMTDkw5cCUA1MOTBQHpoJporJjisyUA1MOTDkw5cBUME3LwJQDUw5MOTDlwERxYCqYJio7pshMOTDlwJQDUw5MBdO0DEw5MOXAlANTDkwUB6aCaaKyY4rMlANTDkw5MOXAVDBNy8CUA1MOTDkw5cBEcWAqmCYqO6bITDkw5cCUA1MOTAXTtAxMOTDlwJQDUw5MFAemgmmismOKzJQDUw5MOTDlwFQwTcvAlANTDkw5MOXARHFgfqKw+QKRuc279jODfMlI1zwGA07tUw5MOTDlwNPjwEcLpqurbCU/gPiZmeZLblvhXHBvNA9n5FX79vg14PcBOfDko8yoDE3V43Hgo+r/x6LtrP/w/P/wmB+L+OTEr9uWu2J1n/z7aMF0V2L64WHLfZLXT22SbF2BuOoJnhpHOHONQ13ECPplsq9m09T8pXLgWuW4GyM+MvrdEvsMQ98n/x5XMImyq2nD+hkW2SlJUw5MOTDlwIdz4HEFE3gzFfgFCyem6sapHmsGwk6F+jjOTf2+BA706seXQPAnpnFS+TcZgmmgwf3EvBe4+0rgttk6Kv2If9M6SS28DOm2yX56Rk4hTjkwMRxwNRhVte6E5SCQQfsoYLetiLeFNyqdUe63TX9M/I8FMQr0R7o/rmDSaCn2TtxXxsGd+4Z9U84OTz9jWSgNDzI8azPicN+p65QDUw7chQNl81au9Eb1un2F7EIOVszwuSu8u6BO2NHp3wxp5voK9s2R6hCDJNd+H2l+XMFk5MXajrsfSU4dvQA18+4lAeENcGCPyqHE4Xr6XaxRcWtapuYpB6YcGMuB61VsbHBXWQul7BwruKYmAswdgbXtwECSHwpvAMytrHdEGZigHa3P5LVBjyuY2q2+o7maRWVU5ozecA6zC9w2nVFQPsZ9XKYWHIalD2q458+oFmqLucOqSsPxOp+pacqBL5sDqhBjF1tdma6zqHWmDqal1NeQWo6TPtcBVC5V9axcH9bY0lAnOx6x1rc11HEf1zyjcwi34v19oXk9eaFTGBUdGhrr4ShaKKlhH9bu9/EdHr8f5q62RJJ4o3K2o6UVkm0yYE+8flxTK8KT9hvXn24mvk3xMQw34X89/++G5U3w7wZtGvquHPjY/LtrenX4oW1xHUDVb1TbQTCXnazGbTWs2woDGNH6ZEIZMfV0Tzipp/tD6YP4DNoDj+GuBUd5Rhv1UDh36TzuiAk82oY1MxBWFbOM6dqh3Jnwa6N3zkNMY9k/JPxtnZxzJfBgGsau+NXmDnbtihmFHub8Xj1a4TBC08+UA5PKgaxyo0ZMSK6uQl2jAqGFcLpyIxL1jaY4ayDmq7HSryAwNH35OW4N7xoKD+MwFL9IOqn+UEQKBz40+sh4jyqYoswEa+pvzTIXjFHcK4VmlPdIqj+5x6jCl5ilPiphliGrMJW0rSHfVyEYhdWncL+8vBwLZjriGcueqedNHKCujKoYapBDNlV1K+ERR78onVn7MlzqGfgGvRVAdbg7wqijfhIz6RfGjOLPLdJJzhA0wNTfEOEfAX4kBhMgmCCuJj8zNPWWI0OJqGMODXCvjpn5qdeJJf6p135hxido72e2bfq0rgqImfDeSZMgO8cAOGFfpnluM9Vzk3AKcgcnFYIbE0byI6FTF4hHQmESk6V+RCW6hh0cC65FC9K1I8nLa1GGOBB2RAIFeqYyJPI9O9WNw11o6qNV17qgtk/zKOr7UO5uezTBFKy6ai5pvPhrKUwmdgxovQboy5A3Z34XcgDER1pvyvxMN/UuOVyYpKPHFr4UgSgGra7eIJ2xWemsOVko6ZsxOmi1aZBbAb0O8ZTM8CgVlHS2zpT+X6Ze52+fQ8mPOkS6oT91DpouL8bWVFVmBQjak9LCCVkxMRtjXd/wKf7FVkEaYQQucVIfDHZXeIPxb7InXTeF+3D/TCFapoQTdIVfhki/T6M/mmACfcijSFxgMq1BcLdLJrN8NPFZpK6zo8CyR22+HvL+XDLd1LuUcLkU0ZcyxHTCTDOrAs7oAWox+02SVigRF5+ANZojhJsMddNICCzHhbnOtaD+KdD+MDmQHEJPrtTmLC3DsemHHB5m0l2TA0PxFEsst5I1Vf1JoUQd9MjeYRJa6kOh3sEx4aR+h6h3DtoSWWJ+RJoZ1W0RFtqkWOsOWx+5wZT7vh9me2DBRCEAUX1ocPWHUOKHc3wxOJCL0fiGC3gRFqh9VbvX5n6oT2MD/mD21GnW5kgRFwQStKOT9YiiWXmEUJpp5oqQAjTQPXpyuBg7yalN9noK9u0CpPUD9EHKbg3CSIegHRYHnP3TZ1QaNV0ZBrc0D4P7JbllnelG0x31Ne9qcxci+F/b72wuHac7xxsW4QMydVwUaM4fycVGhmh3aGapeW571Ib025FR3BqGtCHrM4hJDaM2j4Lx4e6dyBgOI1IP/AaxJIbd9EEPs2LoP5bOov4GjHr+wiGHJ/gJXB9UMCFDWAy/uooCcXp50RxdnDWnVxfNpYfVST6UiQk0zLNwjF9HbYQKu3s7Ln7Fv/a00zUHu1bgSsRx2jAYNYTaPAgn4l6DoCgIpEvxgl1Bs7MSSoyRCGiJJcOFyD7XT/bZS4XR8MpmeZHilXmj4LJ08DtTYBXfQawewk7K7lgkCh1q+LgxMP2FHuNUdTTm5mabhfmFZmlxsVlaXmzm5wrWCs9IM8FSPL4slYyUXvhFGQo2dMzARMgLlZ+zs/Pm9Ex1Tb+Lc5pj/PgqlP4x3Vll2reJ7FbuNincDCwpdRduZk7ol3pjUiI+tFnwqG1B91KBgs2oTM3MKcb8rN0YMV2qUnWpygTjeqrz7Zxrpl2LUIJdj9e6jIrSJXBLUwFU1kKwJatxIr3YdRjg0g+bzgpFWAKpQs2rDC3MzjcLc3PN/OxcM6dfx+uI73jErX6dz6cz3btgyp5IjHzomVyqkpw1x2enzd7ZcfP+5LA5vDhtzsVC/MxIzIXfIZjgQjike5vB5kWxSevcO0sB9QFc66CNjvxh0IHs6QQKh4TS/Py8CsmMGo3L5vxUjcjRSXNxrEp1dmnhNGshpbAXV80cQmpGFUsVDKGEUOfXUZ94y1PGYYVrND0jfBLkCO9hzsMFRsevK1WGC3VOLpEyUq0PPJF9eWmx2drcbJ49222++frrZlGNCjKb0KxN0ueFD208uX/+KnhFs4tQCpt4J3PWkUEenEoQvX+/17x9+655/eZNc3R0JL67uS6Nljj5IUzM9BOJwYR7dvCrHcZFGuWnkpwwhLDmFPSj3nQ9lvAnrUuVlYvm/OrcggfZNbOgjs7SQrOwstgsriw1swtz7hi6U1y32C2ao/BoA2S/QA6JWOfX1cfabbjZKQ0DMTx4caUGoKKGQ0L+yE/8rBtuBzxIVd2hMlH3GCyonVmem282V9ebzZXVZm15tZldVBtjKAW+U4rUOmhyvAd174Kpw1kkigcIqks1RmcaKR0cHzZ/vX3VvDneb45lv2BrMSVL/zDElQUOpFvhht07wK2JjKhKSutu3nY2mwqoAdfaamjFoTbXYRJK6rVf33wdQrhAJ6OlEEyzzcXZRXNyctqc7B83Jwcnzek+AkrDplMJqDM1xvrNX2hspTgWTBJOF5r/S5HuklkIRtCZmcHQPkK3tN1M2U2ABikvEOWMcLlUd74TTBE2K87aynLzbHen+cd//5f4s9DMPt+VHpWEsuIen8vGx2N5ExWT4Z+8lN4aw5C94kFO4Isg+v2PF80vv/za/Prbb837vX1Xk+jU0Lh9qGCKenp73rRIj4mSYYYHCcEDlSoHVwil8qOMQ4kLD+2IxZIEk9oVTTtczaneLC80q1trzcoGv9VmXkLKnUMGXFHohiQ6Hh/atDYvhsRunUrGjIem0Ap3Y5hBoKZdURWRpYAkxTMpgoeeykbCyAHBNINgUmd4Rr/1xeXmcvcrjZpmm+XFpYzisAmC2oc504j8aIN+MsMDCiZwRjiJEVKMEs7Oz5pXb183v7z+q3l/fNCcX5yrFyOUNEXl3XrmtNhgTkSGRWyZk1OGlh/gY85QYRwaNKMMBK+dHS9zoPaozU4qey61h8y3SJjos6J3Xr0ViLpUATk70Yjp8KQ5eHvYvPvrTXP47rC5ODxrrk4umtmzJgSTR0wSTmqomdLziIl5PtHeYmMmqdaBSMUSOdxK3Yj+raAMJlygypm8cj5j0L/xTl0Oq8vLze72VvP61etmYUGCSWVmW/ZF9XwZWRJpTtMOX7aCn8E/fZ3VmW9wCDYhiP7z3ffN//v//X/N99//0Lx9976Zk6AXQ5ktbkehRA+VENI+Ws/6PDrEoI+xlGPqlb+THeJeBUljTN91ggl3lx/XAXXTLJjOmrOrUwmms+ZSrfDS+kqz+82zZnN3ywKKUROjKC3mmm8Ju9NrXGpzSc1O+vj/Os9qlzZ27dgl1DM5LOHaSD3vsBhOAKPG00zVPwJdibQUTjQBwHMM6V7LVtmY02+WWRgVhGcbW82GRko7axvRTitwiCGgFYGEcRxe+H8C9WCCKQSGMIZYNapzqhTM99J2nkkg7R8dNsenJx5eeySgCG5syzpKCKK+4Am3jgvJLyqLM6DzGm7KjBrqm9DSc9B+qxQiDx30evioSPCDNkLTEipJlyokF6eagtAo6UAjydf775q9t++b4/eafpFwmjvXBMYF1VK8E29mNFeOIE/+RKkJXF2U7IFw+gA1lj+3gZc8Sz15YMqNqn30iTyLcA6lPFxSJ+Xdu7cib6b5WlN5GxsbzbKE1fz8iviaVSZgJeTbYPV0w0AlPJJOK+S8ZcxdqMcpiZPTqUbXBweHzYs/XzY//fxL88MPPzU///pbs7d/4BEoggnhxWirjef4BV7CGqorjPLI8fqRS+hBGAOBRnb4BsJdS7v40+oyP8d0XpnKQxgFBySYJIg0L6MlAgmlGbW68+ronK83s+sSyCtzzdn8ZTN/eaL6Izzp3BmfQZxJfAw+8jIHxgRxXgHmtuq2KChc5nvWBZMgXJK1FA/YFG2DEMBPGv6wCmE0p/ZmUTxcnVtsmFpnbWlenT1qV7LE5gr/YShW3p/EeK+CicYmf6wxyepGhkXtuZn5Znllpdne3W12L0+bQ4bcRyHhL83M4KKH2jAYbgBA/+XTMjynMXAniHW0ojz/npYB3cEH3MJ6G/aPjj0WhkHr4xKikDK6cRCRVxI6rKshuBfPV5uVba2/nUtY6QfBs5rVm5VwomB5cwiFCOFtlfigp5uBF//baxm7B/b20duQMbVCjqTqIF+1NUZ+JUA2keiUnf39w+bPl6/coO4+e9Y8f/68WVfPd1Z00ywlmTXFmdLnqcO/aIo6nspFFhpJ6zbPNPsSSr/9/kfz008/awrv9+aNRko05ouasim9IY9CMQesLm+G8672l7mkGZEH/IYCiFSGetkx/VO/HhIaIyjp8VMHDV3/ocekNvZZLeSzs5XB4dzSXLO+u6nR0nazvqNR91qMls4ltC6iMgXca1/SGK6MiRucUfiWuLV3Da52H57EGFflmWhDmW50wbMwAa68qF75Ixx+iW7IcHFTQ+p57Sra2thsnqst3tnaatZW1yScaIQFucK3MrZCC7j3oe5VMIEwjUutQynTeHMaNS2p97u9s93sabj99kwjJhWSo3MNvZlgYKEb3ugvpqkAlr/ComQ8CRSnSA5LpItWvAh1j6qk16ZQp1qbFaBYLVhkdq9Gji4sjH70m1HDO6/ezPLJWnOqqb2jw2MJKE3ladpBG5E0RxMJwUu5tKm2dKcbJTP+qzB3N9Yp3Cm2a0qQHBwCUkCLQt+HHDZVCAW+ujzX9O6lG9jf1cA+k2D6+9/+1qytrWmn3oKmo0R5FR34lfVOaD6twIXKJBZeiQDqmtftrM94ZPSzRkrf//Bj89dfr8zHc9YU1CvOekj5wZyNW/AhAQ9ypXIv5cr1rXVuDYpYmwfhgO0oNcov3KN+q1Uo4GmcMeYakRtiuVxSj9SGUF/ml+ea5Y2VZn17s1neXJdQWm5mWNhn9lxhe6OKsXj3cbaQNFpjaE1E+1H7NsEwDZXrGIhtqAAt/Mk/WfRFloTQUCjzAj/34OSuvHd1VKfWaIs31KGVZU1xbu80z3Z2m411zUpofYn2OQIFbolP6h0SMl1zbH0/2HBvgilHSimYshGGW0zNsJuKbcBbm1saLZ03bw73mkNN5Z3sa+jNwjatL4WLPwjnh4GKVVS6p45zFNwMgUPw9x5410+ksoURPEekms4UGMy2u5jLKAv8YUitxdrF1WVVpBP1+LTGcnLm0ZG8FUY9Q/ECepPHcm1VAdnaO661TjcaikxxuA+Jfy2iEZerkdPHQG3pcJEVF/J0RjxY0BoAwumPP/9q1n/8qfnbt982K6urzdfPn2mtSV1hwuo3AMXuX8aHOoJCKKl66KP+jMyXzZ7WlhBK32ld6fXbt82xNtXEBiN1DDWMQChZILkCJbeSk6mne+rprnQj4VbvciHDZJxBfZQ/APErgOtocupcS7tgF7cQwoF1JfGAbUCqG/xR3NgWvqC1pPWtjWZte6NZ0LEDGupzdXqYNmcWEPKz8a6TvMls+ltSOuwiHkBlciVqA3Ug6+DjvOtwXWybMtusk04Jm+6w0rRJdxIwBKRtoe8/K6G0EKMldfoQTCtMlaveuWnqgnYplzQ6h/sx3YtgGhRKNeoIKDjDGsmihtprc8vanrjW7K5vNQdaZzrUTr1TNcAwud2kpzhufJMphbHmc916tgllQKVUwrZetaELVrvewQxwgKReR82EpadxmHe6ZS0XPIQTU2BzGmIvry41Z2srzYp+l6dMd6pCaVovp+9UH6Pst7REYq1VhnAZhkQmPlxPlO4ecwQ8OwMtIdbmLk5wQF91TujxsrWZBfvf//iz+emX35rNLU3HrK81q6tqXEUfA0joBVrQHd/I+0yrg/85mKCQ/PEIqfSA4Ru951N18N6/34+deFpTeiGhfnh0HFvE1VK5Dpo54o1gBLdGcSU6TG2etYExFN7aLfmc+ih449yJm3DbhAp+6VeCJBgxwdPF8g5MO0GF4EUQrayvNqsaKa2saSfeopo8BgMIMhdwRQT0NTXUsQqVpRSnxLnybo0j4JBsR2Ib+vYGd2Gvp1zg1qDBwG2KdZGv8jIr2ml/15fXmh0NDp5t7TRbjJYWtOKkAYF37BFegLINHUrJUMfbUzEq5L0IpkwshFDYkjgKAUxiqDgvts5rvm5lflGCaVNC6ah5v7/fnOic0xlSSf4chqN/1CoAuUBFcbB7xZxIB4cSx1oVoAUkg5ztU4GvvW80u2RlWsPSCDeKcKguIbsUOsDVxVzeUbnU35OZXWhL2jJ9tXnVnB6oYdH5pr2jdxpBnIl3arQZbifoHrLF0cllgNR7AQtaY/yGBL+dU0drFz7SadeWnFlyawtHxpGuBpTeHhtl6P2fHp82b3QOh8X77Z2d5ptvvtZoe92L18EGGppIqQfuBtLqMtrhOdmm5BJl5EzTu4ySGF3CRzosRzoD9702OvzPv//T/PnXy+bg8MjlaU5n5Xzqq/Cd+MEzIA4ySiUxEzI7KouNhJehwIogNYzabN+RnwgZJT/wSLglSpV0uIQD1S9qDnUlaMff55LkM6fR0qqEEqMl9EWdX2IEFeWF8BSzSL2Pbd9WsBjQKJ/i+zXcqmDAtv8IeMV5PIwCbzAdxx0Pl5gRLGaoPAqirKg+IXgWJaS3tbb0TNN46Gs6v6QJcgmtaHOJm7+CRatRN1FFC8sn/N6LYHJeu9AI8ZLxgXPhrtxwZsCoDZ/aJKPhpA52HawfNW/W1nX49qTZP1VlutBakxrnYBMQMncU2RxJe+0XKbXfwrlbZX4b6a4GEqlxIX5JOE221uEyfNHbVkANLF06TUVQc5gDXuT8hc5dcOj2eF980Vkn1T5tlCipGGyXHql36Q+6h69b/WLswrYOPQMYjuVfL3RalK4jGbngDsIGb2W+9ZA8OGSkouOvCkQ48YCeLWsj+wc6j/P7C20Zj7NNmzqPsqmNEMusFzB0LDwkHkLdhWwA8lO3ltLSkiEumZfUEfpyZ6ozCPAfNe35g36MNE/PWZBUCISXeU3ewK7MhwSX+ZD6oHBSuEEEgOvoGSf1hDlGL7BCK/GyzLT1oY5PGEJnGlAvm8JyZs+u+tC2+AiG1iGZaWDExNZwRkt0dCmXlBHCJaiOLBxvpwjZ4d5BiNgFDokMeinA7VMpuIyIYOcKfhpxb6uXUqMV9RknuXtQoPW3taWVZkdbxHc2ty2UlmYX1B6LdzQ9BpR5+wH4FrQ/VLsXwWQyxJnkZQyZC4omONiHvzdBSDB5/7xGTbti0pFuhTjRj3NOMzoY54ZGgYkVMQusTKDvWjwHtDZsce8BGgh7b9ZMdEBPa5uuHFSgmTE/50oVlSgq1uqmNkJo5MBI6ezwtLk8UQnSP5wO8ioiKZWpanO6Wc8wpYGq/NLHTkLnGopV2NsbE2qtY057phN5TprRPrGIPecG9s+XL5s1Lej/19+/bdbV6CwtfKvpBx0MVINMOUuhFA2P6BrawN0e40kKWeeBzWIb57jo+dP+neqc2zsJoj805fmDduKxI+/o+Nj8FWeUh8HrHCX0acs8SF2+LjdVqtfKURW2D+x2NqILfELJMVOWgnFAHKfEB0CsLtGpE5USPhyeXdQ0OD+m82YXJZTlTl3yRgnieggxmAr0Gvqgx4fZKZM3wUs6MoVBe7qP1DOPIiXbBCOoKG4eHotkeXLt0OrCkjp1G82upsWZwlvSmiM7GNkoPkemVCrgJLzK4x6N9ySY+hjTSAxrIHBn1LSoKQZ20GyunVkwHWhKb29/T+cw1Piq4XVBciGKHKN+XKsj/SR7tmBsn9nOtQGnXqQ7WYYBwq1kaXQ/CkTcB8NnWOklCmG8iCsnFmjnVxeb5QvNlbPOpELmn3YwemClLeaOOAjWKSbA1AsarUaDNUyNCj8YtsZ50C/tNSyZiUKZMLHhBw5dtcItXCKMmxt1VM59WPTPv/7yuZydrXVVLK01LTNFRXhzzXrLR4MKv75H2J7Kt6ZgGM74s7mBqbtfdLvDHy/+9MjpVHfkwcOO1zCk43kfVrj33UbZAqOIwRd76l2cUXi3KbVRFLJ1HBHrWj0qSSpt7rvTpKYP0iKE2Hm3rFmGxXUt5mst0oJJG2nibCTlKeNiCO4kAuHbIkOA4apGeViIlozWMCxUuA0mp/rRqpHRaw/Chz1M1KYahvw8EtIMjIRQK5TKFF57dolYimYeKIpZXoEBJ1IZcML5k6oHEUyjMGZ4GdsSRab+1zXHyYiJTRBvdLDy+PQ4LnjNXRAC1AolhY9sGAW9dr99yDrWpzeDR+KSemYy9pLdpk12dFU4DiLPq/FdutK0hBoa1hVO1Qidq4fMFqyIWeK28MFehczJpB9utUqhNMpfYcf2AMCRuE6kBlzMg36ZjvRA2uGyWYCSqExhStTp1FxoRHQhwURy3GTws67X2dEI8u/fPFePT42QesisoTgFBXJHCMu1EVOV8BCMJ9FpFHdxv1D+c0krhHPm6+eff21+/OkXCyUEFWFqoRSjpcz3oHawBIXrkC+FqS4PZnYdro9p2BTI4Wq/kmI69eDI8Vr4Oo00Ey7CAsZXtbIbT0OCeQkmrh5a29FiPlcPabZhVueY1AsWL/QHfP2Il98w4pLNefjafcznWvFqwwas1npHA3gmJsGPIQAKisG+4GmEot7Lk00M+jn/2exBOdFvSRscWFf6ave5BgPrmgrniC1QIk1ns+InB8Knn35Sl3rf9+NtjyaYgpmMpsU4NSRzYgRznLlD742m9U7YXXRyoIpHgROxjqSPOJf1Y3TBSOYke9Ne6cM4XnnfbBwD25Hlnzg7mzM8elXwCJteaVA8n6+Q+6ymM73epIMXSzqPsawG+ljrTeeayjvXRhFHToakoGjhGQGFSZ3EQkWQ6+74ujCXcMPi4uWkEt827KBhEH7aB3VDFLTkS1QMFva9LV74s8uKowbckP2XRga//rbevHjxdx0KXNXhwG0t5i4GUgLt+/fUUHmFMpMawoNBbCfN3mZji1i6BFHYON92oo0xL3V10y/aHMIUHrc70IGBZ2wgyVhdfcn4+KQ5TW1i1w20WiiXt4QaTt23MNxahkndkSMo/pUzTWgU48qxAzpgUhjiq+FFeSqPeSq1aHPqxC1v6nC6Oi4LmmmwUFqgnYkyld+IR2TFc5KJUMDEf7xyJAVJfTB0ut8SnoJlDCAFniPiKmBUdRlKJOxRb3EIscaXP2byqAsLuvpsdUlXfWknHtN4azp6oWttPePgtTrH1MedHWDzK2nJWSDa9GzG7R7UowkmaIHG+Ily9Xl41mFVO/S4q+mbnee+quj0ja7q1wFT86dlUOEOdsUk9jBFQbeyVgJnwFGR0v+T6nVi4KGfnfhAQVEy2hlr8aIyMXM+w8hJlWtxTdtfL1aaE7b/6tqiyyNNYOjqcfeGFC3qqShvKxuwopCm7Erw6DeqMQxucRWQioqhIOuw/QCF0L6jbdBw7rncuBOPexSZcmBjw/u9PU9X/fyrRk7buhF5Y71ZLyMmIJ5pGtiFhkOWqrF9/BKbdE19CBKP6JRYgkKY04UmK3CmMTrVZphXr99KIL1ofpVQevnytaf1KAJu6RUmwkechGKoneU6pQQf5W8BFTXMDWQv9qhI6Z564NMrPXils2EK8+KWsXB2WVY41tfo2FJMWENiyo7bw5cZRes3J7sumfFUnzu0rk0GDJSg7xqd15DICB+o15gXED0aw+16qBqxgQhtG6K4rTnDpw4rMcfmB84nrczrTJe2iG+r47+ldlbd3NiJx6UG4iH8NFtUeHr49CyB731+H1gwJcPQg5+cQYCvanc9nFzWRghGTV9v7/rG8XdH+82h1lIudQjXPWdFbfOhMMvQhjEukun4NyxM5zveNAhrfOghvtcTp3K1YGUYEiIkjTx8DxhDc+1AW1jTbqPNleZcd+ed7p00l4fwJmFRFCvAiluaj64S9rAj1RaLyiexAVaaK28bR7kPhosUIjRf0kudsB2cwKTYqRz6gT/CiKusOHiMG5tj3ujQ6E+autrWduDnXz3XzsVNb4EFnEdaYgpTGa0yHQE7XKmF/FBVuHB41G9gqU6JaLXqtf5qiOWopsSHaQ+OTySQdMZLvOBevHcS2oyiopWhkzKMtgI3oEcSlbkzEvd62NZf3gNNWOs13gDc+F1paiBSUTpV5caNzkXqGCDFnTUc9WN7vLpsWodV3dAa0pIOpHNz+LL0hSVN7foePHXcgKtf/gHaZMkNrzL8Dzd73vIDHmPYcw0K4ceqUcBGuGf6hmtCTCeM8nSeOvsmXcVhSaOl7bXN5iudWdpe1fbwWW0e0hBzgbJV6plfJJCV+hbQQrQNFiEnJzpSH0vSB3jem2BicZsc6+pV2PukwDQVKAWal6gmBHPF69plpUv0mhMJo1d7b5v9syPduK2RgS57pXcU8+SAz0J7E+UjMrVEG2R6D5o5Pz5+L/xYSwXHcCNw5drFjtoSGa+wZdzkHUezS9piv7Xsw7ZHbzXVeaCbx8WLGDVRIAUm4VfAcaqsXVpDXYcAqGJ0xuEQO/9hpkQw4iZemWLEUN4qrylGUTVC2HiPPLTKlUOjP2qH3op2Xn377Tc6q7LhkdOCRk5tg94mT1rEQqdZz1QJoMWHCVLBFWEpOs85MiGdXYk0wvR9oZ5R9LmODHBy4N37A+/C+063PLx6/cbPprA1nHM8iupfR15ys3MZa3Km9HNmbPgbPZM6BXTFK50DzBRce0c+Oa9EQOQZ9R7K9ec2gOjh52l+8YWbUjZ07dCmfksqEwiqK11zpoUAY2XQhhFImiqli3tLYWuIMOO+BdUq8rjQ4ec4QeTwwIHUcL/aNZEOgPaBG23llzFuhlEBgXxd6Mta0rfPvmr+/vwbz0oxVqLdpfTP8uCisoLkKSEcUzE4O+J6XQ13vR7uQ1zuTTAFMqBecc5kJ5rBWaR6iCTYQbW71MljzXku6YkDDTc5+PX2WNcVadR0esmNECpIimqmJOi0J+jUI4keBj0USjjqA8r1JIzVNxOpnD61MXN4MKl0FwX2KojOLFxp7pz1piVPV1zsa0OEDt36fJMJFCdp0RWpxByPcZtOHcyRa4eR5qHRh4TOcEGmq1HQpbDpl9HS7lIB3fwr41Pg4H+iHYp/aV1l7deV5gcJqDXdPs67Vhvr6wqusqRAkaeKLBgxzqCWpmAiNRpGgCtwJorzIylh0leiGTdP59oHE3attWmt8a1unX+h9bYff2Zt6YXWlg59hRNrCfR6L7wzghgdcZlG52LAH/hJaHeITsLUY2q+F1LZoCxHKrapAxZmjXjlRkj+XPwJhq8sftLBcZSLOrO0tLqiTQ/rGjlrbUlCSruim3OF0/YQ57/TcNyknNIFtGhTah7J8dYKCLdXI0IbpdqvNl+HTvU26vYq9BQGWWArOlbux1MXxTufeQTw+eaunrfYblZntI3eQomd0dQC2gxgEkk6AgmVoMP2YN97Fkxj6Ch8p2ig6Adi0mSNCx3tBHvtdyyY9ps9ripiSq8wqkRXjM4EnMlVFZ5pLLQEzrJgT78kpA0THq6gKkm8I7O4oik9TVsgmM6PJZh0UzANFovdpYxWMIkvYEUbllQm2eq3CnQd5Tb+LQzR6LREOkZnK8gOhTPj0cS5znP9pdvH//2f75tVXe66oxuSN1RmPMIQN1DwLLCMRq7DON0dbPI+aimgw6NhYYdQbkcNmoI50hTeb3/8oYO0OrOk28NZZ+IJdee/G5bgZLTd0NpXcMONUd95uK3LlOH+H+wK4PzVQISvexXoEcQUKKh5IJ3Szp13XN21glCSQOKGB4+WGC1GyyzwlABi8yUtYHbCCJfAwYY7fRLFO0WKBMdEMaXyT31UUAHSf9DWAXXdV1TaVgTOMuv2mrr7eudZs6PO/ppul2cXHnUP8YOpit0l1jl2bg9kejzBVAgkY6OwiEFmZngwxPRVRTqZvKfn19/t6wS71hWY3qNAUllR/o5iYNutGAjQWisYkew9fkk00nNpIiWsdm4RwnWIUkAY5RIX3qydLKiXuKpdeggmboQ414HkK3YwMq8M7YBFw1xqUDREFMnwtvOQFFtcgYFK1MP28d+EKwQDm+sgI8jwhO2qDxf+7msHGu8NbW5uNP/8xz+abT3HntvHY3I4aOXrxhimWKEXczoVn4fVrtMYeAo7jXroxWZ5B01C8yQ9l7Rye/iPP2oK79Urv1SLL1N+FmYKWKrJCHIIIIgPRnskBP5dktjqEazseII4AsWBpbtxoAkOcwinCDOnddcVbXRY1bord0uyXdyXHGtu2/HMMQMqDOlSH8GYp+FsPgnVJAcSUdLZoBibFHXDgwTRV1oaQTBt6EgOu59TMPWFkuImLAN6vM/jCaZWaFTEy81NhyoLO6QRTAw7jzVSevv+nR8SvJSQOtf7TaWIBiPFTPLEPI2WtwBNV+lDGU4FJqg/Jc5Da4OIDdqFWxEqLZolCPd++XLXrYvmUJd2np3q9mjtYKRnHfddZbGj3yRl/iZ86WmUVwiomg94kjYRpaqw4XDPX9K9IU0a4HlVMrZFv/jzT1/s+n/+N5shtnSX3ldlIwQlhZVLVPAjG/0ugRsSctz7+iSDB+GDdyrhLRQZCdHD1Uqr8vq4efPmjV6k/d6C6eDgQD6izOVfF99688Nj0pW4d0Wocwk36np0tqRbEGUI3CGn8kdItT95yewbHjR1u6TDtNyKwrVdC9oqztwUI6mYwgOm4FhFzkedL7mfXiXEU9FatJ3FKh/FwbrM3kymSr2gtaP1pVXvckYwrUpIcdpvXuUkhNNkUvx4ggl+iDkhYGyJ+WQxM9aduDpDTNVrpbvaSfJcO0l4FuNUBe5Eje8FvSEKnDLGeWI9KnDHapdup9O5VaYsoZXTNSPAnfnXfD7aQdgG8m5MRoAzcQNICG/+WEOY1Vx6VMxVnWnSg4viDwdRGaQjnFjazMf6ggy+Ttl8w4ZQCr8aByfsdGrX+zBTmQYoLMkEnqPSxJcRxYU2xXDollsP2Ayxu7uj6TytNWjbMKqD4hJjWmmiws/aI32Cx5F4be4wy2m8mj9nyuPX2uTA9N1v2i7/UnSfnOg1Vv1xRRFhOZDM4jcj6xBWj0NiR1VdwooZzXVQE9BuCxLHyKdaaIVQirKKuwWTWi8fPOdWFD38x52SfpGWVtk/pd4m23HQyZJU7Z1JP0VdBJk6PlLUJ8hne/i63lra1rbwXc08cR8pu54RTAglryt1DIrIE/J9XME0hAkUGn4xDNW5HbFvXZcNfrP9vDnRVNWBLnc91CWvHCz1xZ3MpavyJX+HN7KZUMm5tKKT2BDnOsinM5NYp0i279L5hakOMQRJus/qHVI513bW3UCfqoE614n/S031uH9ooUcqJSWBwWTI+sCvUDX8MNcuGeq+9BaNXgJg0PepXTB755EaYKYvmdLj8tLtLc2nf/2VhBMvcYpFTG0FxYKGucAswPop9BB4AAtIDFOBHO2215YIQqVQfu7vaepSd+H9oHeWOGjMaOlCi6+z3BDCG1UKxqaHK2755T6rxyVwGHFyAyloTPQiV+xifGUqHTAHxa0IJIQSvOBGFDY5sNbKY4CzPkSrXXjikXckKt95Vt3hSSiSwzSZLDFmd/wM5G0KJS5iXVZZ2NWME5369WVtoZdQ4o4HbtshHAxx8zCB3Hg0wZTFcoCvba7gjkRnKLo6txTvNWn64tX7t3r64cC3QlzpOhZ1CqzYQtqHVZXCCBEB62+LRD9mBMn4GaiO+GnMTjVKxmiALWqtIcLKyoWUTOfNr+g096XONWnEtL/3vjk51sIvl78qZPa4HVtSKKCEHhQ61ND0CWvBlawYGuojHJVA4HM3GKBj3IoetpnmWJsBftdmgO3treaf//yHR03b2qXFI4tBAmsZMa3pTo3j9zEYRmo/hCJ9ckWqSVUCTwrlHv/a3KKrqLSm9ko7EX/QsxYIp/fv93yHIG9X0QdOFTjfP+aZ3t31mt5BoQQ0RkUIV59SihGVyPMlrNLjotaYxlve0MZndc4smBBYFlqivSaf5FIVc+2dXk9OT1qke5CoNnFOOx2XJIQ4SItQeqZr3jiCw8oSd5NSSqA96U99kmi/d8E0fBpBhQ5GmhN8ZcGuHzqK0/ohc7SrRCzdksTf15Tejn5vD/b0BILebWIr7CWhaGhr9gJMdk8TGNzIj+VCSbMfSPENEs8adj/U49mogKJavUTeZprTYTnWmJY0pXGi93f0lmBzdaoP2xjFpuAPdMhkaSOzGB4jiZqKPjOI142q6nAfb/44roKZ/tQgU9NmVRHPVB5evXrje/S+12iCxwRXVv7VrCwtCVkojThgbrrhkf749pQQwyXwY4Q1XH0c/pkuOgKzVh1kF2FZuVGe+xHfvHvX/KrHEr/77vvmV10/xBQe03cwgU7Ima+oClg+XNyBqhOYCLN798I5eu9CqcVVuSJzbOTRtUrKAe9OxI3cULmf0xMWlPV1LvHV9UML6pzNLip/edRYgskbpMxXeBs5SO7bGNbgQZtmWJ/sVzQhmDhxPa/pbT9poR14bA/nEdYV3Y/HxUM6hyz2mBMduyeQ6HsXTMNppjSIkxQQF4xiT6sjpWDSWpMq5crVYrMp4QSTEUzs0mNqDwCX2XIKjMH5S+GWzYXQH0ONT9ojdIdDFSQi1g4TZXbFhTx6hxJODM8XNde+ol16pxo5HF+ySURTOZZQ4oVIpqcUHIJufskH3Gsz9k4VLnUOj2EaQNfYKn+DEo2CRD9PXxyeH3v95adffml2djSN8WxXL92uSHCrcVN44iGgZNM3YtfkGG5hBTwmxChFsHH+o+J17oHNaN4HdPIOdXSk96h++0PTlT9bf/OG7eGiRrSDiaH53JKDy534H4dhQLqvbxDWxzCEknnijpN7VarL4c4t4rM6o8Wjfyt6i4sbUJbXlzQq1oiR1oxdU5rHQjR5tsBSjxxXKmaQwri9kN0J91O/L0rvA26NOWZ+CB123W2tbHjj2A6HzpnGk1tueKC0ROmHKzWU+8Dyw2A+kmDqkG17S3K6xiIVpGhCuBlixvfoPdPlg2wff7v/TueazppjTnZTc5UhwWRKXyji8ucC2QLv/Ac8MtqT0d0vZBOIaL9SL2lOh5LXdW8cB20v9Dz9xakqNcsMUORKbg3Lk6Gxh2iNNkSVrCX7tcQUSuXEU3o6bLqjKb2/6d2mNZ1t2dDbTYsLc+5JE9FlRQ06JhTfBNE6FLc6Wft90g+p1in3U7NwEXFsZnj3bk+78H7waOm1hNKJbw9/9Cr8QdxIKlMPIMEH19nSMDBl5zBqTS2clIOzupUAobSmnXhs/PE0nkZLFkqUc6YA+RmovgCoWGx4tttE0/HkVNIQ3NEkrohg3Ox2Ujvv2OzA+tKGpvNW5spoSYywQFIdyXiTSvijluosD61wKoWnnf5zVzGaDh6xWhaDuevp+clR80pMP9ImiAvfPq4XOj0cKM1MAm5LnAC3BVOeJcFslCY1c27CK8SuCCv0zqrh9YFb7Vo81DU1Z0fanaehvVtt9MKElj0uniG+EwZBOv+bMHhc/6CILwqsGTnN6B69c28K+EVPr/+3pru44HVh/mttDFg1CwjZG00IREIBUssAW+7jE5jfDDlygmuJeB79pQ4Ss67EFB4bINjgwHrK/eN7M6Y3h4DmumSFuXYFRieUoEs1tETxBgbsbHjQmiGv0vplWm544NzSnDph4kUnlIAslUmGLap+8SpOT1NLGmCTKKAYsIbEhofNFd3w4LWlLU3pxdoS50L5S4FE2zfAmoniw6MJJjcMHumIH8lkWJVCA67hrp+mlKU0RNVYfWNxtXmm6TwuIjzUZogjXcVDQwSoEqyASAAFTpZwA6UxjvCWfQGe7xNSEBwVEcIZNXGT8pL+Lk44aLjsV27PuV+QURNDChELL80nhbdIwi7eIMPN+tQLJ9xQTDBXnH/OzBBKrNdw+8EbveTKFT08L74hAcWP2wHYoYcAgwtZSd36AeNBVJ0Q5vzViYMjP5SuHtLI6JWEkreHa4s4t4ef6jqmCJPhHPjpfEo9r4cr7kcWcmw2byCTUig+afTExazLnFvSmSVGTfOaJeCV63iZNkdKCpvwFb3fCCuBOiFZSZJceGrKJKpeo7NuzMu0nFlitPSVziw907MWyzOLHkWlSILaYbQWtk8MCx5NMAUHKCQqVIVTITtoJDsHvxEipvPHO6XIf55h/2pzp9mXYHp3fNAc6cCtJq48MqCRbWVQy+ZIB6vLJBlZ5YRTSyTaOMVQhRv0ehB7YcXQqgNZhVfWRcOcRk08JU3l5fl1Hlu8OGXLLNgCrAVYmIBH51aTm+bOFxiTo2hw3GCR5/yJFxay2rnGJgB2rPEsxvbOli955WYIboSYZ8OEYxIrqDetSfC9kVhzsjYPT5A1EkZFbINnlPST1pZe/vWqOeA+PBa6LWDR7x1xEvkEKmmu8FWekY+RC/hXvxKMEEzMzarhXdKjfxwq9+3hGi018/JhTSmn76gPNhd0o+CHpSRvsDJnW9BrDEq0R9WSPQXfGpf0shttlpo98p815hVf4bbl0RJrS2szK7HhAX/zOGIHvwNqD144TcT3cQUThWMEGyg0LmM0Og7E/Cg9ft2Sq5HTMwmmA90I8UprTQdnx1pXUQOs0YEnWsmEIRyvy+iIZK87JyLXfT6NS82AITi3dNTh2pTlSBzxhG21F0XacsiQlzt54fZCjwle6mAyV/fQ0DGtRzVnwTyEmuxOl08kkmh0tjC1yT60YWzyga07JBoI+e0lFsB1gOlcjfrveg5iQ5e7/utf/2qePXum2yCWgnZTyxaIUlSS6AehrSaIhPmRL2kOJHgg8/j41Js5/vOf75rvtL70TiNBnrS4Qrg6vwPxGiKxXWwDzNjvuHCDMMcCGuI5On7QGpgPRlQsV3zCqKR6rSieTZ/VLQ/L3vCg82k6u8Tt4ZetUFLowr54fYDU+/zspZSJWx+NaS/Op7BkumNhZSA4UBRssXP4uU2kLquMs2NzSW+Vbei5oG93v/ItDxuLCKW5arREvG60lNxJ8JOmP65gEq9gVzAfS2aDzDYW9hFIiv4tkp8dJtuaRz3cONXIadcHbi/2LpojKqzWUnymUJsByMnoayXcgHPnr0v8EBgFrzvDywgCWYNAbvQcHK44ZsCCRhkrlMIazRq0criQC16XdHfY5ZlGDlpvOlf3+uxS63HapRfbRdUEcqszMAu8QEkOsvezoaQfAbpvG7cHoPP/FKYRSbdMgmFty5oMilGQ5nd0vudS1/a8t3D6+effdb7pWbOkqY558QZFyEwiqTAUW/SJluATUJLQR4Ei1fgRMn8nupjXNzz8/rvWln5pXvzxQhsezoQWQon8a8VqRK/AJzcAOyr1DDPKvwJ3M5Be4NtYaHQLBqXA0VEiO4N+hFL86D2wfrrIFJ7Opa3oxWKeuKCed+GVpiwBE75UikAVfzPZ0Cs8qii3M96Cc8lkA7wpfAlMuTYfspYXbESHd2DK/5L1Re241d4vrZ/ONWsLK7qoVe+SqcO+q23iy9o3z7p8TOFFnehSx9RD7HbkPmCoxxVMhdCu/isjSiENtulLBsFH/egNc2bHz0XrmXFeuv37s290seuFXuzUdUXaJn3GFmmFY0qLVpgMpOiFkm5jWyVcsMPtpowa4l8KUAF+N014DIHYwUjPgm/n0Y/nqSt5OjgfrYJaMKkSc4bpXMLpXAX4SD1v1l7iHj1GCiqyPNAmXjE/XdjexwkcyZzEpUZC5pg+xNNIDvh+GiujvC75NJEe5pI2DY/wZB3Nr+9AjOJxyJg3vF6+fNv8z//8oDNNWmvSppnlZV35r7KBkEYltL65eDrEx3wGeZP2QfhhZ5TELRaofd3o8PMvv2on3o/NHxJKe9rwQMO0qF1XFwrDbB7c8QiBfLqjciquXGMi3h3sHYAJA/AOREo8LEVAIZg0IvKZJR2iXd/dbDaeb1k48WBmTOFF7e5KiYTSMJpKGaHMOLnybcvQGKxHefXhDIT6KL51kb3lvYB2N8TlXDN42nk7q6MC3vCgM3zbum6IozQIp3UJKZY9eOYlRVPXBgIM+IF9mEsCE6Q9rmBK/hceUXaGMqqEo72JvfgqhqqgeY/entaZ3qy80bTHkaatjnyPngs8majcdD0XjLbxFZzMFueF4eNYErp1Bik8leCu0Qbhg4xgAMZ4FXi12U69pOBBhEe3ok7KwFQew/uFS73XJMF0cnrezGud4kRTn6xZ0PDN6nU17tHzT3RHnyrAJJ+SLuMRXr0vyYZw6jnfr6Ug0+EEFsrnzqE1q43XvYFXeqPouPnl1xfN1tZu8/e//1MHb7f0ZtOCHk4LqpN9RryC8/GE1MBqcx8yPm6AZLhSZ4I8OlNevXn7rvlFd//9rDNZb2U+0QHqeT2Nna+LRqMl7HsE9GF/tG002v10b4ODM6kKKCM0JP45Ygq7mlJaYjoQutVhRQdp13a0Rqgp6jlN413OMp3JDAFlMKnEkJaCeKWlTxtEod1gE6b1TFh30D8m7rVkAhhsAbfoeOhrOvCjQymBI8IRPTxpsbG0ZqHEnaLr6rQsay1uQUyBfbFxLBIprLiW4iQ6PK5gEkdaft+CO84yRaA5obdLr4A37MkYtpEfaRv5OaMnbh+3NFJgwius07kxDUI5lRtDfvIAA0mPx7f4VpXa+IC6SrB3KMkvp/RWJZiWdckpjd3pkYSTNkNoZlpiKXjpKaFMsOiASifDHvK5yX9IlI9zahMMgUKlrXMLO8pfhXXVVSVl1PjmzTtdV/Si+VUHVDd0Fm5+7ms9nqYQKcw/DrMbYreI98LhSsPM+h8jJTc6wpd7DvcPDr3RgefSf9fuwmPtzIMihBY3fpBndD4cvwf1ESzJ8LFJg7MCDGFFOFlEGIIbZMIqb+hkMW23pim8NQknDtIyKyCRpA6neDayF1UnlikUHMbiOYme0AL7pIsUyvU8G0F0H9uGZgF4s45rh7bWdCxC07wzWs6YU8GmfBB6mBruOizk47g9umD6GLItmHTVxqbeGGFe9UiPCVo4aR7ej+YxraWcjPyR7vIZhfRj0r2XuAMlZcBaJdnHn3DIpyyA9B7tpjLJ4vCiNoosa9jPtS1c8HrBdB7vcUuA+2CuCjLR+Y1OM/xJJdW4sBnm4XRhE0wYSFJVWb0S1tYOdIXVy5cvNfr42e82barnvaZpD3qdCKfHUqBNH+qCc2YqoDqmo52UeplXu+9+1dbwP1786dEST3uws8f9LbXHXNgaGQ3m5N7TU2DdjvZBn2ykY4VO3UUoaRclO0xX1lZ1e7hGi+qRepQOzVRo/26ifbJKaw/bGrXMxtRhSTEjlJJcvxogwcRDqltaztiRUNrWFvF1TectaloPgeRNQEh2qQqc7XWSdpjAz5MVTDDXWyR1weumdqM8U8YcSjC939O7TZrS49lp52Spv67EijOYKc60QceHzqiSfluAMAziZM82hAIUszSvAyXOiue+p0oxp+YX5lWxz+O9mtOjY710qx16GkF57c2NOQBKegWkk8Zc41CbM/USPpN+aB2UBlEINBNZ8UB/jEhONQ3GdBiP6nGH3rffftXsqBc+v5xhHxp70iPtTJ+rtWTVh8OznL/6TmtLbH5gtMS1WzPqIZNlUEVQdyyucUAeT0hBB9SEQOqEEsKJl2m9C0/5xRVE3oWnkRJMYP+HR4wq58AYruDtoG/ye3iMB3Udg0p6mT/6IGJ8x6XKB52pRV3LtKpXF7Y0WgrBpGk8tYN6JtHr8LSNcJYV9lEq0xjl/5juT1swifEs/tFzYCrvQLeOv9YVHAdHh14cvNSogOtLmIf2dN5gTuAu7rt9HvS771xxwmMSGVWeWoSruANhqdSUZDdiMnMyngq+drSmqTxtrZdgOtPB5HZ+XwFp7J6iMjuMOCIIRlQuynQ2ysAHpscOVS7+1AiE28dfvPiHKvRas7C7pUaPSc1HUhRMGhH9X2gX4bGmo1++fu1deL/o7BLvTJ1phMv28MijCB+j3UfC+ZMmG4KFnPNISYIm1o3UAGsD07IORXPDAyMnbtKXNAohhoDyb6DwX8ON8vBEFZ0RN060X5ilI5hE0kIRTNtseFCnfFVnO7l4iDN6rBxnbUjKx3FpEjn0ZAUTDIehNEbMq26urmn7uB7D0tB270iVWQ0vr3gydU+9J2MI70Zbui3YMbfqYbMocWqTv4VhdJzAPemjuiOYzy603qYSzUNqV2cbzZlGTFcSTFdq7M7cRR/gjZnUIUJ6fR51fsHQyv5IxlG5RmX2lJeYcq6pMsrDO72EzA43Rk5bEtbreop7TT3NVgkYbcEomG24YhidH/2QwcOak0WMquyCI7f4HWmk//r1W9/wwG68FxKih8ovZvnoRLDhh1ETUoxmmdu3M7/7qT2wzUyoOVbTOYiLA4cjLa2VdPguO/Sga2+OBRF34TGVx60m8IkLi9mpd6ZrmjjdZHbUSReIT0lLLpiMYIWYIAr0y7KIoNHsJmeHfXvJoqbyeDKd9aUtHabFzlEaljcQm0+lhQAAQABJREFUTaEAMlxNOsuetGCC5Sq/MWqaXVYGaRFwh3NNx82pBNP5sbZK81AYOewCLw0hhZnIpTeC0Y42POAHPOqyc8vS0r49VceFBIhEl4YJui+uzj3lwYNqeqClOdVa04XWms6YHuJAslo9ya8gX/AAabA1LjIPJEUyJY3Q7TBxH1VnRiQqJd7JJmZz8enbt2+bn7XbbUfXFH3zfEedGd0not44z0RkQ5D0Bh+vE1azh7CD9ozRuvcyuvC7jYWQmtHt4cdeV/rxp5/9VPy7vT2tPTG7F1BIJ6avNApEKClO4jk8hxKLh9bBt8Osl7q95FcY09VNmeR2qdbXZ5b0jMWKRrS+D49pPI+WFM8bP4gFfL402U9QtfQLd8w1u4I0O7OehEKGsxOPs+NLujN0U+tJrCvREV/TYVpdPOSlDZXiwpHgEHFr0Mkr9PwRZtLUkxZMZAEVdZ7zOPrbWFpvvn3+daPHxb01WispegZBaypyoQdGl8NnPmR2lVZGezqrzrmHzqEsKXW6o/BxIxuefK9FbUsadMofuysymqY9JZzYBHEuwXR8oG31eq/p4kQ8oEsulckmbGD4hyewBlS2tRl+wHsCrOp5a1QI6hZQhYYjXYj6q64qYsT0r//+1lN6G5ouWtAFmJQH06OwNAbRCcClr9Ilm8W0d6FwKY1DMgpPwc2wqTOqZ/MD03bfffd982/d8sBW8VONavMw7ZX3TmsjB7CMIyU4IXSpPrypMBW8ivFGHDIK+GPmRzl1/dRLApq221aHYVNnltiJNy/BxJMW3ALBFAg6HUxFEH/gwSTwAXzupnpYw4PKASuVz+VW7uy0Q0gxVYcg+nrnefPN7nPfHq5TeSGYLJQcsQ8MpyemnqxgcsYpJ9Ep02Qic6wMa3l6/f3hvraNnzVn+5qyYiMElVkZ7OmCzCQV6rvUp4x2rzqFcEQC4KqS2voiNFwvXaLDnSAJwDubHAeg4pUGTQs6A8K0Hm/YnJ2IfqZEYE+BCkziY0+3tJcg1iK14oKlDVyHelyz+VUQi5FT4MNGiNdax/ldNypwB53Xmha+9bPk7qgomE/Y94i8Gy1mhz41iHQDkvmMLsdT7ZTkXr8XL/7ygVq2tR+yFohQ5VyEGpwrt8R0pGRvy0BCN2TAPqISLmMrEzgmvqApO9bys5CVeUYjI+569PZwPeGyoLvx2PTQHqblmRfKcsYF1FNW0FEpkwWrCnsYAbmzpGMCdL9XdKXWlnaTsj2cA7VrsvNcOreHM5XXgivsRkMVq81PgXVPVjBlxmk+SqWZgsrM6pW3R3PJ63NdP3Osczv72hBxoPebOPNARfc1JplRVHJyzD96J863u30+JM7dUhgb2u2UPuh9VYqieMM9eqw3MUGt25z8FDubITTjqRGTGsCTiEmMQdXCHYA/tg0aBHLv9mGYl0TlRUOWCjJ8B50afoTT999/r7eatHlmS1Mia2sqI+qNqyBQFpJkYqc54XT6MN8uvQznhleW1kcGpWT7ISM4HgDUFB7bwxFSnFfiQTyGBirdiklYhglpBjINUQsRh0dW4Jb4jOZYhnEIMTo6i7FeNq+XaRe17rek2/ERUGwZt38ZTTkvKdOZp+OSeWRu3Dr5mm0lEk6QyEwHgol7H+fUSdnQFN6OzuExhbeudg6xxBo7Gx5i3ggAmQcF2DBNQSjjk6o8IJ5U5MbhFRmnKqsh7ox2M82q4Z1Xhqh/pSs5lnyuKXoUKuAsMGsWgAsPfZee4nAAlwZ7eB4a+pjk5X9TkDGxr3kB666qilMLj2ioVOooeCaOQhobIfT1XD3PUPPSLc8G8LZNnomh8YzQfWRwG6badId5PojbMMz6bmlDkKZifeZco+j3799LGPzY/PDDD83rN691zEAXATOvVtXYjIae5oSTOnzOX4YK3hOixJJmHFqrFvFVBjmf9H5/v+HFXQQTDwByfZSKqvFIyFHgIsUWD5WB1hxej/t1mexK3WhkovCCe5S5+PLW0pLOKi3r9nALJpVNRow5WnJL7ahJdeqjU3p6PsGVzFjKKgXHR2OW1K5tbek5C01zasPOsto5diUjlOrREuWMchNlptY7F/Nlgtn3dEdMsF2MVUfKO1Xc6ErMqoPl28e32DauXgWLhPu6sohbtnlwzT2tVhzH0NdfF/hSjNM8KuPSvwT/JBowoSWBDaYtjxKkC9Q69CNFZ1IAgOGfKj66wmvzjm9mXtb03fmxFtzfaZPIghpCnmBnpR2lcBk+AOSXBEO57S4wnUZ6PLieSJAw5usqQnQ8IASU8FQ5V/6sa3rz//k//0vbyHf02/ZGCcIMg9amJoOf2SBgpYCb8TrhVAUwc2VXQI/ctBkDYcS5pR9//rnZ0/143INHAK+HGlPBNODhEGvoj20O2kE2+BAmLDDMzu3H4oipOfldaVV/YUHbwyWUVrXex7MWrDWdNbGrlOuHHD91uGx4kWIL9AkaoGCANXKRq8oBI2dEz/Liojd3ff3sK7+1xGhpcAoPGPEbXk4iDX2TdUPTleMEqCcrmFIozVNj9bvUKMiKcyuar6KntSWhxKNZTOV5l54WUy4UXFWhrehtiXB0eeq/U1ii74FbpNAL0AX9UNMwcIWUHkjcqrCttXK7Ft5RFJJ/Sxo5sDVZ00NLa4vNxZHu2lo7bc739RidbhvgHI2JBLhU0ap0cRmVoKM80qfF9Hr6Bd3E3O1jcTsTzadHe94+/pOEws7urm4fX/aPAQukJrWpX08Alzr96Oy0/B7w7eIHz1+9etP89scf/r3S1OKptvKzvsWakrb2lOm+SP3xR6gd9sNMyYXUA+vCuZaB6UuZ5ComdYa0u3lOT1rw1tKadkqubnD10LwP0Vqg0fvkB58FB4HmXukwJJ6SW8sTIY2ZH2QWZYGNYBJvNnQcZledpmd0nrRFfGXW+/A8UoqSooiOawYJVg08QCfcp6A/WcEUhVRVt9wnQx/Bf8oQDlUyuN3SPVJf6eLOI1661RmRM22PPtOc3gXz1Ro10Ui5ASFDBzKyl3nOcMLg6sA974+yDAM3UEANv1/OBsvwkCCVQDW8IAKhzLUuXIy5uKaHFzWld3YQz2NcSTDhj6J5LTK/gl0QKy2kR2YOPgxhR/u0nzaZYUwbkhThKxWxlPcymDYZ2t1weutoXRV+W8cN1rSBhvvoxCZvIe8XDRMcZQFAhV9duaAUdgk7tMPVbtGj5bl0Rknc8PDy1WtP4SGQ5nTNFgmwTTymnIHexQ+SCh4VfRNjTIYJxdxVBpuMsf3EI5HDTfdn2qA0pw0PKys8abHabOwgmFYkqbSuoqMOfo9JBY2/YAFQDGliyP1gRCBDfIicdY0LUJBayOS2hyWVh11tduBV2h0diVnX0Rh1vS2UIq4Cw9AA137NMjkD6qmpRxdMFNy6d2kGqsAmM7OMDzKWfCDzrrwljz6D1k9KY0JOL8pvbWG5ea5nDlg72N/f0+6ns+bgQgdMJaCo6K4cAlzytE0iYQOnRUTGAWsb/qMNSWxJjnSc2ADgNhgGBXI4GVv3DG+HaPyCSdEQ4A1t3gLNyEnX8SxtLjUnR+fNHIJb89kXpxJOvPPimRNSUIUxg4ho2/UES3qZ/N30a9hfi94LkUS3VLcOJV4dum7OCUe5igbAskJmNhQcHJ3opdvfmw3N3f/Xf/+zWZOAWtdGiLlF7RRRtEgBuNUvANilwwD/SCeQkdllOUNEnjCFx1tRb/Xo308//aYzVb/pAcADlU82XqgsUyeA05ICzqHCKT1SL56PrhUsC1reRCL+mhTWc1N5RKguEFPqbMhROVze0kWtO7oTb1MjgVWNFOfiAC1dJeY4oqUGQAEO/0c1DgSbWAXeHXK+bFp2jr2Qy3hBFjobH7iWyc+lSzA9W9/W+rlG9FpN13hSHSfG1IQsSqDhjkuZG7FwzxDoaS4xJlZ7dMEEZ9yrku6ha1Z46WRQNCQj+Jdc9poRFVrNTLpJX9abTVwFf6btwXt77/1m08n+qc44MS5QACVAGhjdYFfJOF/J5VpFrtcuj2ceiguEDCItFKHRSkVWZqq6Rb9yf2lDT1Vr+ujwaF7TnTono4biwiduxSEO9LlfpqVVgXUvDjhVErEOUjk4nbt8QO628QnXElMSqd1Gwck0QnfeE5vGQDvfTiWIX/z1ulnTY3z/9d8/e+S09M8lXfNCvzRU6vAtNs1EWoaoT2lSFDig5z12bXaooBGD5SO2h+/pefQ//3wlofRr85te2T3Ure/tvgvBi7pA2lFGkzLjgcUG6W0ChH0EJVyinkqXmfIVCgO46yfHLHPBHfmpzvrGC13dsLSx0Kw/06W6O3pHaFXzegtM8Wna3TtJxW8Fd3k14MJfoEO7K3CkOPlf8K2wlLDmzkrc6FTTKeFWcAdRYZgXb1Y1WmIHHkKJGaAFSXNG8osKS0iHhu8uB4Ih8GHEEdByMcCS7gAKFTYTZZwIwTTIkRxBudwFdweD2C4eF6YH5ymjmNhgi1rUbjyGvafL683ztW1tHT/071QjJpakeo20Y1z/tHkKyNZyPdwnc1EaLljDAA6mX3DqO6cteNDiXCpwNhyu6JpCmV/TlN75YrN8uKhe/EJzfMXN7OqtaiNEFHyRrUjxkwtgDTqEHGiGcBqG8Di3gt+4IEP9Ml7SOTSQHCMc3wjJN23RzNEQzOo2Zo4SHByeNH9pvecnboTY2dFvW9vH1VAqmvs9Tob4NLHZzOIIb6xhCWUmd47ZGONCyse6Zoht4Vw79IfOLr15s+c3s3xRKxBUAIhD+FDR4KQtEkwKW9dHMXS50JnME2ETWOMeP9MkoswPlUfucGQKb213sVnd0RbxTV2osyza5zgar3Kovxg99kmLhjfor1Pth5pAWw/ZyF1XSxcMfzyFbJpF5IJ2Km3ozNKuhNI228N9w4POLCkoI6bYSi7uBigzBKOTaQ3FDjsy3ASyZhCliRRMHZLiZGlQO7fKRA4ks0umZ96jx91RM82qHtPiWYy9U90+rnNN2oPWnOg2CIq+e78ZqQLdM2YaPcd7tNyET500uGX4Hp5yzBYzjcQTP2kY7KXOKf2uxVWmUda0+UE79E51XZGucrrStNIlN2M4oGK0jS3JZYKBSDYUYbvtFxg9hG8bsYQbSfgt4YoKCyadflPvlPWOg8NjC4vNzc3mm2++9i3k6zy3IMkUmCa+6GnGJFo6q/1wi1BFwMhiu/jIzrvvtab1n/9817D5gWuS6Dg7DoHM3jDw7VTfBuS+SxfyYUxBW780FPRLGYni02HJzRUuSsJ8UWeW1nfXdMODtojrhdp53lrS2tIl14gxlwx9AB9sAwYTfBhiP3kqTN/Nzolm6FQB8NZwyKUsqOe8qE0PXND6XFPMG9plzKOAbA/3NUUtH5MZqQ9Bs2N/yZUhYSbMacIF0x24BfMH8gYrO9AWNRze1IL2zvlR8+bwfXPEQ4ISUpe64JTi7zpAYP2i0sj8lFRV8IajLcKgr1Y46cdGCM4ysUX34visOX6vHYwLujhUa01eeFelkUmB3fwKAkItEuRr10HYdToTYB7GHlAOihBQ+mkKhR1xf73UO0i6DeI3HXjd3NzQHXqaz9eVOKmC1IgNL2CFbeGhYGlA1wgTJusHDue6Yujg8FD34P3VfP/Djx6d7ek+PJ68Z1rRqkR3PDlgDfFTPAwpguLT/dLtvvXEo6Qja4+/WORGKAsllxt4TDjGQPpjLViXsXILybqeHlnf0l1v2pE3o/UUVCleLSdtB+BTV4U3JoOGRkyZ01ov9exCo3ZfDSad6XPeVUIYPd/c8S0Pvg9P9zJxZgnFlLCPypgvhTlocieZp66etmC6IQdUHWga1ONVJut1xx0JpJ3DveZAVxbxzPjJ2amzmXv0AhRNlRqRks9PPXOjeRhkUkccjQXTAbMLmkLRtNXFybnOfmlaSSMHv3Krrbw0ChZQ0cpYKPWn7oDfwXxYng1Le5De4Rg5lIhjVx5iY1bz+Yya9vQW0ou/XlpobOo2iE1tX17hrraqukNtCDXalvAJDiQfcJNZfhZ6Dt9ouu5M60kvNFrSod6ffvJFrUfqDCB43FsmvMK6DKIbXCmTCtOpTKdzeRjTzekWlIVO4ouLzCo//HGpsFpjbbzR1J0uFeaiVq7ImmPOVIpOEDFrgW6Pz+IjGqlQQSpUlp80iJa0oRzM6w21zbKj+GvdYLOrDVyr2vTg+8MpFGqgHFxRSnemDxLPotqk0uGJ6E9aMLniVpkAz23Vx/knOxnDxYdc3cHTGM+2tpsDbR/nqqIjruNRDN44yQ6r4zs3AzDfp5q5Qn0M9tEA8IVX8zrcuKQrYDhDcnakSU49v85WXs16KoT+qFDoheme2psIxkQ+mdTbfsC7jmaa2J595Y0J797teUpva3tTDwp+3WzooTpuH59TTx8xUasoH7iFe/inPd3ERgXc2z9oeGPpB93w8OefL31p66V6RTrXb7iMRFPoR8xMKVNN10CefHksFRjxFU8KWu67FISiHwN+npOQDm2qbermz2q0tKhzdFyLxQ0PHKRt5uUnOLm+HFJZ8eUG+B6lWEqaMj0xBZGJsniCMKJu6Z86xShoSWeUEEZfSSjt6D68jYU4TEsnOzotHc8TUk9/srzpqHjSginIUC44I8jtyLau0kQZwNvPsM9r+/i2zjVppPTm/VtPq9BjZmOq213FdyUDlBRuZaBQFSY89PsMMj8OOIpbWkua1SWC3FO2rlHClXapXWjaqbmIGzO4OocaM0slEkPgspngBl3GJ6OEd2ao9ZhqMzUc9JTiXNyxbl9HgHDj+P/6lx4U1MOCG2pEZ7UYTbQsXxSWnHILNyCl8MIcRUV7SbTh4czrST9qpMROvL0DPWapdYV40qIUtAF+uvwFGMMKaMXYahTGh1aJVOhmZYVCaxcBgZ3oVNC4dUViWGtJyxotIZjm2fmoKTyeu/Af4QqsZAd1kpRcRzHw+wwUQum83KDMcsKcCGVUtKp3lr5SO/WNzi1tajqPo7Te0KVpvthjD4+iFn4GbBhKwkQJpqzkNaawvy2g9ohi2xb+NjDhKNqUYsK4KPuLmT3/i1caIutpDLZePt/Y9ZPVZ3tv3UvWoMp57liMj7PwB5jWHlbBb2tPi8ATNGjWX7XdO+5EMG/e8CjbpYTSCbdbSz+60PMY2l7vKQPzRIQjqFoGQfagfYJZkai6tRNBDJXdgMosP8oPa01v9GYTt3wjoLY1clpc/JvXKtnBV3oxDg9LmA7lj9EOjad/hSccXzjV6JNrhwzvl989WmJnnm8Kh1UAQaUuIzBcnhF+9ux/QP8xlZOHl8LuOir2CEHkOsmGBrmptZnXtDG3jqxsrlg48faSD7sLCLFCPAVl8MDAA1w4fk5fipI6JxZKqmFLWlda1+iIjVqewtP60uqc7sNT4zTDWQLxIctalLjPiRl9WiZKMIGa5+RTErmodgj3KgAWF1h90O0Zjv2q4kD2ZoslvQ/OA/zXV9/qZPlls6/FaJ5ip4Ei7RxWyxIgnXzA6DCpTG3alduTMooAsc0iXa1o3u7MswPnWnM6PmC6U5VC531mfCKyEBetb8kDM/+JUG1iW1zJ7+jM0CdlBKNNCjwFop7sawknds6t6Xlvto9z6Na7yliXEpgYGwXtnEPBhdElN5QDh9sjcGdtCaHEJa3oHKw9165HP16oHjJlj2KECmhhji/4DVFDHYeEu2cn5E3UlIJQIaDFGsGkHzvtZjUyYl1pbXtNz1poekq3iHPbP++nwftUhsQHWAXsEMYMY1aCmDA9czWJKehRhyhLjJQ4s6Tt4M83d5tvuQ9PO/G2FtZ9mFbXLKuI0IGKeNkywfthTBjWwS8pPhnNHeHJxZYMzUy9AUsySb/ItIiH2fO2TFXJ2zv0JJjWF1Z8VdFXW890dbyGynoRkt0u3p1H/ShwLCSdbIWD/QawIu2nqloWiwgxiWcGeFCQkVNOtfg9HI8oVYkI41ID0U+ZcGGvBiF+UAIjJCBEEpeo8swAGyF+1LkmLlhlWze3fntaE0GicP24IaYQSDE9p9sLZD49u9Jz7nvNL7/ohgf93r59r+3h2vDASEiNURysjHLb9seyLCn+OHWD97ion8QvR9oWTtAD1BopVSj/sf1bU3U8j76ibeGrevxvSRse5nUtFoKJdV5GVPkXQATInQYAhrmqhW0FrJP7JER9ciA11pVZiMMxjmvMaUTEmaXVJQkmCSSuUWMKj4uH4p0lnTdUC2Wzyl7E07d0niuodvvkJDwCQDcxj5DuHZLMooee5ttEV1j9k4lk3KyEE+eaFpSxy1pcJOO5d4pzArxxssBDRUShNVGF8NUw9FKU+apzfaUgAbvv/ORsLV0wqvwgWcKJBekl9WgRUAtsl1bDovP4Fl6YsTGthenJKtEf2LuEyBzChVKD+UjTbb///ocFE1N6r1+/kcBSA6tdU0jn6MMorodPpazADI88GYE3zb5GnC90mBbhxjZ0YBLXQon5Y6XjH5rN0oxUNNMFQTwnSHV5nsWm1Y2w/OWAUOL2Bv44nzS/rFHBxqrvwqPzQzmjMxRXE4nn4pvrmnkxhlz5dxiMCTeRXkEcX1omRkqLEkrsHF6TYOJJC55MX5A7IlvsiZ9ZKkEmBuHm+LjZUISULfL8DNRETOW1O3EGGSqm00SMVuP8IvOITgGgCVXdcE5yI4SOr/lJDDZD7GuX3snbcx90pAd7qQwmv3tJ4zAkuRHOxH4ayoQGaTbqw1oTDQc7ptilx9bxY50Bu9QbRt5Z5VyBo/CpAGj1muwhDKu9H8MsdAOrxD2EUFDBN+0zfvn4bO/E546Yhtva2vR7QYtaJ6H/QivqdSXHCbjwxCVP2on45nNRv/3W/Pr7bw23h3Nmia3pFoJGJFMeKOn4yatoskyYovMmlBBIPvApMxscwDim7qTTgVEABNCcy5M6OprKW1JHh3Y3nrKIMAYmWO10erAFgJ+JgiByExXE8WX8w5klnrHg6iHOW66trKoTTTc6QlqHN7IjuBmpms/2x/z5qUcXTJ7jZ15kmJKzd/LYrx/GPbSSwcOiZrNDBrryEKj0KMhK+iJreuLg6+df6WJX7dI7eK9t5IdqlOebC3GFXp5HT6Uwkbqj99EA6pNUpkeYsw5iEuUQhV5uOvTHiIk3cVhrQjCd6S63C01BXfBmk4YKZJn26Zn2TjgNsiIq0KDro9kLqZl+8AAcQyhAB82tG0fKluhkvej93r5uAP9eVxStaiPEVrOsbfU+/6URdVBIx6coFRJP4Wln4zsdnv1ZDwByZukvnY3a140PCCVO+59z7RMBNXoi/U7V5s51MkzBMXAByxBKCCbcKRMImShHFkoijU4OIyWfWWJ7uITSvLaL+zwT6ysSXgBz2TMMWaloo9oEp/TUPqJH/0Fo8Io65zZMZWBRlwXv8FS6RktrElALM+X5P0bWZk5HL3FcX/EBpuyWU12Qz8L0qIIphdK4EVNdQJ23he2RvW5GxmZExiGD51TYsdMUMCpa1vB5RzdJvz85aDZfb2gHmq7j0bMYV5oT1xKDK5ozf1QKIJEJjAozye7g3tKAIRoWaNbMt5+2XtHB23OdazrSesu51liuJJjYAMCEAtOdVs6MQUbYUd6ZSATtwhevyvm+jYnR9XQCR5cmER+lKnTMh7p5/dfff9flruvN3779plnV/W6bGxsSUMsiLwSR+QhgRtzaxcg60us33L33s9aXfvVruWcacfIYnlsUmNxjWc9yHcWJcUkuUqPEHVljxMTUnSxy8J89hLTI5W0lXkzmOYsFrSvFDCahVcmSDyIfyOZCJjExNH8sIi1lhcIgkDo0r84N28N5Nw7htCJz3O8Q5YFvzRPHLOAspCLYxyI4cfFLyzJxeAVC9JrIBOsq7ugfqgzH9SYqk+DQL+FpjG3dQP717nO/ecIiJOd46PY649sko6H60OQnNl4p9e7pgiRE46YGhUs2F7XGtKQGhR7vvK6Q4fZx3smhR2wJr7CwaPAHqKGqgJ+M+gQWiUnR3f0seU2PVa3ombbNs/mB80f/0R13v/z2u24NOdPIR2VFYRgtnWtkpQGAB0BswWd09Odff2kn3k+67aGEVyPEuhyjML8ZppGTRweKD/+elkqM0cPcTeGJRnXw8jejywZXNlf9YyONJJmn8rgOC7k0qAzNAqvvmSkOhn9UOyjmbwgiIabDA1FupTLG2cE4W7nUbOmSaY6w7OjC1hXdh8ckXoCcSIqHUPnpnR51xHQzOcqekpeEDWO4Zftp1wxT9LRGhSGTVTw6R0NCItMzWdZa07a2j3+jnTAnusD0SG83HV/oSh6VCQqVtsxkwqAQ5iwvllzh/DS/hZCKN6VdDtaVtYFF7aRa1hbfU102eqbDpxwMZSTBzjLWtd24JE/gmRTfDqxMdiZWp2BfP186v3sxGakag8FU8CtIiajYAKP1JB2+5YLXlxJOP/70q9aatnXJ69/0fpPaWI8adSAZYSOhzc7PQ5UhtoUzjcct4m/fvfPUHYzy7J2SaQVSSbLFZAC9AWsb7NENQswzHowQJYj545BsCCPZtKA7K4G0oAuCeYySzg2baGY0jYdgMtsU13VsHDEuXKMDPDx/XJADoZK4i1WLosoNRQh7+kuHDC8N0OFloKh6w7mlZ6tbzTfrO83zlc1ma1FPyqtVYnu4m50WMABKkq1bBz98Pq/vowqmrJypj2dtlSNdPlE7+tHaglzCq5REc9jp5LGH0fJbUsu4wfbxjR03KEy/7F3pYk1NxzDVQI/ZpYrSJmWoLiQD6dr3CX2gIUkwPbIXHU751nWtNc0sabrhUk9e72x48wOC6YTKdS7Rrspl9lPRTHoCDD6YVxiLc/QD+2FciTP9iHZvX3dR2uQDm6S5SxRkFAiJqdaTN4Ou1Ltl1HRwcOS77naf7Tb/+//+32bn+fN2vYkbRDgsyRTwGwmi//nPv5v/+fe/JZTeqixx5yAJFy6VhtzJkDBJDSDSho4ohJooBX6wyNN3NndC6VJCiW3gjLA3nmnX67MNvbNUhBItjvwQTlYqAL6KSZYbSb0xQIC8v2/BeTAB4dXmF/ksxlgQKZxjpD9e9Hj1mz3XqweLi83fd79q/vHs22ZHB/9XdEmrVi+1LVytk2CUFaYWBoZeW1n40TZ5g3g9YfujCib41mP0WEYOlEqs5HrqJW5UcJrW9JCuwu92wWFwV72Qf2wfv2pWdCPE1uJas6uh9LZ++8eHPsdyqUtfSYNk+gmFi53Tq7U8HQMNC8paMSdlbOHNu9tmlnVDOyf1dVB0WQ/cXbFwf6SpGu18dmRLF4OKT2svQDMN++KWqZTgoQ24FsdPrAVGiZd0oXK9Ylf+bfpzOpN0qUO37zQKetn8rpEQz7B/9dWzZllTnkzNnenZkJOjI0/h/aRdfL9qNx4HuL2tPpkteKa+ElRtK5bJKkxlbDGYNANTd9DCbjyeQM8RE4JndlFHMzRaWtVIe0XnluYkpLSqL6GkGPwQTLJCJzAoMq2SY1dfW9eegXiPpzpku2wNjKDD40A8+FfhivsP8ZenhNKcGLass5PbmsL7RgdqGTFt67q0RT1sOqe7E9kZHEJJrVlJwCkKRJeywQ8pu4/HlU+Z8qMLpo8ixnlN7hcoqbfFfTx0ChA/6smSdkttLK02X+t+qlOd+ucOq8ujC62nqPIx/8LcX5XUeMhPwbcu4oGvxXlpbHBhioaqQAPEYUi2+q5ql96VRg/HXFUkHb9Z18YIG5CokETFrc2U4kUPOZzRrFyJW1u63qOeeKU+mFTgzCjnkh6uFDc+s4PxWBtAXr56rRvCf9IuvfVmTRe8LqtTM6+R1bHKCWtRv2kN6o8XL3yt0ZmEeXSSgFn/DLb7DLKp85lQk/ginD2pi65M9X13qkwzWkdiVyc3OyxpjXKR7eGsLXmkJHJaNgRvg8CBvHgi/ADNoELflFItKfLlPwPRjujHmcnt1U3f8rC7tqUzlZrCk6DismlPH7djpRI3S0DCL/ZIN9iZQT4X/WkLJnKBTB+irjln4SCszLU/vZoFLWSvruiA2/aOdued6kHBfT+LccXbTczPZKSMmDrw2oKIZdJVFucKz6TFet/fwkn8meM6Gb2ZwwHJSzXOZ4f6HWsuj3UFCyd4VPjaggAgzXIm4CAjPhmmjTwi3Cd2tpQchNnhgCkwUxdGjQqC5p2uFPpJmxo2tEvvm2++8Tbyea3HHR6deJTEmSeEF1N/XK0XLRdQoisUqYU9zE/wK/Q9XjIZMqkc0EmBWWwR9+FsHTdY1PmlOV0OTO+v2xoOVzsed+Z0A+gTUAXdxDb1LO5hjzyHNUzPMRbiCQsO0j7XiHtdnZulRd2CwfwNxw80fUyo288kPQE+fQCKT18wDSGaAuFeqg1Retw4tiUnqgJWfhSFea4EWdadaJqSODw/aV7r9nG2CZ8f6yYvLWyXgE7NHRfAVvDsMfGfUpMqPN2bq+i4tvNRowYqC/e6zeq8xYrO8lzoTNPhu0MdnOQZdsH0ZggBLT06g7uelFPtywFCloBojli5Ocan/LSJdOmOAZ8NBOttbIBAFxskcA69BXxVz6j885//1Eu3682q7tN7q2m+//zn++a7776zOQ/T0hj1Cws0mtgxqU+ql3ho1DtBhEDylUIIJ/24eogOzJoOZ3P3Ymx0CJItvFrSSt639lsa6miPyMbChkC6wqkyJqtczGlnFrThgbeWvtHaEjuBuYZoTrM1nrwbKpQekcBbZsd9BPssBROMyuysC8koBtI7mdNqLQ8Xcy0IJ7A533SotaZTPSh4rgOmjML5eO1FxoFR9SjQE+peuAKTLJkSTdxx7LjWeqvxmdFWIXrA9Ia56+yUd5u0bZr1BebR6RvGf3C/9+1AZmJFj1B1mgMBPrE1EQk6M/VBup0onmaAKCsZTofnVKOm1691W7iuK2IL+dLSkkZPG7L/Lrt24v3xZ3Ok29ljJlRAOiYCsPqRSuKD+QmowjBjLbMFjQWScGdtSVN2vIjM+Teus5rTuS1GSjGaSlrR0wzNMgO3rVT4lYTwHqvuEnYsoDt5GrsBEnoAavQhT23HvKbw2GjFmSVept3WlWhLel2bnZ1ckJwdoYBTA+hB/iIsn61gul3uRWPKl/uduchV1yY2677ld8fv8hxqMftU7zedqcdMr5A25oPqz+0QepxQWcuyjpcK5+kEdfYZRV1ozY1+P88UsHZAj5ipvLMTHbjVMxE02G5rtLCbAioaF2Kh+hWtrtP4Or4BYHsIRWtR4zSIUYeDywdDJYVHQ+IgnN7oKYvvf/hBO/bOfPj21cuXEkovmn09CMitDtzyEMMF0qn5gF0/Sy70klZ/OFkch2sZZbjvw7iCg+uC8GakRMfFdyxqypfrrBa5IUNubRgIhUZILixoiZ8Egj6AbW2WgX+blRAnhZuPU4g3mnRZ1hklpvC+3n6us5MbntLjLKXmIhRVf215LPENpHyeKH9qEu5i/gIE05BMLhyiAXWjIzsVhYe6KCirC0t+OZLzKO/ev/NLtxe6roj1Ft9zprAs+vL3dFTiOqDX7MEsGuEJyo2HbaJU7oyKaGjmdZKfm8dPNc3JsxjnEk68eAs7qGLRBLecLfBItw/XEUiHxGo8sD+YSn6MSLB4e+5frRBoXupiUjZFMKX368+/NYdaS1rRbRD7+/sSVu/8nlOEhxOKEbeUis4kEj3NtRG3G/BRCNTtQ0b4j/5W6BqW7IyC/JNQYrTkGx70uOIaz9GrfCxIMF3Nqab4NpWCtAWTOEFcAAmOafHHkEvANI/WidLj4+ig9+uThEhHuNgalSfksNzmNSPjtSUdS3muGx42NDPDEzyce6OmdEJpAFUDwy2oHfD9bK2fuWAiw8nZ4ZmKa/1jppfDbeyQ4c2mo/Xj5q2eNua9piP9rjRqmtM0Bd1mdu1p1cHtCB2dtvw8gaJC1XG9MVuKWW65NTWowVOVBtr0cdCcymRxWzv0ViSQDvc03Xl0rlGlHr7TWpynvNQQ0w8kUl44CYSOR4Zm7rt5SuuD866UDZeRgcTJWjOphJE3AxwLaLnTQTnTSJEDtJx9m/P9d2fN4eGRKE2BBGGiGxCpYCiM8S+/gpv+uA/Dp/XvDEB5eBWpalXJyNNBA19GSwiizV0dFH22rRG11pe0k/PsSncsEpbioHCms5CPZmEtg6F2n1uS5Qi3DPuJg0FI+WW96RUXs4VSL6Gk2kCbwq7fZ1w9pJtmljStF5sUI0yHXUVTy6zO90sxfeaCiWysMnogV/HJH00JvRcKG3tkrrRzZkvPYexubOssyoF7w1xmys4atc9WtB8ujGF9Yt8gwt+2IcRW+GUPGh84U5w5qc+ISqXGt49rnYmR0wk79HRrxoXONzEt0apSUzkPBVwgG2wJEOZB1zb2AxlqjKokW7SSH6FnaA5ec6iWUdPBQbqW+OYZ4fMHT9JMmIDV6WEyFOdF+hN2QpUELPgyYvIzKVp7ZE1pVTsVVzRq8k48lRdkUktXkpXlTfZ0Cg6mLfUJpb2HVocrAiqKfJR1yNRgUS8fa22JZ3a0NZxzkpsaLS1rsxXvKzFeCpV6D/gXa/kCBNO4vI3eCutLrfIQQQ2JbvhlrYkeDpsgEE6X+1pb0KjpQk8XeBcSZelJlyfRbfwr+ltGyEt+9HEdBAtTNkRR75irZRBOTNmcapfeiUYKl1p3MSs5+2NhBFx+iiN7CHFDK1ABZm99IlzaHkYnfRAYlnaLWA+VaHLk1MYj7rD4RCsCyYwUPMfBfRjshDEKH+JNmAJVCR82OCCMVjd5ADA2PDDdyfZ67WcUucGjGB0XOu2WtA7jx4TROhSdCm8Kt8lRCUkd0vVjdPRMmx2+0hM7fgBQa01LEkw8bVEm8q5DN5sq+NdDfNYuX7hgyiYimpvo61OwVFxUMFZ1voCdM0d6r+n9wV5zovNN5yf7Wl9g3lzlgh8F6EmUH9cWF+Yiamx2l1ZEJAmhp40ghUA5ucIVmmOhO26NPjvW7eMs+Etga+7GQgjB5GuNRjCJFEJQuQYWXB5Qc8NIendJHybcIcNTIMHda0LJHCgEFxxwenA1mOgd+CGhlG93WTBJOLHhYUZTvTwQSD3RVQbmmfM6k0q9pTV5Oqi3ASbPUNGQWIMkzvTJ2IXnzVSaXljTjeHPNfPCTjzeXVrSQ6Xzcg+xVEiLylAsU+2LF0xZBChQiCf+aHsRTjxtzO6Z0wsdqjzYbw7Ojv2TdCpD9oiTMJ6GnjWK6gT+fMLcEtV5YJIKf8RXCicqX/SUVySQdBMEgklrLucH4g33DHKyVGFC7yR4LPLGlIcrcQXfxjsJiohxt6+QSha0EYO+IR5tiNaQDUjy7DqwNmgYSCwTHNQHgtqauAzz+9RuiU8NF7fb4eBn4XVOaVG78Fa0S5NpXc4wUYEsmLS6BJs86Wd+AbeGjTlwIEzXParxmWxzUkCxiCJBx0xtiDwQPe7cavrumQQT28TXtF18UbMx3CweLU1CmGw6Hxq7L1YwZfXrdERSV0hwX9A6AntnNld0j5520uzp3aa3h/u+GYI3mzxN8dA59lHpQRVKdHY1Kew4mxkZBofCD7vjH3ZGi25wdNsB7+uwtrC+ve4R06HWmU61FufFcZJBghlOAQ9YwUuQWEMR7gFUS96w9HBrA4xHxvwbH6QMCUughJv6YNxh+AyGuS974nQ3HGa04YNzbXlmic0PTO1RL3w/oApJDBqBW2BnUi0puF9zbH0n3mDU9UnWSXfdkL6oR0e3LJTY8LDhpYElH0ipJ/CeMO33mDlfrGCCpxSJulpEEUFAhdKZdfp8flBwV1N6B6dHfun2WFN6h2dHmrVSbP71S1ht5AJjMrUW20CPRtaEjMAWJqUqwsnDSgZCbB9X47Sxs8mjRHpUUI8t8tqtt49re716je4Lu7YCBGDJYeyTrUZieyMJCuBW+Sb6CnNvhHcTnA/1V8KZvx4Op0XOxqmzOwXlIy48bzGvJ+aX9STKypa6b9oIwzMXul0ydmdqcSWuIIIPBTeXHcwDMIt3aPhlhJ7HI1tqnIVfsbq1AF3s+jFaYl1pVqcneOn4udaVuH9zQ1N43h4u2qIDHCNEbLmr75EJnKjkv2jBdD0nstCgq83Vd0FTeqva6rmj7ePH6yfNO90GzIHbyz1tgOBgqSqzN0IofNsOZb2qy3Ka0+964g/sIkRoecoZG9cq41gQxM8NVaKFZz2mlBXBxDKCpm+YyuEs0+H7A2+GuNRN3BwyZTsx03mIqNy6Two1O9Is5/tXQYbSKXQ6xcQg3VIPdOzbd+rhOdqrTUzhwxzNei+6UMn0a/dhbrX/x5oD60i6UKAeVggj5TMe+llXUqHjJgu/eQmmVT0AuC3BtL1i88yi8ptNDxZKCkP5YE4L5ST4YLcF11B2jjp3zS/DjNAL9BG+t3GucUloqSt+MeY5o5gBAC74xl+kwhSeAqtzxmWsKzoL6dGSDtRuawpvWXavKZnhCuetvUpb7ctdaY70Pu/vVDBdy18KG6WRZzHYzqk+v6YnZnSN/+n6eXO0+7WfNzjQC6XcsM2V/z5Ux6GEUopdlnFPJzlgtnuAxmcClLByS2TMhI90jLbiJ7OJuI5qNGAKoorGm0W+fZz70XT7+LmeFb+QYDq71C49lppUCV2hXSmBRTrw2VqfN9eT+sQuSZeJLLBrItOc+s3J15AGQ8cgJBlZQo4FPQ7aIPSPs2cbGTkReRF5Dg5FKKndJI8RNimoOGQ9t6TrqTZ0hdeuduPtLDezsrM3GtLciNsgONaB0dUrYIeKmmYz4Rw4fPpfeWaUnkesSg316oUbZXGi8kydcDW0zpzYh7fCO2Pliq5g5iG3w2i9dV7bw3e0phSvYm816yurulGc1oRwwplHJd1wFDAGWuMAHl+2mgom5f/1IuFi5hETxYORE+Vvk1uBdV39/tp+80qH5Y51yatO72hKTwVNhZPKV0qpgeYUHzBQxTcsj/4VNildjEuphCAdtU86GF9XRDMtIpqnIAxGum+EkHBi+zg/P1GvJ624MSOaoNCDu2rsBNpwridx/y4mYhCDpHdQ/xB0EnbGpXFPcxoIM0qN8xsV567u5IT+nBQ4BY5YwZUc8p+EErc3EFCDAU3ZacPD+mKzvKmrhySc5lY1XTvn4+aRn0ke6BRz7dQ6tt6VgCLOMNUHECHM0I/lk0WF4FE2i8LgehB2W+UfGYhNP8804F/4h7ARPhybZYMDmx2e61XsTZ2FZLQUe/BiAOmpvgAdyQAO+IZWPraS1peppoJpbL5TOqi68WYTt0Ks6F0erhPZ1Y0Qx7rg9c3xvh4VPLXgcj1J4RTlzNAnu3i5VphOqsc1BVEmYJAKhfXFcXJXm3VR7hLMHVr/P3vvwR7HriPalnIOlsM+M+97//+vvXvnzNnetqwc3loAUV3dasmyLMkKVVIXM0iiSIABBE+4irxmTXGehY7rli+JyCbx2ijijSyfz4PyRFGGdWv2Oai4s1xDEEZs6SU4tQw0SX8b8PLHnIU3SXx/W4Ebpii4M2E6y8v2nu62NOfyHOGx6gRjWlqH+H7Y6ra4BNB9pVA5JOOaeiojPcuuWblU5Aord5mRYzmewaTWMt7KqVlyRgQ+WptVWtf6hJMihr8OROOXYVYb0AaPmHxiCS+k8EL1kOyKtRdoQ8jiSSOCWJiZsAOkDlzSGx5f+r/T590zpuH3jwZBQwhi0jcIW1+2kyUI8RqH45yaf9jb744uT7tjmNMpB0ttXJ5dyMdGjjtaXA/olVgKC4Pi9p1o4BfWJLp2aKWw5DlKZik2vPGD6zHUoceS3sWFSl6N406TI2/yEFW4C2OzkP+Me07dWz1/pzx/pJb3QGx+1mrtJLD6OX3CKgDF/vmGrggYRPtXo4NKfDc4TLuuhgcEIPJjYry5h1rzL7OovSVXCKKhe0Yr+jdumzS/FQ7N7ijBy57SR6R4P2zvdBtLyuGx1A2MZGnCFAbJmxn4C4IR3uMLDLx7xnSzFQx7dNlzJCVjUr3INvfwHFzAmDjPpPj4Eeeb4ryOm/20OdtrNj0d5FBgWqe/meef8ckyTudtUduYrS/2dIzpVJK1+nMwqYTe2iWMaeeUvaYLNJDnftO1SiFc7qB7SvSEEoTR/SczKBxNZ/YMrun6TGeY2Jj2m3XdVfD7pP8VeLNxH+aOEscHIP2w+tE+DeUXRHdi1+bBWW+jXd9BpY6HaTm/5H5TUOV7F2WY4b0TPVtE61k4SRTlO/wJsuVGDWAq4cdLnyXWOL3CwitzZEoqat1d2Y7zSjKlJeLnigEwBigouM9WwVeS0ciYWju0gUgis80ksYymFwG2vpAr404VFDKiEeLDLqqKYEz//ufv7scpQhDYzyCySp45EDJZwNLSP/pMefQhL8NStbc0fQ3mFi1DE0/xDg3TdD16nZfDSbhkTCdHMCik9VR666jTUy4hHltLImbJaPPFPf2nusf3SrRNV+FX0k+n7AnjrPdD3VW8GzWhrV7FSD3bfQ3gc6af7dg8wx8gSyrv5czaGt92xevS4zDtDajzizkbrQo1P/az+vafaiZXixxhICBnSsmMqirJaFjmpy2vqQ8PyV3POzpj2mYJL+dKhuc+tfFvy2sm63fvfNeMabqR2NyS0GarwM1/dFLFndsIUvq75i2UjIyOL84RBf1P9x1deuc/0HpwqQ49Gp+AnbcLgP949HuJj+WbW7a5nq0GWan+HfXlhUeoa2IfQgLmWabjw5OcNXHw1rBYFgJB0akDAC/TD4eRLwVPd6HgPmX83fQ/yyM/wM1Yg3wH1hvxTO4ybDzRaJNBpdvvwmAM/yso6zVXo3sswAHHOprlkYnmc2eczMN3g5UQJ+953voNCjew9unmJesDH8vSMrH60cX7gqQlKYJ92vrya8v1wWSIssgSSd1K611Ln/c/oi1mN4QgXLbu95WmqztV99vQ9lhVfI1w3jVj8oPZ/KKP8Io2ioeNcdIsK4BGSONUI7Cb/krqqX1c5YyHXovB3U2nZ4igmd5ftPLMQFgB23cCDnezEvqangk+ejYOXmICRFBI4IU4MXsRah9n2efsFO3j6NG7REjErSjPN/FKRFH1GEdOkPSakPHnygoKb33uCKugGAfgqG8o+iXO8cCQwl+3wg4oaV3cSKakTjwvASzVQ9Heo1ELuQBULgnuoe+CFulnQD7KOCZgTgCb38SVpc5ZPnYauDP9utrFK1EU+ZYxxRLeRlM7tM0S3vp2t4YuPLejpBMh1YspfN9T9TKbHvE6xkcMvFvG1DOOW9pBhNNKc0BJA7SRsYy3SgNVG7nXX2yhfdxT3cen3Nv0zz/dEQzqAoZ0JdFltGQjjyWA1hKj0WMvYhDhN5vpLSV6Cd6UOCpRNbCCVR8s8GzxdU2rcoTpxXHriI97b9HpCdogmDV1F3RuFL26tCcHd22+JJ+yhg1ZL6G6b60MhdpmDr6iHyy+ZdDI+MZ8nlieTc0em3tb3TbaPdQg7oBD7fILzKJUcdDPun4VX+ZTZbotbSvLbHC0s1nPX3HPwp0qi4XCQ79mxF1S2t0TdeYPQ7q+UtIORcYcwN/nGMkBTMnBqrcSrEEn6hxkz4xIL+Rp1pQIqKHwyKPyI75bxpTVz4aXzbC1Gmc62VZaFBzx78iHsGpW+K1do+QVXViHTUHjKXcSfUdV0YUSO8YNOLxiWS+SxkwKehxPM9Lxat6SM/HAQy9qNuyJm0KfLvcgvFDwHKnFle9ohGDmFDrULoAgExNNIqGADO14j8/9MFDtqND4s1R9PBLGAEwAfj9+yWTce2JghbuuS/fiP2+mXUMizz3Eq1mGZKOONmDuVaKflYTwvjD3iPvoUcxcNtG36IHLOlThCHeWr9MG7j8aHhZhPmp42FnbCjqwz6xpmzNM61xzgWKMgOUqS+RAusTKhC2Vj/3oFzD26Fh4iQDfPWOaahA0HvtXzaYMixFMcBKbkXsjPqy3847bbjnXpCTOvz59YbZ01Z397//pTtAXZ0szbajhiU4bCScvgdvQX/tjPXiiKhKmEKfVBb5W2BRm2eeCGdPq5iqCEFyux76TBE89awtyJyZR8RPI+PwyBhr6I92vNalqfEUeiymliLjawY2xjKJWD06H0AP7htrdzb+8NJyLIV85UR3iby7yG5qkCdG86cuxzcSqiLjZVeABYYdgSs6UvAAQKrHomjVp4V35bRqcoAkzGcnrRs40jZT3zZhaYwmU3No4qunClmhBQXdJIGNyqu7dKjuca3LT85jrxf8+/AcpPa5hj/MfmUFAwDqvAd6a7fR3epkuKmbdgm+XWczJjoyqoqU1RYw598LehMpdPdd0yTUiRkNBexC/rFzDcwB8mdV9S6XKltmYUjTMFPCR2VwxlfW3yN7SCjMkz6XJmDyj5jd1fhEzKiUs6QPty70l9LS60OflJOLH9hoLIdRYO4Oqdc40ek26dy19YAnPe5dWl/JCiwQgpoSRrmjzifjwiKb+dpHXcPgw410zpr5NRMecIDAmODagaDkT4qmzp7vYl2lxLudto57ofPeyO4Qh7dBAD5HSu2JJ7xptCMa3UWfvHbRKvAq+1tf5OMoGK4En6qYJ545lD0aKdkt7pTfd7uzvMDPChyWQY5byLk8YcTPqDDES4oinGey8TpS8oFL7OeIRsfGNmlmefh6wbpD4v2KkEDMlzGtGXp5J8zoT95bWtrxraTlmu5fOBnrgAexNvmiVwZgCda2B2rYVeFhmZuRekrOlzwhA7TfGlDoewCX4LLQncoASgPA3gCe6jvHeAS6zxvd/v2vGNERTazO9VzSW1oAmnmmzjSKYx4xJKT3uXWG3f5PR0u4W0/p9D96ijuc7BBihCEEUmBt5EPb626S1oxb8Zz15t2mljMklENXWhPZxFFye/jjpLjh0G9rHYVKZyvQD5iRSqvdiHZ/fw0CgcwCi2qO4Nyx3Cv1WivMzjUWowX0kZ0lbezsIPGzHuSX3m5hPsfHPm1+OugaA35K1kKTJL5SuhgnDhiltojczVA+5v8ysaZfB6XpcACg7S7wOQRQTElb8mhH+Ey9s4yMGRsbU2kE1onDaAJu/xqRjly2J6CIcygOjLm6sMLX3UN1/ffxC573uzjjjpCoeTjbFX8Kv9APgb8IqC6JubVQZVbKquP1b9ELBjZU4/+IZmPNjGLdXhjCDCim9GICbPnFtzw14Mif8EnctrBxvAm/PUInCl6bfpBniN4iibZgwFufix0Ir2hyQPkXyTgm8TbTFu5Tnsp5bgrZmZ1UX7DG5f7rkyIwekLC1V4bm5IPfPO8MvONtoid8WpkGaGmZTcqfEngwYNrnEpVfQApPkXGX8GKmxPL9R1ST7TMgVTLP2VJEbiB+qQaTbAeVvlm6QeCbtr5bxhSNpm85OcqJzsrn7vfv/fT2Xo14TxqKbrpjCEA4ur9GbHQHiZyLnQ/dKUxJ8fETzjYdnTFDYF5vytlZmDACPIEJH494pl3lO2sm1FnfX3WT+X3WEiySlYhnWL70DB9BVRRMyyehW0DM3nMvK5swp501DtyuIqEHXrwVAwlGsS82xXvYA4g4HcLL2ha+MpvIdZDjr1vNSsL8Vh4xEnVqFSoMlX9fzwggJpX3K7mM576StNUrTGRKIYXHrGlpbYUjAMQiXNgBn48V34JXuH1pqwwro5j5znpW4PD7Tvxu2iKHm96R8xzvO72ioBnDCth3+0IPwoxhGH3XvVCfZRqkml+89O8LTOmvg08hjac+PLWHVy1T0jFbdb0TAu+KpDXszWPg38c18kyRJmEJam6yYaRXan+3jClaRX309nVlNEmjW6fzoxqn//plwROrwg/ILKG8kVkTI6qrFQgt/j8QIXdT9McRdzYhQn7F6NJFq0gUnUFrwdKKvcpS8THtKG8AAEAASURBVMK8+yWEJNd3x7stdFK1qcznR29RbsbMUlSiqlWYEL1LVRHxp061RQQhNrgq4eJsvTvmPiu25GBb9HqQDuoCJ3Zk0+YaPbnhqDoWA6k8MmTiqjLc27QyQZjvneLlRAzUUHerXx+loaLHSPnPLXUAAPVGchbEd6IDKHXnsqs3Em+xL+gVF1fs9sefgGmri549g3LEkpWdJkO1TMqSrva+rSB9Sadip8M0w/D5MOb7zgEXXrOxcUff05zkqi2dvGmbind4blElrZvLXH3DeaX/5/Nf3X8dfO6217kkMWKYKuFHf9bJk/YGfNqoTFqcjH/j3dLc8Bf2PM834vd+GZMfcOrLpsP3HO+Zz20MG2GlQToPFnXJGvMVGN3jXMMHVN9/Q8Gr6oq8it2xZoykog9UDprNXl66s33P5DnPmUS8CPe8GD/zu3dWPaAq6DBl+fW1wWJ9rYqjcUgfm3ILKyx5brJ3sZN3+ZwhAHHh2SZmTvkUHOtV8IFT3kTqNbbrGf7GG0RokO5tVDb3TvCSIorgbAOWanZyUljRLCwNq2u7cSnabySDWkS8P5S0stwqc1pltqSfqGYVK+JAg5kBS6p9HG4JZTLnCO97voZl+a1veM/8Ilohpc8cy2CQOAWKoGBK1FaNL2ss14W2FwQePsGcFHhQH55zpUl7TQgT5mRYZUqY1oGz8pvjVUHv0nzfjOm3PjlNSUrgMh2bxjZMb7pdYTSp2Khr0ErnyZxkTKg7YG4AAUhqTXz+6BAxYO3LMWyeQ3sfYWDpe9bA7zmtlu+OMhhk5SRo/Lk34Z6chG6NM007H3ZAyRKCEN+7U0TIr+Feoc7IdEFhsfQo0DMfbeHdh/WWivJuTTExy5wCGT3SplGTLIVAZkRqKFlmyW4dZrSOBJ6i4aoiiu+X8tGB+H6QEJlN4E2+0MTv/rZn+oZ9NpQ2yt979EUNbysTUZKlqJ3E00kKOB3EYfr96OP2dbWGm2YK0m2Mrs9ltPwMAyNj+hmG7gqHCsR1F5qOJGmQTuvrfMMPVRUdfuNCQQ7csm51eoVankiTDXmqMd+VzysNiy7bOK94clydmgRWGZEj93Cy2B19R0hEHYPedKuUHgIRCpMEbiQQpBdEEsTEWNgNG597Y0DMFco0xaGzJAcMC16JzoDBvSXFwpMxMRPA79L9fFL6l6OoSK1newpquV+paTUakjTcbvOnaHhoD0dx8xbLdvsepmU1ZGONw8bR22v2OK/eQhqfh2BgZEwPwZppZDCajo5sf8GYNJDaoRHvIanjTOmfHzAmDt6es9N/7pJern4QK/+y0wvoNT6t44GLeBIhYTUk+rpH33FoF2P6570+Knjt+IEb+PYZM0r34iIm8FzTj8j5SppIqE9mI6QWJTzCOb5mMJBYwjM+Rgtsnn6PEE6BQS0jXVczJrV1aF/kmgsZ15UjA38BpCG7vvlMfq/RGVWz4K1qWqPKCj7QX5c4VLzObGmbSwBlTHteAIgqImdMd7El4YzPwzAwMqaH4S3bsB28pu3YdUKGQ1Jvc3Et1qA/owrf80yHIQhxEstVsWRlUv6yLww7e6MafS8pNwle7DMoo1UZdPDGV7Lk9PbgN3R0BSFWNxdiL+Ps9Art4yx0otwVtRCRpLGwgOVMNN04IyteRNVqVoPcM5/xnYgRDwM8DdHibClmTDAYpMPzgke0PHh2yX0mmVLiWgBiefiku1rvMOR12qlPX0V6JXZ/Do7sz3HNDaqHgikx4NzizBLa8Gh3/o3PU2BAvI/PAzAQ+0MQzAVmBAuMnHKuhOEoi0btlugWh/A+cSrcn2ecVpHqiY1Slgc8D9E3ajuFvzAcx/bOKZvhr+GpesVkEoe4skZRL1ucosbLrNujWUCt1Rv8VF10veTo3DG8J8Fc+itMyJYaggoBlYnuob3CR/OnGAjG4zaSynbdW0LgoWZLzpKU1AsR8qLUmPkd6rv8NIsXGoEGk1w3+mpfSKoVS3jNlDHZY50dHXBe6dPeQVydLqNKwunyh8+8BjjPL2OP759jYJwx/RxHd8SYND7ZjH9O7fW9hmFx1yfSedx0y4zpf1gC+IEwxMUxMwPE0KIDEC/ithwmqyNJhCUDQdNniXJfoiTdvfNPWYaVuFEGAvmPGqUVBgR5c/2+aR/fQLHr+neUvZ5y221cKKhqnMRNMH4ARPpAkJnNkIJE142cR4/bMSDKFHhY4uZVFew6OFDDgwwqRcRTUMcWFuiFKaVNVyG87OW+Pb8XEWIxs/lkcXCHly9/xWewq+lhmQHnJrdVx3XpIfSwmwNM2RVwZE6Cm9Mi8a1nmGH5jebPMDAypp9h6I5w27ItOk0bKI2ZA3hK3tnGVz102211nxlpff34F3tNZ7HfdIbWA1SRx2FGW7UziljHD3jTrwEtng7oXZV77/FnLPa/YVHKjn9Y5bD05KgPHlFflvSW0QixwWWC2wdK6Z1332VOZ2rTCMTwNrUs2sc3vxrtag2AETi+GoYK9XMRIs4I8OesdXVrlfNKdW4J1UMs56nlwTvF/Et0V4pmagQEgWh/LU80mEFhqQhtySbUTwpjxYMBJlX3uvR9BpbOlA5290KT+PoCy50wLNulwopqV7/9uSvs9lRjCEvLIxJ+DwP2UX82QRlTzpmSMQnZhusdLS7nfT8+DCm9U7Rrs9XP4VMIrsQ62q8vIQ2f5p71HkbR/ofafxVLc6oIFTAsZ4tQQV5C50VzzoiWOdu0sauqoo3u5PCwu+L+JnQ5QTAYtdvxoRwufUYm2sMvgU/lO8zvndnFQ+G2qh7t0WXT8MhQGXn9LcOA1Pq+iT68dS8AjJtpUdTKt4m/otgBG7xHDsKp32vEfsNUoAPc0JaiFtZVP3kxpgfm113CY6XjE/vEe+wxbeFWx0MeqPWISDbJwjDO8XkkDIyM6ZEQmWAkoNVYNWVQV7GvpJSeI6//fPuKyqKz7hDt46cs6V3O6dv2ER/p72t5LPKtxW0BEQd7MGKnlK6FUFm1CLjftO5V7Ohlu2ZGeXGMJgIvFAxqIRbEbRGRlhcAG6qM8C4fURvonf0AeIot7wwy3GMKKmj1uorcvUPogTuxttCFt42GB5fzFBmXKYXqoZpCiOHIRGSbSf1Et/bIXccregI5lDxFwS14HvugUbYZ0zKHiOPcEntL6sPbQjzcfWOX8NxRLmZU5iuq/Kso6siYfvMzRbe0f/Lc7KIG5LLUBuKmipl+VEpP8fF/Lrqzdi9R9H0SR5cPWAnwWkJ8E2jklS/i3Rk+iPqUVstgkcu8LS/Cs2ZE1d6In7IjK3EZXTKmy1PmkxdH3bmarkmwKEFkzV+HzCncwd0yo4LZZzvIp/xM3Wdenm/dpNLOCJy1e8VIjAhAlntLKzCltbgnaysGA15poVZxmVKwLr6Nf9n+xLAJ+QVzEnH6BVZ1/NmnimGR5j0VbtggjnUTF1bLcVI82F2O30If3i4XgLqUt4uGB88mOlNKLQ+JCuOb9qWgIcr/Rl6OWcfngRiI9k7D1Ky2P8+0Ma/a2JHM80JBl/Vs6B7eix5h4/ahpyQhSOfd75bx3ZGePnS2wvfJkTQeSE6RZQ94QgzW2O+QULLfFBvwuB2a5gjeuBPAEgPX9zXjNwkKj5xlETigQrrezzNd9wEaAgVLXGa3sbXZbe1AcJuWB+9vCUm8kIlEKrKJp5U5WcYTBAyrR+Yrw+yk4Nk8hsXHbvDaChcAKoX34SDOI3rFxQrTerU8SDBzoERkZlfDNtaj5DctBfVn5m9m86KTj4zpNz+PDbknkDMtKcIM58ciQIid7jMKO2AUtrPOSJU1a0+V12O86UeAc54b1HhOnOfwosC3lHB+7sYf/ERMzJrgMp6b8UJBl/LWYU4u7XkQNyT43POwzjzqytMajEm3nr9UCBO0dGl9Y+8BMsBV7NMxW4oZk/VmiWp1dbXbhilt7+6EePiigwAmTFfs+Cus768YUiJHmA1u+w4T/7T9sXc0gJb70F4FmudXYZjiR0EPZ4KL7nfCtDfR8PBxn2MeMCYP1a4trsTZxKWarcuQ/Dl7FC3+Hun5FVC/EveRivdsYMalvMdE9bATYI92a6OnMzva8hyTevTcSP2I+Okxe00Xx/9051eoPiBcol1r1jnqn1O4KcIwJ/w5vegZzvB+2kGMMMRNK6N1TKk6Z4rgCPFxGdMFS3mH3w67JczLU4hkrUIRJ/PKt6jImVSO4NNX4Nj6gumbmZctcBwOX2/pqfqkKZvxyhXR4b7SFfzHAcDqNozpgzfTbjNLdQAgU/JbmCJighRh8AvUafeZNed81Iz4i2/hPhxWlWouhAa6z6EiY4b0rJ0UHCmFl4PH1bjK4suHTyFN6y21LuJ5W7WDIePaHqNzh5EAQyAH9+88Cel3ILydtCNj+s1vGY2p7xFa9MmFj5T4sUFLeGFMbKZ4odges6Uv3Nt0AmNyv+n0NC8UlIFNriqfFKynsUPCUFn9Roee5PAwWxSB6kb1rXYg4yasvqgV1ygRX0bTElH3UiTqUp73AV0gBHHEXtMlWiHEn0zIn6RziJMe/iDrgGqAT59v8+izTJi3FjxTv7B3VWqmWOUtt24VDjaDv7PNC2ZBC0jhrcL41/bR7n6Ahge0vC+sigMPNPvnCCCoLh+1IWkqGzMR9wLFqtm3P+2/88zL7z7w5uQLKH1z0FIw8JEJ+Rjuz6p6Hxh2l9XXl1e6Dxu73Wf65qctVA+ts9QpW6LfwtP7mmblBeSTMAUdeEnPX34nlF9O9mYTjIzpHp/2zkYTnbOAGHPSURyZLykVRQ+x63vR2DrD073Vze4CCb1T7ipS+/jxORcKXnJ+R6LA2R57wTQkoUI4AjQhlYVmdLbyqHI8k9mKUv29p2VVnDItjhWqJ9IlS8oojSi6rMn/Mipxdg72ukuk8o65iv2SGaXLLMiXBw5CnBkYgkwoDXAA4zXM1yDdff6zgX1AA/KSjdmy315W8RJ4YpivJo1zdBEuc1h0bY/DtB+ZBeyiPXwDJa2LaHdAyETmFEjiI0ZbEzTZaQ/8pTPfQYWNUM/9y1UpHsUk2/j+1Qfbp+xLozsc5RMJwisYk/WgUzlbWmbTc3N5rftr/6D71z4XAHJ1DTrWGUyyvEeKXughEja4gjXvlr8zsPswp1bMR0HBWwUyMqaffNmfNaLp8OoAArWDoxMOm411AaZjJ1+EMS3QAa43d7sjDtz+e/Pv7vD0uDs7YtakElMbvpJC1dkCFH4BOs1kUBk1/KcLYYrne6poLUeLP+8ZYkZa59PHtW/r5wt53FjSQz3O5sl5t/Ifbrs9Potr2J0BeO7JWWWfTXDFSBww038qt+bvMKGeshUU3WWvOK/DjJrHy/JqaT+mAyE4oponKS+4XUI34eoexJbf4hZ1XnOO5J/DpoxTtS4MlRsADTZGtOcMMbd8bqaokPnmJOXDcU+eP82WCGRV0cKcoChmTSpj3aBP7qPy/vPOQfeZ2dI2t9J6kFblQzKl0ugSdZkCVo75tZz1HdZ6Nmx0TzAwMqYJLn7ZNmxkQ3sCssHKnLLhOuLXpiDeArq2ZC556dg+2g6OUFcEc4JRuSUVHUnGFP8zkHFOyDIRZoIz7z/0vq0sc/yTEVEXmLA0UQ5e0RR6WEZ3nncDeb23+0xn351RXkATkY4yTXHnwBfueDQn2GmezQC6OK1MJhbCe8/pJK/EJSqi1lE968k8gl+IfjNjWliBIa1BaHdYmELTgzOlbhmGFLMkGFh8jMRBj71C1RRq8Gy4qtjm/LBnAuth6X+SSjRUHaqMFlp/ZzZhuswOf0ZCdp8bpz3K4YFar0532X2R/SQn6jG4bNkNB4xRc19m9Iceq/Tncn+6So+M6elwG5CLMaWDjoBUlM8KM4NNOoDKIb+dHaER4ntcw35OpwnmlNGISbPjP5YsIiUvW2M81SzLLP8/Z963JFPxrKsDdnuYPxjPIuLLq1xWty1j4qbbS/fh2GuSiJq2JkrMQXH5BJLCcOm0+FaG1QAhUmZGUQBfb+PJmvEWDeJIyitqoLxe+KdWh020PKxjrqwi8EBYSOwZL6h14cEPoF+A6puavq/vmbSJqKLoierSKzFlSt5Mq3Ts/s5u9MVdzhpubiAVCmOqxyQ+PQ6wBBw9HpkpVV6R4U9efXl+Eu81Bo+M6Zm+WjIoqAGtaRHCa7PfYM3fUdoRAhD/+foVZa/H3El0GuKrLh4krW0sqbXCvFq8mm96ThPhZ6rQvGwsDkWbLt28iPi1uGnCOOzgEssWpGUZXWXbqMu5Qnfe6Q9wg7JXlWtKdK/U8hpTBYkMacOe+RfMyNl84mmlMqpcrfdvwbojymxAC38RhgUclq/VybJJKQkqplSmOF3kMK3nlTZZHk3GhNoh/nJvyRHBsHIDmIK9QXhbZI3pqEMgz2e3DFPln5N1lJNIfnf+44gW1XahfYXzhZtodfAg7Yfd/W4HDS3ry9xHRb0NHw4so5+ZnizCfo+s55TmVq8o5q2h7ytgZEzP+L0nzCnH+S4heKr8YHs/r2JnSe/8SB16XsWe/Sh6QRGHaLm5DGGxs3Ponp0hPGOlZrOaJRKWedavT9O6YoRnRKtqvTS9QXV9E/HxnYvQ6XblnU3c3XTNvU1x9iQIB5Q32LwJgYGBpWWJu2UxsBCnPCNyKw12nRXUfF+eMb+A+spsiiFF25ApoajV82EbSON5qHbFCwCZrYd6Iph7Na2HVbzwV+YLw1agavJd7X/Bv/F3gKeGh03EwXc30fDAjGk3mBLa8JgtpbBD1qswHi5f5fGHq2sxsoR/uCBPkP3ImB4JqbMNZLrtTlpzjcAcjcVdL1wouMchPjWQexX70Zni497mCgSBDORUY/1fP35h1zqhLI9Uk+cCY0Xq0d5wRH1cZoo6ute0uhiHQNXpds3V62AIIRHwEwivhbwgOQ0YsAJcfZFhPkYZuiPiJJ1lkHIlx2/+L9xoeLBeQ6bkuaSFuJW2VA8xW/JKC3Aa4g5IhMrIlq4HDeyFV3Ve8ax+fFFf9ZuKmN+z0NQzJhrQ6vJyqB36wJlCr7bYRDNL7gTbGqtNRcrMYwA3fQcej2yNOt0B86nzvyPrZwkaGdMTodmGU40rG9F0U5L2OjJTH56XCAZjOjvpvnIVe5xtgnBcKj4u4zFpSz6wZsnNpIWlx0t/J1aiyPHC7X/MYiQGrUIgaIGRvRv3jvg3d7a6S841ncO0/V15bYhxSTfZDUhUGFLIvw/fbjm+dMTNKZ+sxar6p8YGTPBRYuIqaa0zYWoRV+VTaXggKsjiA7yqtjODgvpwmjeemYoloqJd5AWAnlvK+9I+uoSnJhZWMOqydFtiIWcWvGiryXkV4Ub2o8dvYWBkTL+BPpvubKMdgksyezOG/v45dnUtewPRVPXnyZD+/fU/IaF3efaD5SrSysHYkwoos6B0z/S/Yf4vzz6vAtYB/1i/k8AmVlNaD3/349i8d4/k4vSsO/r+o1s4Bh/nKU1WSZPQJjoSJS2vynKAp/DKbHoUzYnWh71Ui2W2ZVxzDumCgYyMSWYebQZuvYxi3O393TgT5lKey3iXITouf2KfSeQRver+Uuv5s3INPm2LWj5l4g0ncX/S/aVgTAwKQ3s4s6WPHKjdYknP69JdxbBv1iNuCs/p14ZORAnmxGuIv5t7cgVpNH8FAyNj+hVszYk7acLTgdVYbeRlH8bgNA5OU7OkQCfZoWN8QGT1E53kUNFxZ0wQ31jRq6gC0F4ASS6Echr8ep4qdTOLw2jG48if2iGi6JKUqnPWYE7OAM5gUFcXCIl4JpSnJpbp0qPZGn50SUQCWTpEmk+ZET8dw2gZ6SW/FWCAHUkcwVsxmgUOaS+pFJdL/1SK6xLeEkxKMXx2l5go0Srbemmkwe/VPvWt+wrUR02PYBQRhxd48p6lFVWDoZh1j70lb5j22IbnmGRM6q4soYcCrenPMaLQy384c8J7fB4RAyNjekRkDkFNNWACqjFP4iTLWmBWxG0DaC9ejFHb5w8fQ4feCbMnR8G8g/i0we0kebPdhHsjygv0qFI38wZTinkA5XY3BGIABfBahjUIrXtNIQSBAMTZhbcJGoFYqitvWO5JU3Ajw/0Hpu6gJunHuyXpUwwCIvQFvxypJ2MST4tqGFnGTWNaDKGR9RAYWUHk3htp47BtLfc1PMVMtewvuKYPK5of3a/Od/fz8u21y5rVHr7PeaWPaHlwb8nZ0toCbCmYkrGMzw9La6H6hL159+6IG67x9ZgYGBnTY2LzAbBs2JJUO8Um4uOfWO92Se8f9ppOmBVcXhzDoFy2Ergviat2njLT9UreuVg3qUd2/Ri5ZyWpF3EaBZD4LiA95fkv90hqr+nsmH0mxMgVElETtukjTcPC1DwVuJGLTCltvTGLxOdH6c9yTPzc+Lgkk8+mGhzaEEt418wsOzQ9uGSnrsEtft65pHSjOJLJw7rar0fUDdCv3SOaTqFV5hR48kuzX4k+PO9akil5VGN7YzOYkgPDXsMD7cXkAaeZ4qRAah+fp8XAyJieFr+3Qq9G7ghO2TJp5joKXr0Ww9nS39/2uh9nx93Jj3MuFHTWZDfhaQmbq3dn4Gt5V+llO4MnKEhzixD/Wc5zxrQoc+LPTXyVux4fnnTnqCw65xr20PMGYYmnB9gQVeAa4hQ20Wq0qRiRrk/cUj21MVWCWzIzzm3l0p+fUfi5vxSHaWFGO+wt7X7YjeU8Z1DX7C0pTJOMqaW5Jce34C1mEi32L/7wUPvKGoM/D9F+PvjUfYI5eddSXQBoC/KXw5ghcxLS+DwnBkbG9JzYnskrmz5El3bvaNa9pq0lDvux5q0wxHcO3B4iqXfCFexKXRUZt9MFJ5uB97KdUeogFlHO4fSGmvVPowHWNXiTknkxk8KN3aUpBSH8nR+ddZdcwX6hap2Al3GDICWSGlhJTQOMUfbIwxjELWKUCQblaRCe3mjl6zOaLoOh0z4tYiApKsCsiVH/OpcAIujgbMkrREJ7OMt7ziiDKQVzKgwIdTbfvgCvzzIXQVaDdgGeVlAF5q20B8yUPEzruaXYWSIsRB7aTCnaG2gRnH10CPYNYetFf9+RMT3T55nXoPWrzVn3mhz055LeOjfdcq6Jpbyvx9+5+uGEDX5YU9vlj+0UukueYaLjSJyGz4xzqmcN4z2r3UJJHIsU2uFbl+/LT5yeCmBh+S50DGK9RMFtzJwY/SsIsbkLYzo+7U4Oj7rrY0WliYvU1RVcPm4Grro1YpPOhpg2a5rwRjPN8lWypzdbWSKjob1ynpSn8dwK4Htj5acZE2najbfPLrGUJzNyGU8hEaXyLtQeDuNWb14glzTefcUrqzz4In0G97FEIe4T8Rni+PnmPfjHUidlXVIKj2MZn9jD9a4lBR7iSgvaTSzhiRJhlIlVpuTj2yzSpc/TP/fJ6z5xnr6kT5PDyJh+gtdqlD+J9tvB1fDtDKuO7JQY2jkO5ZIevFVf3DXE2RtdpUZF1IspzdKJqUY7dJjRsz5kaOEmXICyZx2COFqWFiV6f3V/k1hLyw5TdrS/KDFFDHpJBa9cdnd6xCn9b8ss6bFUdU4079a5TEbtEqlb3UFOhnUGoGByZVTgBs6aeD3ZY17Dp9xZhipq71serZgx8yFQU2YUS7wKPMCUFpktre9ykHZvE0WtiINzBiwwxzJe3Egbda36VhlaTtWAKuMKvs00XpStyPdtEe/yLyD3zXQOrMLPIChqyEteHBoeGPF5Rim0h7MS8QkR8Z0VBB6Uw6MxtFYSECa1SVvAIkSXpayfkaPUtmsj3fMxzW3RA94d4cMsKu7Q7y3ZR8Z0j685rxHc1riG4O7TCFvzJllr4DR0d1PWkRzaRSOES3pHMKZTfhcs6XlfkzsF3t0UzImOFTSlL2TCGZavD7JwdxVqWPhHsFuGzLvVbQqmRNOHd1+m8ksiYA0XOKMTwQEIf8yFlevQkr3BrGnj23rsOZ0fIQyBuiJlx0NFEzhM5iQbJFFm1kqQ8NNTu4GRSwt/KiMqMQBe7jSDYbeCVomM3JeMtuG3liGllF0eq3UfTvHwlS3Ew2FKahFnXRgJvcGhW9L0uQF8Ch19iHlVrEExb7P2UbFMA7wtxcQ/0g5rOQm6l22Y39BOYttIPI4+EI5ZUfUXl/4pWCRTOmDQx3HjWDqXAAZjAj/VDKpFCGOID8HWL8NajMpP5z2eedGHVZgXfhvYX4l7G4yX6D8ypgd+FRvEsDHdBuY+DSfhZEzfMqbVRRSYsvRwwDkLr8Q4/PGjO0c8+hzCexnqxyGn9ii7Cv8TqTTdg5Jh1SXcP/EMStKytyRD32JGBk9KmTF8B/vNWQ4uZcuCEK8j9susaXOfm24vIMDg5AL8XDGrlCGZoCDn7Ej4+RQNivwCVzfLNF3GSvmYZtU1zQlGZssyyTOwQXlLs4NMSr86s7TGmSV/y5urSOhBk1nCC4lF1WibLo0AOMFBYb3KY/DQHtF//npAkgfl00oSzMfKD9pSOJuX9bPaHqZ1tmQ/+swg78PGdre14F1LLuEpduTfzSerM10pXeVT5s2UD/N5bHgPK8XLSTUypt/4FjamvjP8Ipwkty1RtMocm9lJXJ5bgetsoI7fA4DHp6fdN67FOLs4j7ubzjhZOj1LEs7dpbGcL6fxt5JQqKiHxZ/39HiRwhCX0e8FdZfgLMG4VyHAu9x0y6SqO3W/6egYERFnCSzPIMUXj8uAUKnhyLeyCvB/BDH1JcqsEmlSoPK2bH0L0z/rIs6cNbms6fmlFcXoOd+1yRUhHqpdRL+g+0pqhIjrWUXYjUeMyLoBVo2p8r0R9wV69FWy0Dj4r+JHEC9ZzirtIFR+sWer2i/tXPpBm2EQQ/jSUs6Zon2I30gMyBjYzK935WPo0D4/9uj7EAyMjOkhWPvNNNX2BZOEmeZNj7CR5+gNm+viiI+7SXuCYtev3/e6oxMk9LhM8OScC/MkNibW4FezA92v6bHOQQy0zD7WpVGKEBKROblaZzziL6E5Wwm0Cy4SPPznkFuAT0PRq6qc/HN2Fct5EhxTDXCTjAqPyHcQEGWYdYfnE7zMZ1jxKo9ZGdbc8YFbHYguo5VJKaWogENeqLgV11qk9nCXe1NJq5ACVGSTeQk569+wMCxCJHg9r6miWzEe/dxf8mZatYfvoVElpfB20PqwEnFsI2rBcPY5+QTgYwCwgZsEN9gBYMZefqP5OBgYGdPj4PFBUKrhawaDso/wU0rIf7b2Oc2/2Z1tn3MtBhcKHh91306OQjOE8d2DSfoVZHeqDPYv4b7ax8JDkJVGlFp4wFZVO1Ep/Nz0V8xejRASZu9tuuS+JpDSnV2jrgh1TtpFpNvbwbhFioj1CWIflnD+OWxZ0emv5de0vNkmrL/2+hk9w9QU7qHjDa+h30GtDiL0y2h5EJy1LiJrDtNPP4zB27wbTqYjvXxXXzFr2x79RBltZJULEUPDA+LhXi+zzhmmWObl20etY1bUpywIvXl7yKvFWF+3l24ZGdMf/kKtHwW9jc5Cl8nLAOlfQVlSr5cHb732+Z+jH90pqorY6We/iVFxEG86Sk61qE3rrQCrjtV8/nBNf5L9fQpJHHW8xYwBu4TbSxeX0XTguZ3QPn6CtgwO4Ia0GnxKdARzM/vII4lSUu3wqICBaeTnfFo54oOl3bpFO3CkIhO18Pj1DIqRvowpLwDkzJLi4RDiZGYsZrrMB67y+vRhXcxE4IL09cof0SJ6eMLUzYDE3xo68fa3c7a0FUt47t7ClInjzBsHT0usdc7zBjA0p1Yv32tkTH/gGwVNIF+7RP0shv52rlxdiIUG6Ocl+00L3Nm03X300C2CEOcetj0mLfriLtlHCOY07F+VQQM6dOoVGWkO0+j+Q89s+XTnA5N2WkQ54xwTeIglPRm23vxiRwlRaWcNzpgO/2Ev7viMcyuEw79BFviBCqWkiGSJPwJb5bU9/yPip3POEunPL4I0KatUVLP/EaPZl1ZZquI6kC32ljx4LKE9vzgDR55pggiz/xTXp1vBYEICrp+ePpFZWl/xmypH30kRcdqJjIljF+7RHsCc1rHLlPwZ95q9yksHde4xvQ0UvOKvd7PoI2O6iZNf8rFN084f9Mz2B7oMHcdeoy32tj3CE2vlbtp+oIMdog3iFLFxBSEu+LmTIu0yXjytQOGswmFqvfGUZ6W9EeF5Pao4kStl0i0jkpVYwRzkghsCks62SHAhl7TWt7npFgZ1AYO6QJeeTDt06SE0IZsvjdqxkNXqrDGV77NVuRVgKr+oKT6GaafcsZeIrTEjTbWEr8CU1jZR1Ep9PUybaoeIBxOWmfWyZpENNbSSIC1UMunA/8/Ue6rCv+9IVMWyrccElMJTe/gGy3Yuf3/kt494+Ab7tbKmUD8UuBRDyaR+vxAjhMfGwMiYHgGjv9rB7UvJeiQ9+eiWYOYZHPwIUCdnW5OBpjhr2upOkS7ySoxDlvROYFJXjPxChFrulMnClHgLIwi4Qa2QGSuilFc6XtK7FTIM66WFCiXOdOKhmzo5EQqNEMwOlEhTR9w1lwgeXnxHKELJK2dLMibIUCbDNoAn7Gd7oiK35NYKYiGtoQwo6okz2kH6WQmVsm6wdLmNJF4s4SEAERfRynyZYZr2CqkzkyeuAmTmGw0iG8OkNC3vjPF63lVsTX7OktyfVVv4vw6+dP/vl/9CEu9Dt8M+rVcAypiWaDRuVcYVINGGcJC2QNmmxufPY2BkTH/gG9j2syMkM9IetCdJEYEZ6ujWk+kGXqlHT/Fx9prUPv712z/d6flJd3XiuSY2U4gbRKjVJyBURprDp7nNJqwVbxjnme19EbPqmfvAHkt4rUx6R5F98StiEldjIACwgXLXUyT0vOnWO60k1IHTRuzFUzI5/Enc46HB/5lRZR0U72dJBuF3pTLMMpWJE7vlj2/L7CmvS18JZbYu43m7r35XcQEg6WBM4sNzXYJKLmzzwLOYUjOjxQROrJGRX9cTA5JoAJSd+jqoU+rO22i/7KN6aP8TB2u3urgCkPo7Q/IQQcyUlBEh/rBdWfsbbaE+9utCzasv7ciY/tAnHLZ3R/C6pUeNJyWdkFbwc5SHfF4qeUUb8geWJv5C59c5S3qnl2doheDivCAsAuAfYAFLmNgFE69hpvrVExHK8QfNYTmwzytuRWm0FSqTEnqhORu74tOxrAeDcsbkvtOFEno+INc/CXLac2CQORXkjPqcb+sZjMdyhZ2Xnn5Ef/jHzA+mo/bwtQ0OFrOE52yplvCMFwxYkxSTJ7EoGGueT5m6tE+nyDgv/62KqmX3iFiqPeesn9VYX13tdlhZ+ICgkEctlGx1cJcMKfm0NQ603lLFITYi3hBdt6QZvR8XAyNjelx8/jK06iDR9qNHtG4x6AzG0en6+DodcYf9po/sN/04O+q+Hn3rjpg5ua9w2W80JZEqsvvLhXrOBFZ3UFezLpzML4bIIEE/tM2Zoje5OjtYWknGpOj0hddiIAhxpRh5Q6tmZBl56tBSgeZY9jLxqvI1rzTK0zQPfwrKpBRCz58sJtkMdQMpag/3nNK6e0uc3/LiRCXzYkYl0mDMxZyizAU8ijflmFPgSQnmBD6dVyJzAv9nxey/Tyap6M6CVrlraQeN4TIlpVi3uXfJJTyZUmgPx4xZUsuz0k4yH20vBQMO1sfnD2GgGA70JIhxEqEqzEyPheksQoxdJ99Ewsj9Jjd17Xyez1B7cnS0BiuIuyDqV2B7imXsF9Q1q7plVnlny99XMotfRDlmFFQ6lvM827O1med6EKGWoIc4fVS5ZYA9az/MMOcUsroMa3lgRKxIf1vByv/+ZuUxaxYE28OVAhwKNFg3ZkvJlDi3RP28BNBlPO9aCjVFBShLW2CmzajIBAcZWAnLnE7yZK6GVAdQ/sUXaUWbn+d0oIIeqYbqqlteXo5L/z59QMMDqwlxbgm2tEy/sGfYx9Q6H/2i8jITBzh3Pc+MkruK8p7CRsb0p7+2/YJfiAX3faQsaRrmgcFFftye3a3T2bZZ0tvl9k074CbMySUN5Yzig5osfkVoWyUTXAub8WvOP2JUuci8pwNVhyrQIE7RlZoduNBVt9h6k+tyXMO+DhFnVoEY9TKzKA/nOtEybZjCbe6kVpUBZljFnZb6aWt2qVulFc5vPH1ZGuy8koK8yEPCq3CL9XNmFDfTclHiFst4qyznKS5OU6AslidnVWm3QJa1Pc2aRHnGs5x/yBSN9Qzt5XeXab9wL810ay7hcQGgN9Me7O2HAISzJZfAZUpLjSnVjOkmLkTSvN9dJRjDngoDI2N6Ksw+BG71TM36OaKzA/LzoKidbJkO5xmNrbXNOEC4t7mLm2UdRNTy58iwjULta6/tmVfmwk2rSzIJSQl/UBlnTHENBHYlriTc7sGssuy1jICAhB205bkoW31QJjMqBiTKM+OYMd0ow6xHuct8IJJJXp86IeTcQbt1Uzegcpeh4QKmtM2ttOrFcy/NUUgwMOoSK5KWP+o1WxZymFfMeX5Rmtn0T+WujzrEQPndnmfEblV1wOasqPrCR5jSPiqI3FtybzYEHVo9fw55Xp5zkTQv4uj3iBgY95geEZm/DGrQU3pyFIRlEABQSafSQ9nNFHlF3QrSR1urm+w1HXRHaDr4/v1Hd7Zwiig56ngYacfSFX0qZhV9wTKXF9/Vpqvfl74vNxZnGhLupKNJmINIK52G6Pgiswmvgdjc3w7t45fX37vLH8RXG4TnmnpgPfi0OBCY91imYdDQPi/+Pf2qqn6ZtCfgfibFDHAJJrTGntLGHhoemvbwK6bOXnoR35fKxEwr8mwF7QFMFyRDzaNyng5/NldyUupQ9c52nh+mlY16JTYaTjQcoGE68HJpbgnTM0pqD/eKGJe3N9EevhILeAlHiUTzmffcRFPmNYlrulm/Cp0Ps0JH8+EYGBnTw3H34JTVzKNZT/UMQwaNvVkXnAkthE5kuohxHCV23SaXnX3aW0Iy77r7+vVbd/zjCAk0b8yTUGXxJMDRkXFHvuWYzikjv4D3DAZuL9FMxNAQIXaou4zZfSVnSruf9kPTuFdjXF6w5IfCVyYggycBTWZLg6CyNlyWMxHZu37dArxgRPFBJl+8KbnoBxPXaG9YgTGtb6MLEC3qW/s7caXFFRcDejeXbSGW8mrdoy9nb5lTtmIFmfmELcyJ+iRew7JN7A0V5KgfNWtB0d5lvPy5dHftZZBEVs4urocBATtrW92/Pnzm9ymW8NyHFZf5TUGOjMkOEZkI67ZnUorbYkz7G/92aNNxR9evYGBkTL+CrUeIO2z6vb1v270l+1DlR6dyRGxHg+7S7djs5b2uyhmW9PY3zhAh3+9+rB9252gfv0IXDyQ4fvZG08WJf3v0sCP1BaiMXoAJCuSdc58JegbBgZC+WkG8WO906XNB7QhoAbiAmK0xo/Rc0zkzymuYlNQtwEVemWGCT1I9WwTdw+y1z8YZFOqXrPlZEnoQYgmw5YO6rqytMltC2AG1Q2vsLS1wIeAVvdblPeugyLQ0d/rB44bfdIzeJbJvAuiDn8QSiBsUUC7UOwvTlovc+UX0eNuOcVH1a/aWltuZJS//+7LL3tLWXreBX4qH+x0TQPaArKZ+4jhwfmvlMscsQNlnI1eBDS/7bJzR/VAMjIzpoZh7gnTDLjC0Z1bZyRbpUchn8cdeE52UwTNLGal+5fj0qDu75Br2Yy4U5O9CPXp0GnWC2XfsjEEDbgJ/gtr8Bshf6ecVN9ET9azlrdiQY8Dsst4GV45fwpgUHVdlEYiJ2VXhRVPm3cjWVOEfHV3mHV/GbMiRvOOgZ3xb9sqY8XloeoHZgApqVTnkb4V9M9ZxqRAMqYQ5pNJWJn7C4xEXcx/jGVg1qohRoJauwuYCeBbPLAFl81+macP1wLC82D9WCK64+mUZ4Z/PHKT978//Qo/kfreNxgfYUu4rRcwA0de2Cl+1LneaVe8y8TVfCzH3uStsboLR8xcwMDKmX0DWy4hq14x971iuUBR2Damz/Z3d7uTiiGvYUWJ6ecrZpkbciOt6fIwyMUyrM59BJyyv12bO0ociJtQxGFQ7lKogxCXnms5+wLhhUKVTTrqnWiN1rCXBBr8ycjDlewpDxsXDmNPPVKwWdDPWdJqCLUDiUgaFNxxExNXpTbpwnb2lze2t0Iu3grThhaLhxItrQDAtT8wiAvjcws1ka1mrbAN7ec3EfhKneTUcB/z6Zjr4Dq4ORMn8Jv7jkC/Zht1XAlW0fe9aWg8pvE9I4m1zfGIlDlNk//CdNoFOP9NVNad6Zu1R0AqcMStsGtpMpNH5QAyMjOmBiHsJyex4Mqb1uHdmm2sw9rvD429cJHiMktczOjHLevSb6Dr2Zp7serzfaH+yfilybR3BkEwH3XIqPJUxHXPr7Tm33Z57HTsi1ilUgkoforsvkRjSkunFU8/I9TJK/+Chz7RnCyXM4PmBEcdgYUe+lNN9EC+wu8Ke6pXynqktpPAsv4eHL5kJB9m+kSfQbvhFNnNeUTD8TaC9zDlRH91rXt6WIJlRloXvFowLF9EjhbOlYEwqNUZJK0ucXmlxwExpFzHxVfZgQwLP8pIgZlpRrxxgFGrCNDzqFZBbDefZ9auULVpv3BXWRxotD8RAI1cPTD0m+2MYsLv48wPmTZ3r3R4d1DMczp7WVzjFEeLjdnLi1q+lw3hTj/WrR2s48Yy9GmcfSrahKcEZiMtiCzCrmJmwLJYzK81MJ4mc/BXU28zKbdYk/m00rYEyX/+yHEwI3BvDL7SHe0iYmZIXAHrnkodr42NbUX+k6+FXY7itiLf4J8k2UHjP/EQdrMKcvKN6+TGuWbbz5/JdHNWCOa16wDyYEhcAouFhc3l6Cc8PWX/3q9WwDNgDn+VX5v0gjbEeBwMjY3ocPP4RKEmP3HHK227VAuGyxse9gxAlV/1/nGvycKFTp6C8raO9of4mHm48EL4k+ix9uSezgiABezTOPjb3NhHBRpUPG3Q9WlxOE5DTF/4nS2S3I8rotz+VrszpmMUES0jF2ZtMydmSe2LrCDp4XinEw5Eu9DTT+eVwtiRcflncKPp0Dq/BVbjJuiQ+y4/yO3tkZnt9zp4g/54E8Le+uIpoOBoe2F/a5iwfR6hjZ8nj5SkMIiRZ0+QZQJ143rBVrDIrgu7ZX4WN5lNgYFzKewqsPhNM725yL1yGo5CD48Y9znEcbe93/8u5jmMuFbw8OcxL9ohmrPrLXtu67rAHT3XnZ6rIb2QT1W/ptctf+irAkEI2IGZFnP+CGW3ssqR3vtkdHa4jWn+BoleW9JCwd+knhB8gfDINGUWSJ/xbJho+ZabddEPPTGXYT5/GPJ05qb9A1UKOMpZgRN6zpMCGzFS1Q5dcGOkh4pplBezIilcrXxLPYel+WoI/G4Gi2h4T0TISWzFPoRAz9v6sIr9lPsQqy3g7MKNPDL48t1QCD4qOe6DWeP2SXqsdXgm3uUfj5WNgZEwv/xvNLaEd2F9MeYPAsaTH0t3m8locMlTl/+nZaXfC75RrMoJgE18VLi4ZLcDR4uzPFCU3q9fTja2/pCyIWSGE4lddozYyJ/+RcmMC2a1uoZn7Eg0KJzuBi8P//Ajt4460hwkRjOvpo3AiE2GHA1OYw4yafx+xd99mCZLcdNzlcMH8VTO0ysHgDWZ1a5xf8sCaV1qELrxgsBaC+HJDixzgsfel1V6lvC3vF+YfxaXcg2qIX7/sEst2wflpt6uLquLiwkzEwj8rHs4AbKMdplVEXDC+0zYFbgg645ndK0PTC/tqT1qccSnvSdH7tMD9eCE23ptI6DFrUj2LV0p/oONuutTB2Q6X9FTfksP7JGwlzeVINbvx05b3qaEHnUnqFLRZaTs5dxF11nu6RWZNq5vMSHY3Yr9JrQpxcxxLeKEhIEzSQeiCcAFP7AwfiaZPmZnZA6hclY+P6AzN8q24D4Z2h1X2wZY3IMr8x96TDLb9Qi+gsye4Z2NvWaBX9652NzTFK8MNflFd6qQAuMvSXgD4aedD92XvI2eWdrttLgC0vS8j4RIzJuI5W5o3YyrUtE8Xzgd8sQIzmk+MAbrC+LxWDMhQ7IRSTgfvEtZlqPE6o0wvS9tjY9jfCTOmyzNmBq4UoTPO67rdz8hH85V20WHRqzpRKRytSuIlHs2wQ/Q4DrQC0XdmsoKS1wuu8ukuwKbnYyoaTMOR9xTYAJQvRfBvjLj1CLxWpsYd2icAiumFclmX8IjmbGkDppRLeGj6QEDDg2oyVql0prFE1o+fVl0S8rDNzyuCXtyrFT6KXBXRob3Vg4GUB2lVb+Hgapdl6n99+qv7r49fuACw7lqSKaUIec6Uar40XeGWQ0HOQDyj30xHHV0vAAMjY3oBH+EhRciua4fMLlddWvnoNXSHKQiRkkv7wZi8UNCLBe2Z2fVzrJ15N0JwW0GqVxv+k6i3gXhU/6xAgIx6D8uHb+80sJU3GBTEPIg4y2OrMCbPNinxxpnkUJbqdeROYiT6cUV5D6gyBBjWBtKYuHENPfo0GXzX2y/gnMdMe/Fw1A5tcW16zuQAT1jM+GRElt/4w8clPZ4Z32GMF2YflDTwNnBT0h6VevO7QmvHCldaeLWLjMm9pQP2ljZYss6ZUjvX1FJW+mmo0ygQlePzsjEwMqaX/X3uLJ3j+epk0qfY/IXKrTO6vOLA4RmM6JhLBE9gSt8Qgji+OA5VPdHjodR24pvjy+raLWvglk/0Z1/lcWfpnigwClEFCMd0RoEQwwnTsJ5yG52ajMA58hIzpji8usP16zAmL128OidSW0KKdDGclhUAaJhVAy1TilkMYCdPlW3ic5tNtUnnF+chCr6xudntoDl8D91+7i9d0zM5It3PkmJZsq9TK0xlNSzbbZm9CP/ZglY9MIvBY/UT1qFwJfNcoHN5ulYAlMRTSaufM38wJ0EM66ij4WdgncQozzInIaPtBWDA7zo+rxgD9j07sh3TJQ1/dtp11qs8DX+w96H7wAhzC/UtK9zwafyYNWBZWPTzt94bZtnnI+Tu0PlpHtVXItKXd9Y+zImIFpZfSLGBIFaDgorFshjLY0vonPNqjA300K3DFJZQmOqjOiD/Kn2s9URI1r5/N46U7ojQv/Sb599HaJYqm1dyWI4QD8e0XIq3X0eZYYx+3KDWAg4kYNEsewP4qoxW9qpPj7AJ9pSUXGZvaQMND3veSotOvG2WqNdZEfA47RKfSam9WAkFXI8m7D24W3HymnF3a6XeTMDImF7op6zuebsZ4/ip0vsxpWX+XObwOgCvmP64S6f2OgAuF1Sli5tNdugl4kxOyE+ButURHf5P9enIvBWtytCIUAaVp3Fq2QvqJQE3ApQrFs8wFcFeQSxbzd3+cunMvbcJY0rcCIuH2U3Q0AYqPX/hTf7ysskPQHywRcvBsuImwhib7C8treLJbEltFf5iSkDGMrEJU6p8s9blepWmCOGZrYkzJu9Z2kDgYU8pPM4sKR4eS3hMHxWIcM4UzEgAoMdnCKfsmv3PpYV4KrQ5h35RpgrvUxJjaB+mG+2PjYFxKe+xMfoTeDbt6hqzUasr3Ay/6TObtkb2wigG5Q2e28vr3Qc2ij8hoXd49B3x8WO0bZ/ngVuXuUjQaEMPUncOZFu+lX0V0Jj6Dd196se2VObC7Qs2nckwigVr5dKQFSVN10xmFdFlThB+xcfXdy9YPlvj3qZVdOmx64OSVxmY6YsfSCjDrm8AaJm0OIVDl1cznLSDqJHzwO3VFc6KllGRtLmDePgOWsQ3IbdeUQxzdNnRs75m5W+SG454yqfM8v9V0/I+EMYDk/XlHzCJWFK2HBbH74TpDH8f6VKl8JTG84yesyWZUv31RShLmWSi1b5QXmHGRwF4OjBpB/zhk09FLnefuvcYWG5EHoSN1t/BwMiYfgd7D0w7rzn3HQOY0+HDkEmG03Gav1FbR4slPajbNaPLHZZC/mLT+Bim9OOYCwWP2FdRAs3e7wldf/xnTu2t1yzBCviTMgT1IN7TPVmWCfxZ922Zt3gYQXKM5sEkDf505mWK3tmk5nGWis728L/qvhHv7OokNt1rf6NnSsIL0IN8dTfnJCwimR2POfIQJ+gukTQVAV9ZX+y29zlT9ZHlqW0WYJEWdF2qtFHIoExvHepTBAEXns8wm/ThPShb7zffMin6XEDzEw19A8D988uyDfKKSlE/vGJ2iqmuQFdSrZsCD18+fu7+++Nf3QG3NHtGzwO2IRpOu5bH+Jt9wqv5y5gAFVjRK8NaYIXgLJ+0maKeSUj5TJs/C5+OPbruh4GRMd0PT08ea37zHnaQoX2mOMPERLOz5o4J8WBOW1C8TyyHHJ0cdX9/+xst5KfdDzSQnyHxhJpqI80A1Jn59SE6dZRpFD1kbn2k8HyCV5ZlGnAVRt8qwDBe2iPEMvJUqMticZmgMxP2d5Y3uZobBnHFTPIMbRlXZwpEMGsyHcTTZc8gnrhlDJkzbwG2rEvpqPlkuLbKUVsyF2nxtYebma25lChT3OK3sgG59VbaRXTvRFzYkZk2/IZi2h5cy9QsfvPpQT4ATpRCAL9UnIycb+uX+AzOS1296NEjECvoetxij/QTe6Qept3lMkCXpl0F8EiE6ftse8ukEhU+W7+I2sfvLZOEYbvNfyba6HwyDEiVxufFY2C2e80WeKYjBQFNIurV02ueAUH44YC9ps/MnDx867kQB+Txk1rSzRNKwUq/yInsy3c259sDbsR8ZI+7cJJhVWbpexD4hpcoCIHuJ11cI0LPstr69lqIaW+g5LXUAHmQVSbhb7LYI4tpT2UQzomjwiNlcrRgMsEQ3alnOLis8AUHfRVZV9hh2f0kRxPk6TJizPBkSi3/SaYt7zIqs3K/FjORk7NymZNueTL7n+59KrjzAYEH2+ruxna3scKZs5gtuRZwR3ucqX/FLXMmeHS+UAyMM6YX+mEeXKzo4UkkJabOnpaRONtY2uh2r3a7jx8OusOLk+776TFXsqMrDqLgKlfuZ5guR/az+ff0L0HfnzLMAvpj7lYDyh9V6CuEm8ovc9fROldLbO4gZs+1GP4uz1hWg5E4Y3J5zX2fGuHLngJEW0vSXqiJKupoPxlS/fRbQuBhncO9m+rDU9s5msTVHq6UpLtbOVMbALwBnDD8pvKLTF/pi7o4U4qlU3C97sWXMCSFHfZgSpu4lcPzekzRLTr8iYA3g4NX+umeqtgjY3oqzD4X3Oqp5jfopT3hxHsJ6aY1fjtb293B2UH3/eyk+/v7N/aczujgXMMuURAO/9CF7PUFKyiAwIdPRRr6vUI71ZApxR8VV/PCJodbZUqHX7+jOBWmBIbcD1L6y3lTv8QgXkifeBZQom2ChQkzCqYEgDgoi6kyWQ/R7nCYVjFxD/ui6DBwHwIaMVMCUuA+BxflNYH/NmzFkJwk5mQSgR0k8ZzZK4m3tZZXWihlWrgXLdFORUGi/m0gY6xFj4GRMfWoeMUWOufwkVgOH4Mlvo46vbPp4+l+9zej0ZMLmJLaxzmI63ULPgGKVz9qT+/+HZBn8usDX6HFWVBUB8rveSJnL7W8dn5ylqqKwGfwbl6JWd+5uDd0D6sv4TQsZ0oszzFriry8foO9JWdLzs7WNhBVXwUWVPmSqWsyIFIm4JwhYG8Ts/IeZvV67VQ22pnIRRhniaU6GdEHBB0+IkX6ASm8Da648MySu0rV7MTtYCz1eus/lvxWDIyM6VbUvM6ARs8mBIzOr/RdXECHr2eZVOnyr0/ccgshPP33eXfKza6OWGu5qh+NggLhFVF8uRipWt9RQitVlM1aaecnq+mv8kYowbuQ3GPaYEZzyX7H+Q9uAT5FSIL0zp6SkJJWogoAfxPA2gewB0t47leFoAV7S2uIiG/sqA7xogxgAABAAElEQVRJpuQSHt9H2KZNCOQnHOEldJ1hT690vPY3dbpWAMdLANlfWuEmZveUFHj4wBLeFvtKCoer0cRx0xDT4cBPtLwllLz2T/pY5R8Z02Nh8gXBsbM2OpalkojChBTAc/wZ99nAnI5OT7t/Dr+zpMfVGFfMnviLzs8rYPAadvpgWI1YGj4M+zPVn1cK/W55KijqoIMf9mAJCjogfOCh1hXPFnFJ3xWM6VDmhNogGVFgBzOW9cRRwBMLiYmQnEuoeAGVX9zrxGzIZbwlZksyIxW1rrHHtLxO9yPPONTrNwqs99CyeMBOnlqht9TttXlbKac9oD1Qj6TdJozoI9odviCFV3tLOVviu8zUT9y3pjgTMjrfAgZGxvQWvmKrg3Syfnppl8z5FwcS6c1LEMs11LyoCeLH7kn3n3++cqHgSVwoeIEwRMwCGq1t5DagpNhUWoNBac0M0vOPvS1ElvT2Ahk+p7B6S/FkClI67AsutTFj2v6wHaP5E/abzs/ECw8je/dEjBq/Pt9cZoo44Ncn6C4UN/TdSX2BrSSecHcOtpHI4wJA8rqMPT4vAcx0BVKi23zCy+9StYwMzKOPUT6vwRzWgjo5HoApeXB2F3VDX9hb+sKMaR99eFz8gfaHNlsCGYUPTaH4DUbm9Bq++a+XcWRMv46zF5vCDlu/KqQHFxfc3LAXSyB5QiMEG8z7Gzsh/XR4fMSs6aQ7Y2YQnd2o1eMHBFI/g+qJkfzQowKe3byrEEUIg5RlySp6BCV5j/mQghDsMy0xk1m73ugu0ACx/v0I86I7R6w8DuWCgUBlcB7ABZeuJT3xC1BnS/45Y+JvAXH0Ze59cpa0ya20G6hAWkT1kMt7wbpCLJJCBWAhZJnLjG+SXhP8RzY523t2dP9uhg3/8nCXSFe9awlt+A6WlMY7oF1uKYmHwI7C4c5QG7/P+lN3QTSU/G5pxvQvEAMjY3qBH+UhRWp9PZKWPTeMg4LBU9JXUukRRmdNW2vsN3FW5DuM6dsPtI9zb5MzB/ekgigGAWjQBozqIeX7k2msQRIx34UdS4Q9A9Iu/+ZPPXrLCCissey2ubcVDOry/Dsqi9T2LcMhuj/iB7jwSL8MS6YUcYngHVhqMlcST718LuF5kFZhB8XRk5FhBI6rfK1gFhFr8KzmRU6Zb1j+8GtYpp8WZRAZRLmPZjvzmpYPXPz3McTDt2JJT6a0HKGBnh5yQJhBUR84Wt4MBkbG9GY+5XRFBiSAM0o101FFkb1aitoFAfAQ4yFnmv7z/Wt3dH7cHSGht3DtSceCIKnOp+jvIKiFvE6j6iVjqLlHMHCFIPhzSW9zd5uLBC/zXNM5eLmAJ8hLJujpK5/wfPNzIBA/lqo4I7XBvU9K4in4oKLWmC0RJWILi5+fplTz9EC1hH/GFWT/HaYi/SmHNRg+hZih3027scTxMhufNUBS2bBXWqxyL8mUFB5xG4oCX5VD+d2EPvq8dgyMjOm1f0HKPyQNQ7tVm3TiXKvP8yDOmtiIX2akCjE4vjjr/ufrfzh0e4RKnu8sW8mY6gEC1HAWbkLGtx/OV/xXYgZiJrWKpTzIYVwxoTdcQobiLMd7mk5+oPyWJb2raziTm/ZwBxmUCJZZ5INFXOHnbMkV1KUlGBzLeC7feZhWLQ9LCFicXSPtFzMGIjlwEI5AelgN5NAwLCJNPHXelWQS87lscwp5S9ZLMKX1leVup6kecva+gSqi2FeKSuWMaljnYfWH9luyGL1fKQZGxvRKP1wVu4iSZtkrbNa0I7tmL4vyw6szdGuRvSbONh3s7XffTn90R+jQO2VmcANeUQHMzEei4fOzXCPSC35R/la3ZL9Oh2AWMg0YyCraIDbQAOGZo4tTROsvjxEjR0pvgKF+BjPAjeFem66SWDVKeFNu3LPEMqFnlhSTlnkFY++nXwm1FWcaZy2q2DZZn+d0rNfjog7LSxz6XuXOMCTxZEoyKFW0qpbIeiZu0qiK9bghgmjr3RVhNN8EBkbG9Co+o90vuuqdpZ3tpLPu6sYu5DlzuqRbO/j3UOOnfVQVoX38O4peT5lBnXPTq38xgyB+lKCKEZTRokDKJRBpLfC6XvzTY7MKX2aUnFB23NnmQIqR/TiW33Y+7CA+jgqn0zN+7MUFU6HKhC8wdZLdB2PDP/aWML18MMXDOUgLc3IGFjgVtxHP9GQYeTem1BfsHij8lbi3gRvCaOW4Leq0/zBhhRQAw8qObRg17O4vdd0aM3b3lf768BGhB7SHIy5+zaDo3EbJHuiSym5h7oIyWQ8Rx9A+cVQ5RvO1Y2BkTC/6C9r97JI+fVdMZ3tXjDIrcBK70lcIJtTQcNfx6fuI5UIgGLUeIZnnuaaz87NgUmdeQ87QXCIaB3TlaE2FTxDhIhDNlEndKOakIATyzClOBtz1ngVyV9z5YZOiCWtYiIG9KGhwW/yVZWZ2456QSl7PTza648MVGNMig3pEyCGgJWBikms13bm+5w256L5bc4+KmZa/lXVupUUIIhiS+VMM1SHFMyhCj7+hn5GIOuuViX/jncXoAcz9fn1oWWDYVZBWfI3yqlhl9nFpR2EnojhTEk/xcFUPKSK+x51h6si7cjYKQPUGxg3LbVoUWd2WSWU2mm8GAyNjevGf8q5un4UfxogOPKhTsqBhj57ECD4DSfHQ7f76Xnf+4bI7/PGjuzjn2oevnK05v0ByLCgJsfiDuCxKTPmPxZYGdgJxKuNwDHPWI2YIWmYD9LvxCPleEW+kvNtjBm5UgHwiKxxQUBmMy2Wqa3IGtOKSHBf6bf7YZK/pNHEEnkRGEFz4kRJ2V+zPLS96bXsqhN3e4+ZgGNMSWg2uwZ0wr0WChDeILvaZpy/GjP+jOsnkZs6DHGYDo1AwpT6KHriakd4CrRjYrawPZuHIs2DLMGgPeat26K/9T3GtxfYKOvFQSXSNJgyV5i4v9TJ5N1pAZGG+PpVdusb3G8HAyJhexYf8ee+rGJP+OiQi8yppCuMwuueNvFicI/HU/cnRcXf8g/M7LFudXXEEVCItURUMjCpG1toBEQRHO09CTEuVIzwjNF+Vdoq4DMJvWqtmN0Pu9ulL0Ecrn4TYlzbCDQv/qhCOmAHh65bTIvrsVjbQQA5zOjtdQ40TlwmeM6NUUs84wWTcnwKnTEPXNr2VdiOVtGJfZAbl9kkcygGXwkwinqXBNcFl8ypcGRZP+U+SVMjvma3ygg0czYNfgREhXtEWUsS9ZR/pGjC8Cozm8LJFr2HZ8wwd+0rqw9vhTN1au9LiWobNX2rHq5N3A/gt6+YzGm8UAyNjemMftohBkoXbe3EQi6g7hBTHIlTQk/YSi2PONf3z7Z/uROJ7wWY/YNRQ7iwpzvKwVBVLLUF6CKxsJpknVstdpvG0D+OXPVM84rsyKnMC+rYsHeD3F/6ZLJgNsWEiEkvvTHK/ybNIaiDvLtDcwFXsbtQFMXVdFKaj/jsZ0/pm3u3kbMnlvZhABMyCPSmTtsx/4GcZfCxw2cPjCV4zeczi6M7siWy1gpFGxAZMfyoVFy1SgTgsS/iW+ho9SMvPfaW8Kt06JR7FZbrCCFeWJ+HGO6NkhPH95jAwMqY390nvT8NiDuQ+iZ2c38o16/6bW90RzGmfzehDBSF+nLOf4rKWQ3yIMNTHvRWdjpZzVJ9k41Whckjdkt61GcuA4mENPuIMh78lRJvVPn6xtcl+E5ogWMk74VDylZzbuEjcLSJppvSdouEeqlUx6SIb+HWQNgGK71/A2aBIT4bjmTxmnJNsDWhFjzhZ9fRriQzWGgdoDZc50XRkQOvLXFrJ3tKn3ZTE2+D6dMXGbUfFszN1ZlnZJWje/pvB+LxpDIyM6Q193urEVaXszOWaby7AZKKzM6L3WOPmwnq3571NnG/6foL4uKqKPL9D8jjd9NaIQpumJLGbgzG9oJgKKqRAA5JjiHpfipNTZpDHF6hy8nwTzJq9E/XhrTGj2kIJrHctheohebrMDVhmF1QbI59phEY4AbcR3wqv1I9itmr3JdHS/Hr4fWDvE8xotjqTpNgsrEwb3DhrWlU8nL2lT+4tIfCgwM0G7U3FQzI7hjyJ60EWs9Yo1mzZZiON7lePgZExvfpPOF2BX+mzEj9X9NUGYTpXopbV8rzKUgvnmtQI8e34R3fi2SYP3RqPqVKqN6rZ0nT+r9N1B9YMkrFIM0HQMjOgtQ0YE1oc1AhxdHjSLWCGhB5KWUMfHmF1bunSM0tK9xWcO7Ia4u5JGNAwA8tBnW597gobJqJNFBeLquG07NqtdixzEsdDs6k9fA9hh/3Q07i54HXpCDtEbBOSpqUdZhFwhx6j/c1jYGRMb/4TW0G7tgRk8EhQ+A/GhLeENYfpV0EsPqLh2avX/z78p/uhRggO3yqpptYCl/FidBswZuAOsvjz1iJpVf9yz5TMKgyCemf48aKeUUusiyzXedHfxhXLeTCkFW66PTlGpB4hCI7lIPDABYDo1/PqDO92UvFrwJa5Fbw++8opoPe+z2Wp3H8lv0hjPYZFth3IUeJpUDXEG7NLRRlWVrhuhTuWvhx87j5zbkkND6IkWhLxVNR6Ez8RYXy9QwyMjOlNf/QhBSnCYYUbocXmPlGcVZK46Oa3whkTT+R/2Dnj0raD7sfJcXfinU2cMYmtJiiKlwpGikwWaV/2a1j/VtIa2uukHn1VhlG1W1fwE7RXfLFkJ3Py6orVLX5cUX95jmCE2sP3mS0hjSdTkvKK1oArDLNpa3Tah9ngfP4n6jXI9lcKVPXpsTaoKH4yI4Os7hJLeBvr692uGkb2udKCPcxVuDiYjL8ogXiduEgqhsTR7YW6PSSSjq9XjIGRMb3ij3e/ott9s5NX/Fi4k2jgYceXWOayHkt5bEQrDOHG9TYaIb4cfIqLBL9x8FYGhe6D2G/ioAnxSBvQp+FXPi/PnEPKLPqUdzqCMGqNcF7YXZliahnRU92Q4uPr+BObGecaUnjbBzvdGn7s9CeuQGwyo0ZqAdVsCXoqbzN45mde/tZ59hnEGwannfNbzrh5FmOpN+dCKUqOWicEHna2drp9lod3d9TwsMl+psqHUkFWsaSh6LntMR7yHWTdPEfjrWNgZExv/QtH/aa7drITCWT6+/YnOelHrVAGL2/zjpzvjHB3vViQPacfF4iQX14iadYSSUBIXHQE1wt7so6TQs26CWl1mMTR1uLJWHQ1Shna2UtKD0GH9d310KnnxoqHalfRELGEP5daxCwr9oqEIbgGS+gv9qGyczAEjlodquAVCdOD12IpBjnxjuhhW2HJbhMdeHu2ISQ9N9i/5Pq/YEsObOb9mUW1p8qmsh3N94GBkTG9j+88U0u6u/9FbBphlkhIgGRQaidQn54ayEv7szr0Lg//A2M6Ja1xldTj1dLPZPIynFNlo8w++gUCNNszFW/imd4S5Ug0odpsiihx5yHalfU1/MEXM4PFNXQQLsCWOJgMKmPZL2YCxZRaESY5CFLPBr8CXrJZaAyT0iuxyHJdCDtYDWZP1yhiXWT0sr2xGWfjPiLw4FEE25RszDZWh2it6gxaYolZ//F5nxgYGdP7/O5Ra5lPzAAagZE4FpGUcCg+vsEByN12LcHx+Qni4yznnbCcx7qWS1uAyNnAQ/D4ImhxksQbRZGR4JlzAfDS3EFBDRBTSOm518TEMhCxACH2LJNMLP/0FohQIgmvAJqmfv1jOSJW7/NslntlPRMJp22l6qU9ZkAu6SnvgemZJWfcn1DU+pEZ0x7tyAsqgymBk2ROMiiBZct7tjqPGb1oDIyM6UV/nqcvXE58iuikGYQCkrOMKO8mijUvNre7k93TYEruNZ1yqPTEq8ZZ0gvq4rLefZ+iy/eN/5TxrLxVzlfLacAcBmgpkfokxLId2IiUFUYk7wl/3eBCAZHF64aUgN9AZyxTlseMWRnOeD+Hs2XdF9ci9g5KXPYwm6MxkwhzlALDdibtzpF7lduoGlIf3hcYk2eXdleQVqTBqAWvmJLsSGgJkfdMvs9R9TGPl4eBkTG9vG/ybCUK8thogaTB8a+ERTMUaUp4oLKqkNmDOR2iQubvbVQVwZguj7lqHMYUM4I5xISk0+Q3MhtUbdY9CHpWa1HcKDCFwpxUBwYUFNOZpMQ5TWtmnAgzHU+QV8LV8CDOIoFxMmXYjKfPzSegN++h/WbMR/fJ4k+DnSnijHM6btSfejuF5g7FJbg1c8hugyXgPbWHs4T3mYO0ewjSsOiZ4xjSyJjMeoLtQUHuzHCQ/SDJwHe0vgEMjIzpDXzE36oCREDaErRghiDY7509KT/loVuZk9cUeC3G8elJzJzimA5UZiZpADV9kPAbgb9V4t9IbEFmqVn5TQqZxHLozjSNB7X8W7oI4tUC49ySSGn5pKRZhifcKn6mT8iTvCr0RZlZyJtFotgGOZu8RBN9p7J1BRtYwnMws7+1G8t4HxB6UIO9MykPcWvKmKLVyN0DFYmP8B5f7x4DI2N6x02g6E2/FAUuJA+O8nOfxHmAQhBInyFdpRCEm9jHSOf9c/itc8/pmnuJLtlP8DqM0Awtk0qqE7AGrwAeeZrJsz1kVrOiyLMI4Ewheu/y1yx7Fla8WP7wHXCpnC1R/wjINDLkjJ1pJ+8hzNlYw7BJirDNDZrrOZPw95zTOVSLAab7SDhtOwscalt0VZefC5jraMf4sLUXbWUXMfH1RSXx8niBAx0ZU6Qjbq80tzA7yILQ3yv8mPrVYmBkTK/20/1ewR3Jh1SenR+KKgHy0KxPDmJzfK+X0lOeO9lcYxTM6PeY80x///N3dwSDujj7wRIOS3pKpLXNf+E4c7h2eecPPtYpqzRNXi1S+lSMFj4VTUd65DuJaWKqIUpAPo1JheGLBD1Twjm/DEI1bkIMOPHK3Mqdact105yOfTP8t32iAA5UWj2S+yZYPrR/qFlkJgTrYUCycrUUs6UvaHf48uFTiIfbfmRIw1+AJd3k7FLVZFhj/Ybu367NCOCVYGBkTK/kQz1NMSW2dP5GEyQyznZ0emjUJ8kmdzaxb7K+xEHJdW5xZRTslQWHqCo6Yr/plFlT6UQrClbpYhrRww+AAfe5Xi3rmeyGvkN7izbHy5D0Fkv5TCZi5dPI6MRZMZs5a9yS0SDaz2MMIj+ytepb9dRdtY8ZDx5OjmPGxDxolTaywQBlZ20r2sc+7WSNNiNDioEQZthNxy/hWeg2CAq86etTSJzESv/x/R4wMDKm9/CVf1LHIgUVrcbwmteex5GEeFYFsrLGpvb2OmdT0KX3HdHxr0eHzKC4+uGCfQbO78TNr6znhDaEYHosaUUGRWgql9dkTpe9CPVrqsHvlxUcVENpgxkFZHIWpNBDF0xIpiRDctnXKy1iCU/GFH/JguIMXHMHAwL0NIYtrZnd9P39eowQXgMGRsb0Gr7SM5XxJhlQ2iq1ii+2PQL16G2i4eDD3l737eyo+/f3r93RRWofv+BQpcdYgm41YGnUOPuZKjJm8ygY8NsVLxJgfEs+bs2W8mM7+3HQgiQeAjIf0YXnb4uZ9QrXo5fu8NYcpuAFwAp4lBKPQN4KBkbG9Fa+5G/VQ8bBvAgiIZ1INiJJKi7jRr7LeYSy1icB2kPn2UeEH/797StqihAfPzkM8XFnV7GzpNoe4/NLeAIekrnfKvCY+E9ggM8Xn7BMRiFXDEbU47DiEh6aHf71+a/ur4MvCECsRVyaQcyqLK5tq3/CMeXTB42WEQMjYxrbQMOA7CMZR5kGFFtJ5sLSDbRkmcOjW5xL2UMQQm3RhzAoNY+fXXLo1ikTcYInVeqiP8H5Mo8R7a8IA/lJKXBrHxpK5cWPg9ioI9qkPSiB94ELJne3t9HwgHg4e06T/aWsbzSFelW7eEWoGIv6PBgYGdPz4PnV5DKhFSnu7Al+/Zz9OBPK8TGqePjbZoTs3TrHCEAcHnGhILfdcqcrsUiLiLk61ELlkYQMII2sRTiv8XmhGKg24JKsj4OMMHHXMp5m7jGptmqVK1J2+e2FCqsVJPRWEXrIhbzWfhIE72hNvWu0jBiYh4GRMc3DyjvzC7rTv5IhFQoWZTDBUny7aINJ3GVeG6gr+sgI+RiG9PX7P3Hgtjs/6k5lThI1Z088xtctgUuf5hGh7WWA3uPzMjDQvkd8Ke1N4CG+I26l6pwRrXH9SSj5VR8eZ9y2UEOkJJ7MSRHymDHxYYVT7/E7v4xP/JJLMTKml/x1nqNsNRwmL9UL1dKdLCTUExHu6NiZT5ybhRgFo4LSrF2voHZmpzvdP+++ceDWpbzLb1ecbTri0G0TOHevCdjBnKYokr4zj8RvjvdMrNH5lBjgE7TRQ+aimyfOpDFlDkbDx7RNeC369lpqD/fckpdK7qCGaH1xlUPZyZTqg2a7yrZQfgl5fI8YuImBkTHdxMn78+mZQRKOmiHpHedUMBt96nGzhI8nVK5RNqPW6E/sNal5/McJS3oIQ3hxHjJ6kVAt5vkARQ7FfxgFtMwIwFHR+9xGy7NgoP8OaXFgEkcFyDwZCxaD/ET81laWOXCd2sM917bH1ekbi2swLNUPxTCmL3afHkgJPYPGT92jaLQMMDDdegYBo/X9YkBi0RMSOUgjRBIjf46a40eQKmjWEAuWMB2wnKOY8CruEBVWEwR/lb5NmxpiMxdzyl/zHo1nx8CQUfSZ41n7g35Db6Z16a5vA7SLtWWWcjnP9mn/YyznKfDgLEqmJGHJQU22pGgH8a37HMIyN+/pKKPrHWJgZEzv8KP3VZYn3Pokyajxra5iIfpplzlJhFTQuc2saY/R8+4mV2dzAHeZ806xFAgBmyVKNYMaidKtyH8RAdU84lsz6/W+pWBQCMSsrXLQGuGXD+wrqaZqAyblPMn24GClZ2Da229YqfHbD7Ex2mcxMC7lzWLk3bsnJKMIU0x5nPbwX36Kjcd8iFH0NXtN50uX7DdAqPb2Q3z8+OysO+Gm2xg2O+vyqcTpSvcku/IdzT+FAb9P+x5prSFFzZDxheOscWZpl2U7v/U+kngKP3jwumZJoW6IpVw/e+rCE9rNzx+e42vEwBwMjDOmOUh5v17FJXJG1DMkERJBCkTAa9pPxuRP7ePOmkLJq3fvQKzWOYS75KxJclVgpxCLZ8gjYybdmgodHc+Dgfg04P/mJ0qm5AzJmZKP76WYLa11+8yUVEu1yw213nK8zMFrzzXZNmK2BGMKs6UzfT2VV5nlP5ojBgoDI2MqTLxXs5hCmT/BQ0RzeS6W6CRWKa3neNnlHO/gOeC20h1G1OsQrKUQNzcVv5o5QZFC+phXEKcpCnXPgvyknGPwAzEQ6M8FXGc7izAimVN8b7SJ+503EQn/tH8QZ9jUm+iZNs80dZeNGU19zyzHr3/VX0/xwBqPyV4gBsalvBf4UZ69SD0N0CJVGZqWBr82atYVwRowFr3dU1iBeCkmvIf48DF38fyz86E7Pz/v/vfwK6bSecJoibULU2PeEwys4s+LMPo9HAMDpPM96ksHPD5mhDpcxcLXxZKDEOT/48DsphcAckTg89ZBd7C5H1J4HqSNmLxME5/Ptd54nHk1uAGteQ/s5lmxJ6Fluz2kYozm28PAyJje3jf9zRoVGcGUJgQT0Y8nPQJ+WPFdlDnhE4wJ0nW1tN4dbOx2p5/+hbbxrvtxdtr9QDOExEcpL0fewinedDtFIp6RBD4+j4QBv8Kcp3GGQLdob0jXrdi/F/JyY3xIW3pu7dPWfvdxE9VDq+wtxRyKcCQwFYZxlhXMyWwG325gnVMA87z5tFZ3M2D0efMYGBnTm//ED6lgkZFGsXQG5Ri48dLbfYR4MFdZ9vF00+XqZne5e9Adoz/vf7hQ0OsxTq64GgNKl8SGyDUraiAblBmDHEbmNIOTx3DWR0tY+Xl5i269wgMGE4rl/VbOilnCY7b0EabkbGl3hYO0wZYcnLjXSDJHK8GYwiEkHoH5mzzTron/rM2y3DfubNrR/boxMDKm1/39nrj0kAU5T08hZslEMZokIBKvFQjTJnc2XS0itbV9gv60/WBM5z+4gp2bboWnDj0hTVI/cTVG8PMx0H/X+BiNC/hl+Bnmj30jTyWtLSEejvTdZ84sqXrIM0shBEOUminJlybPZL4z5T2JMNpGDNyKgZEx3YqaMWAeBqRVw8eJjwzGR1KUc6Zl9h4WUyMEh2696dbr2C/PUodeHNyM+JnK9/j8IQzE0mrjScWMLEpbvlPSbmV5uT+ztIduRM8vraAjz6++oGBE/d3gQDc8/lAlx2xfGwZGxvTavtgzlreYUJGXcJeDcgRDYgaU9CwD3DdXQ8AKBE+Fnl/Qn3bEtRjfD7935+w3nbM+dIEevaRqz1iZMavbMcAHjGW4HGXETMnr0kv8W3FwtTt8PvjU7WxtdascrvUAdb+vpKh4g55mDVVuz3IMGTFwFwZGxnQXdsawwID0avYpJnUFSQp7xoyxs/sNy6zrbCCl9wHx8cPT4+4/2393J6dcj3H2A8bEFeysAwXYyWs2i9H9nBjgI4dgih/TcQM/50SrMCDFw73SwsO0G9y7pLopl/f8dDFbamt42UwEoG3SKnCMz4iBX8LAyJh+CV1j5CEGhqQn7ZKpJEsqeWVc3e0gCPERPXpf9j52p86Yvp51p5dnQfhkeEHTgqLFawC+oOtf9kHwaH0EDIDbIWqxy5BqGc+D086WPKu0u7nNHtMmZ9NWYVi5jJcFyO82+Xr1vSY+j1DQEcQ7w8DImN7ZB/9ZdYus9PFueGTIrPc0GUopLcfV6ATodhllf2Gv6QTpvMNjtI+fn3Vn19x2q8Sd512CQ1WORSlnc6jw0Xw0DIQ8uNDagKIxJpfxlvgm6wixeGD6I2fS9jZ2Yml2Fc3hfteYJytlqTBLDEduK9V0y7gt1ug/YmCIgZExDbEx2gMD06QE17RHxJF96N10N0ylq+jLWJaJuIEE1yckuU4uzrq/uVDQiwWvzq66c5b0HJ0HoErUZ1YMKkCPr0fGQH473jInntDyEMt5SOHhtcK+0TZLeP/6+KX7b86k7XNt+ubyOgONvDL9+uqcpETkWvXbn/6j3h5lDBkxMAcDI2Oag5TR6+cYSMJWzGkSX38lzNWv5oLPCj8Z0zUKXo8cfaOu6Ad7TueXiI9fchU7xNBfLCn1dExiWQ7t4/N0GIhdovhmfrcFxgrOiDZZwttHD55LsJ+Z7bok69JsXpfueGIyT6ovNSnjTZ9J2GgbMfBzDIyM6ec4GmPcggHJz5CF6C6SpKmEnvfz+FwvXXc7LOl9QvHnD6T0jhAfP2VJDzo4tc0RkcfXs2Agv1Uypvhyzl45t6Qo+B5MybuWDhB4cH8pbqWVGcXSHRMljgMEIyOJs+YJm3qWoo+ZvHEMjIzpjX/gp65eMSLzGdqTYeVeEydq2U9a7rbWUFfEkt4hS3m5pHfanV5fMPqWIo7Ps2LAWWowGlhKLOGpwcGZLsp40Qyv5vDPKGqNJbxFdTx4Rk32k9KU2hRc0RyfEQOPjYGRMT02Rt8RvCBJcqDhk/QufNLqW40Q7DUtraENYjfONf3vt73Ya7o8/cFe08iYhih8fjsfpzGltRVmS+wn/fXxc/eFn3dsKcCSOlllSvnBgzE1tjQyp+f/Ym89x/Hai7f+hZ+4fsl8crakXbpVvCrceMWhW4iYgsZbbKA7Cv+8/4E7ffZYNnIsPj5/BAN+qMHPQ7NeV+KttC65+p1kSkt8IBdk/TmrcgnPdON3Aw/j8yQYGGdMT4LW9wVUQhUrQ1a7p1bsPCC1dY1q6jCJ5Khb5rTL1Rj/OviClN45S3rfusOTowlnI450L54eVnmM5sMx0GN1AkIvf17qh4j42tpKLLV+QcuDYuLrfK0FF1qRwPPCdCX3pmZHpo1vNO4xTZA62h4DAyNjegwsvmMYQe4acZowpRmENJFk9stTDJmrMb4gnXd0etL9n83/QRACXXocur2CiS0wPL+GALrvJENjy4PHDCKnnhBGDs0r7P3rvXEzcNQYxA10NFTUoCHiiadCpWZT0ooQeLel9nAk8D6heHcbu4OIBb8JK60KPYSuB5kT6Uwq+PjdgvJbvCcFwNY+aNhmX7enn405ut8aBkbG9Na+6BPUp9GxOZAJ6alHWvKdp5vcHDfCQpx1SSjOmrwmYWF5sfsMc/qvD585cHva/d+v/4t5zrGY1Zh9XV6kUETcngogmVVR1MwjQJeXGbWnSGa537LZmJJV9FM0xCSms97BlAb+Xu7YP6aB6SyRcG1ppdtZ3wqmpBqptYVawlsK9VKCkCElKOdNCSfcWnuu10PXs8VPP6PF2Sdn0hFKDAYe07Ey7vh+3xgYGdP7/v4/rX2Sn59GI8J0TAlWEJ9GLWPig5/7FKq68YqMD2ys/4tlox/MmA6/o+T1+jQupEOTXiwvBVXD2jOlpIotp8lMYZJ1i0Ae7+GZ8II5uAcVyZRgIQ35C176B2ICS86CsHvWzCstFA8/QHWUZ5d2OFirEt4l4numScZlwmAgfVb4+V8Ae/8B5vvA8iOSTKkxx0hqIfkfnxEDQwwUvRj6jfYRA7+IgXlUaeJXNumPPxudBHEDlTdqH//rw6dul7t+Vhmlo+G1uz6/DIIXS0dFtUbidfOb3Asnhf1MHknwkmc4c13m5tktzpd95huoPVy9eJ4988Zal/mMZ5qa1WimO2HcLNTAZzrrYG6D0NE6YuBWDIyM6VbUjAFPiQGJm/saXj53gAj5Afsau9zz45UZbsYvQTD9qUEiBt4Sufg1YllEr8ynLOwLhR1V77lE4WdiBt4suzOU+GGH4ch0cglvcgHgpw8H3UfOLak9XLwXIzIPMJ7cKey8xmfEwBNjYFzKe2IEj+DnY0B66oxoBUa0DTF01nSGlN7Zv/8/7m26YF9qGW0RTKDQDZELUAnHdMGg0jm+b8GAeArGxatwFkIMMiX8FmFUzow8TLuLWLgHar3aYoPDtC61Gh7peMWSoMCw98zulnxH7xEDj4GBkTE9BhZHGA/CgLOjNTRC7CA+rpaBY1QV/fPjW3eKePIVMyVZUhDHBr2IYm28V6ZBgMvxzszGL27WmoAh7uRS4i9+bca0wmHaHdQN7TNjTbVDanhQGx7zJSJm+nzHVpCZ8WhMwQ7f8TVi4PEwMDKmx8PlCKlhQKLVaFj4lLsYi57up8fGO6RQBaHnOxeh3PXfX//THaGy6OjytLtC0StD95CYmBBCbAGcV/PUGOYXmb6jl3Wf4GcaGbUk51KeMyaX8RZZKl303BJCD+rCU0R8Y9mjtBnbdwg8AFT7BLfhMc6a3lHb+lNVHRnTn8L8G883SVyStJ6wDain1hyZQyCZNe0iqqxU2CeI5DEXCl4efu0uEIIw7SIcLSTzIn1BmwArnzeO0jurJw4KI2XmGlwm4zgSjAnmpPZwZqrrq2uoHtqGKe1zy/AO6qLyniUZkhvPcdV6AxSwS3quIbtw3ud1Z+nGwBEDv4aBkTH9Gr7G2LdgYEigJkTL0Xa6klFNJ86x+CWjc/ToXXMNO6LKf3Gu6ZS9JjWPn3OW6Qwlr9cQ1BJ5Dghmxq/ymYU67X5nrtgQos4iBxypoDXEsy/wuIQ7wZhW19ZilvSvg88MBA7iEsDUHh76HWLvT+bkYl7hOMA2h+iPp7eUx2iOGHgcDIyM6XHw+K6hzNKnchdRK/cskuKwJ8QyVBVxCHebjXi1DriU98/h9+4EzRBXiCzHTbcsRQkvzzTdxpRmc3gnbhH8/7d3JoqN3DoWLduSd3nv7kzm/f+/zcx7SXqxLMuyPfcARFVps9VtW60FlUjF4gKyrhJegwSBAJtXDgIRD5kaJWKHlFjK68ofHubhLN+F93A8PhxIf+2EtmTt/VcjWcQh2ZZgIayxg7pWkl+JwPshkObi74flVkqaRzoBxrxy8m0jnr0P3OLobn70ZDKO+fiFNuVPZBTB2SbzFKE9kViaak+U0U/eQaBB2/bzAMpISaSu82HgeKzQIxg73MiJLib6WEQSldYPPZfQFsZG+ipA2yOyRVyQUvsqVdpZmU4E3oxAEtObIUwBv4oAy3u79o8mO4W+YM/pWJvw54en7oWAvY8ucVOpxV/ppScmSObH8Tly/jB8Zp1fvs4lgUG5x6O9Eu+N1lQ+aEucG7uUV/fr84vqoncm83DRkvacMHwAY/sjAKz1z+QV8BucURz3ycr5nAi8AYFcynsDeNn0bQiwwd7REt6zSOnhUZsf2qHvasOJJT08Qgy0z4Tn8Tv50nuUCTnRbmGjZ1O1fP/DvmPGnDUclcXcKaWseZhVd0PyQlvivc0Rrt7bTPNF8nZmSQYPBGzs7Z5KSyVcOgEdnYzM8IF2BQvuzT6h5weepUreEoF3RyA1pneHNAUuigATXHz4D3FPatCeluyO9Jf9lRyJ3mjyPNdf+EddmTITyjsEozGV/3JjAo2irboXQJp9twYN03j0iPEDnhwORfanWh69krbEQdqTDkt4IiVpS5AS2EesJftN4ocxQP2PAJNe/wgNeW0V5vmyS0EgiWkpMGcnsxDAqGEkTelRGtOuJk/Ih016lu7wnccZG+ICcQDXvF1r8mSitT/nudsV91k9jOctXnO83eo+6Y1E0rxXTUmRKKSE9tTd1VkxkdK1LPBu5GHjQmb56Em0YgKoCYk28bLWvnkm38qUn1ci8NEI5FLeRyO85vLHJr2Jd6knsYn8ePS2TJzjs1nzxCIRM6D+lWme7ThposXz+J6W+M4VTfUz55oGd9WdLPTuFRbDw2GoTcd7t29PRrfNHdGUNR3a5GqPrfx5zRtB81Mt0fMrfWBJ/RplH4nxhIm4aUtCE43zqqc4S/LkfnV6qaXSE9ESehLQ6xuQ5rwIdfAITzEk5m2UsJZmn6f07MZ2Foqq5Zp8jvy8JwKTCCQxTSKSz1MIMBn96kXbSUsulydK4q/9EqspFKE9+cjbVQvKjjWh/tf15+pRWtV3mY//uOvLn57ONdlpUS3tGZmpAwmsFajWQK0fzZk1MUomUyjzsF1x52H23Or15n77m/1S07kyf7aAl9e/YKK7/xmgBNZ4AgVruxMdXsZ7+BdFDe4d9rSvdGBGDvQEWdgiKVioSfsiC22qxlZp8gw/0gXIuLfbzktP1p18ntcu87cLgSSm7fq9f8vbMplNXjYHamJjbtMJG82JPgPiTZyL50MtQV1IaxqcyIrs+Lz6LmJ6uH+sRloCfNZeFFVt0mx3EGnrwCdSvskmK+70MXZFu7HMVx6s89LRK1U/opgh18OGlyCj8oKkMXjAW/gZsZZkGn5+LCs87S3t49dd9QnCyD+zLpOLOCXMaKRVycrsy8tbRQslk4wWgmmrKyUxbfXP//tfnml9cmr3SdH/kreQ3xy8lSHEj9GgGnwdVQ8Pt9WjNk/s4C0UJoLA6eiknN//dh87AtfXan1QncEiuol07DBttyO3Q5DSuTSlU5niK1w6kWntH5bmIGwn7RgpzQvneJYyxp6j4szMKMx7IvA2BJKY3oZftn4HBJjjglTq+U4Jpsy9Pfl1kwudy4uL6rsi3H4b3VWD21E1eH5QTEGFX8dthLQDWxYsjeulp1rqOwxy1UWYpikU9S9nkXa1hHesSLSXMnS4JtaVAgAeylwcojcrPClKfjqs9WJgHj9EKzuTicCyEUhiWjbi2d8YAnAJc6H93V6IxStgMeYRVo/krYBDobcio7/vflS38jw+utOSHhFWqVxWo6bn1JDuEjfq217ctUR7bxGT/aMHjEcgoTMtg97oPBiOcXsKY3+4U4hJpIV/QrPGK6CYONJ1wpMmexrYjYIyX2b1EEhiWr3fZOtGxFw4OfeRF59uR370jo+ry2dFur3zJT08kA91AJc9fwVjb8jJNAcgnJRI3mZd8YamIUJMAszNw+XhQRoS55UgJby2n8iQBJdP7DuhMZmFHfUDkjoRGbpHB62sTCYCy0AgiWkZKGcfv4iAZkYxD5rTwa40AJ3F+Szrsv5oWH3DyevdnZ2Bqq3+THNihi2ahE2s6BGbu/8Uhgm8NTgRtuJQbp04/wUp3Sgy7Vn3VObhTkZGSKpL/VlcpOzpa+GK000zJxH4FQTKIsivNM02icBbEIAwmBx91vM08mAT/1OdMvZB8E7Apv3xnhyQspmvSZf4TUedfQt4p80mHcyFxCTPmkpas9FkvSB5NS8GHAO3wS82TN5PH7x8886cWcKsgeB/aEtOSlcyeihLeLZ8B56BeENM/gvM6HZuwYy6mZUIvCMCqTG9I5gpanEEfM5zXYapMnZLyI/pmUmUTXzKdXrJNu4524SbIizN+tKYBvfyo/cwqnb29Z+yrWX5LWQ0I2okM5GP8VZTacmpMsogABsieZExbzhebu+h6rw2+0pdnQFz8j6rPhNrSdoSbof465NyWrU/86S385GdVyKwbARSY1o24tnfGAIxUY5l2oNP2vEXPv+hshxFpFVcFF1r3+RSmtOhNIQ9Oc4zr9imQUgirGPNi/RCWO0J37WM6V5/ew5DfvEar2DkLdKBeA7ABu/hCmthJuJK46QVzw2+r9RoTAWZVynwxaFkYSLwQQikxvRBwKbY1xFgcnT6ccqINLk2/WqZ6vH50ZfnxEwWUFBh2HsW6O6iupWror+/fVXE21E1kokZ3se1qFcuSWADxgRF3vR9NbSnePNXBtsevpq4RulG3x2R8QEHkkXW5qS1xFmCsCB1l9ws47VFZToRWDUEkphW7RfZsvEwYTbTcrO057la4JNTV9vgZyKWjXMcuEUruJX/vH//83c1kDHE7ehech5VVxX1ry1BlXke+T8x5a/JL6A3goWJY6XlTkKjs59EZNpLHUY+2pfbIajrpRffTGDW5PfLYb6EQBLTS+hk2VIQ8LmzISX2m/xv+0ZzYhLelcrUlRfy6pl9pp3q7mwob9nXIiYdtv3xjzxCDFQGMelji9SSbKymm97kpTl6KS/6jp2g6eGJ/XH4WO3rEPJJ79AO0n6+urFYS/ta4gxcZ3ZL+7wSgRVFIIlpRX+YbRwWE+n4fAk9NctPntK3NITnZ8zHTyxE+K0Iic/d41A6ky/m1a2Mm8al1p2sO1PpVXdGCkmPJ3ai/lqYkJ5iLR2byQMYzCQnwbHur76N/39s0zsnMW3Tr/1h78o0NzH5L9yXt41v9CafNl1b2o0AgaqA2yHPxUGpn9dh6ao/HFb/fPtm0W5H0iJ2nrTbpGU/ZNrhWxuL9xCyFx7eSxVD5Et15pa9hFdgMNmYDnWZkYdeUfc9mdGfygfetRzdYgxypDNMXamL2OK5PaM3aX8XKUlObVAyvVIIJDGt1M+xboNpz8wx3f3sO/iy3ayp2P7il1gdY6rNu0MLMCs0TcHn2lfpa0L+S1Z6xGx67H+zMBkY5tlyng0LIVogVCfx2IzyJYJoar2UMpkvVZhTZmO0MsanRAxllkAqM/64i3s523VyeCALxYvqRv7wLo962mvySEtGTOY9vNGaZom1JcFZBXPGnNmJwDIQSGJaBsob3QezWsyoP/+iTJu0buZGl2fTqWU2sqMnyjCBxhCCTf8LLWP9qVhDIxkCDOSqaHCns00YQojQdnAKp49JURLjCBNrQ1WuHnhuerGCxb9MmL5eE2D1xitNNVWG5ZXvsj0m0Q250M+OQn7sahkPDw+fe9fVf19+qb4oOi0krSPHQsU1SsgJebR2uUqXIcSzvWgMayxzcQiyZiLw3ggkMb03olsp720z2mTrZhp1M4jnmE2FbSSJ29TVw4Gm4dPuoSLdXinC7bD6++s/VV+aE/tNI7kzIpigXdxiAvacie8XCyfq8jgx6onHGQ2ms6JNudvNhsGXnsgoahXk5CHQOYukw7TShk66R6YtfcISTw5bT0RUu2LjPTXvCB+W8rj4Dtz8uf2uXof8vBKBVUEgiWlVfokcxwwEbGZW/vjkyRNGdxyqZfLlkO2FguH1H+7tDM+P+755HyfyrSo0hNSej5XdXHMLmipTKdqMj2uqytyM8f7iLedWj570vsRZwkUTe0k9uR7CRROeMMCgW7xk+Nmlht5fkptlicAqIpDEtIq/So5pIQSIhLon8/EuM7sm5d7JaXV9cVl9H/ZFUgNFu32wfSXzQN7mkHZ6oZ4+qFKLn14dkuriF29Xy3gHnY75CuQg7YU+p3Jue7AvHw+EqRd5EZl28mrTaDv9y9w62UE+JwLviEAS0zuCmaKWiwA6QUeEhHXE0/NIYcQP7FwTpuNfv3/TftNA+Tsc95k6cPu7J+QxIioEZbexggZPluLQlmxvSR4esEb8In941+cXVU/ExLklDtqKq/VqCGFfzSnIROrLnqyTkm7EZyoRWCkEkphW6ufIwfwMAj79Mg27ecB+Ry55er3qx/1l9e/ef3TwVoYQ2mt6xnwcyz5NymYQoU7MQwQCfO7+mW7fr24hiRAIqZjBA+NqXbE/hCkDy3UnJdS8hbTQUt6RvK7jR5DdJyclbxyvFndyxdOqQ0If+vMbOXklAiuDwLTOvzJDy4EkAi8goBmVSfWJf+RPD3dE7DedyEccB03RJojeyt4LWsaOuCm0DmtIYz52TTBBZL94/5U2IXC8rY2rjKddYoQU+ewt6Q2xxCPkx7Xekfc83oWUsL9zCzy+x+nJ+6xfVY+WVkftvBhZ3hOBVUAgNaZV+BVyDD+PgCZWm8Rj4tYTRgGoRhgFfBYpDXXw9k6OXol0O3waySGsFrfiT7EyMaOl+FUnIuOD794f+0ZxQUSNabhyMXagWPtKO4o3ta8zShyiJdYSxh5Y5XV1lsmJyOXEWzRSQ3pDRNShvF030l47Wo/nNpIylQh8LAJJTB+Lb0p/IwIYOMy7KMFsHCs0plL/PFdHOtuENnGvM0221zTQwdv7RzMf50wTNWuCevMcPH980+P2vqfzWzkxnkJK6D/PT8qU66HDo271x/Wn6s+bL1Vv390ONW/uMnxfydPzRhZdRK8xKq/fLiU9T0q0znsi8P4IJDG9P6YpcUkIMGUycXNUiWW8ZzZQtKR3IM2Cw6YDQkDo0+/fiqSG1YOcvT5JBbF9pnrOXfbEW/qrNSU912m9D8WMTR+8POyIlCDebrdroeUtMq08PZwoYGLX3h4MxvQsay4JurwvxE1eZRRj2ZDadH4N1FjdfEgEPhKBJKaPRDdlfzAC0BIXegPhHzStGuvIUk97SyzpoTnd3t1WP+76OoBLaIwy+ZYZeNak/cGDLuIZQOm9TjJ+in0Jj+U7vVbVlXk4cZbYMzuXscOxjB+IvRQ7S6rtS36leS2u9DTrNvnetGmuKB3PbcozlQh8LAJJTB+Lb0r/IATaky8Tc731rwLKWAJkAr86EzEN+tU/379Wdw93mudHMpZwDcMUrCCHDxrnPLH0bXtKdi+DFh+YlgQvkGZvSRrTYWdf5uEX1SeF+DiTafiRziwR/mNPe2pjhg60kSia6zb1ZuRzRTlp6vHhirs/5Xci8PsQSGL6fdhnz29EoD2RxgRt2kOZbo+03HWlCR3/ef/5+pfMyPuK2SSvEDrzxDTs7eO8zxsH80vNGYF0ON0gqSAlS+MPT3miHzMP/3x5I0vDm+rs6Fgh1HWYVmbj9TsXxrEbciSvZE2NCo0xyvz9vUo7PdUoMxKBJSOQxLRkwLO790fAJ1UnGttzKl2w12Rue3qEG7+ovomYBj9G1YNcFWmF7LdfrrFp3GIKyMLeQ4lw0sqZpUORK1oSEXuJP3Wwh+tad8VkxBQsQzsJsEe+lEZeFPOypOMTz9zzSgRWDYEkplX7RXI8v4SATepqafSkGVrOe2QcoIlYsz8hxz9dXCmY4F11O7yT9/Gh9m44AaVpmk2qaLxoz1G/Pesv2nZGvdCYvEjCJRey4sDwufaWrhTSo6fzWQcyDZfNuzSsRzm7kMZUTN+py8WNoTV3T7XzqPf6FS/4es2skQh8BAJxquMjZKfMRGDJCMSE6nsvZs2myfyYJT1N7tfSmnoHxzp0q1B6WirDBNtVJ9pF21eG3K7WTr/SzOVHP+UuRorlO5qbcR77XyLWvT2Nm/NYWr77Q8t4Zxo32hIeHlji8wsalqwijhtXc7fSKLY7Whb/08cn6lrDuqU/zc9rl2c6EXh/BFJjen9MU+JvRYCpFuMGyAlTaxkPyILtXMthkBPm4xhDDB8eqge8u+L4tL68bf04mRifxb30lSYNTUwIq8lF+ahMsBI8KWOHjuzf90WmFzLc+Ncff1b/Uqypng7THu50pUWhCbaMHur+fXAs5827mqJSVxVJNfm05CkGN15CaV6JwDIQSGJaBsrZx1IRcD3BjcjZ6u9o4idm06W8JXAOCGLqy8HrcIiFXuEEqRA+DZeJOebmGPlLc3RpElWn7pOySoW2yB1Z2O1oTY6qu9KWTrSfhOdwzN0v9nuKO+UxmDARb8weoqciqSUwhtTKmiAgb9suD2mBRPOcqURguQgkMS0X7+xtCQg0PKDTTSM5yZM20pVmdKq4RSyNEUTwm842DUZyVSStCS3FPEzMnqWn5umQP69684rtGu10UwMmsqU7EQ7E9KQDwra3BCHpgwUeOh0flvBYiptiGETHoFqi29nRe9xb1TKZCKwcAklMK/eT5IB+BoH25DvZLuZq6hCj6HCf5bEzi9d0/lUeIUYKi6HPo/zo2WRPxWJJwOrarMtkTnYaHc1q8FKe2tkuEe1FnizQWawlRaNlP4xDteyHYYVHUEQjT6qWD6J9mCaIx4nLdUfqc815JS/M70RghRBIYlqhHyOH8r4IMC3vSVPCwADCYQns6OCwOpf5+M3llTSn+2r4Vebjo5Ft86jYZn2rTnJiJrcJPvK4x4z/i8NmfPj6e5al3Wj4oEB/8lZx2qs+nV/rI0et8vKAwQOkhKbkNNPujKW/6dymBgN8qbypmalEYJUQSGJapV8jx/JLCMziiDZnoGnwD4dV93f2taQnV0WKdEtAwe9lSc88j7PhVIjHp/SGnExekFIZZdT5lUHXohDCR3YY+/td21P6fHEtIw1Fpt0/0ng1ahGT/6N6aujV0bDI5WnWFT1QHulZ9TIvEVg9BPgbMa9EYC0RaE+37TRTMbqE/YPlnS2TKSyGUZMv6RH59VpaCftOdmjVQkuooaqzmmcremNzvnowFYqe4rMAbCajPbrShnwR4dPoqQ5pcWrnra4riAkntIfykh4eHthf8l6bvseGNzWUl0unqmdGIrBCCCQxrdCPkUP5eQSaaXp2W/M4bpO6L5uxnIdf7jNZ6F1pH8cPryo0uc47WTBB2UrI/sAIypQRyMgIqchnvo8PVNEuK1X8xshEJmhrxYbbLMJrvvC2zw9PdqbqWNoRWtInOWq9lln7SeewwuzBoi0FIdpYCmki23rw4ZRk3hKBjUAgl/I24mfMl2hP0jVvaOpmDwcieUZzsn0meevWdH+kMowLvujwqoXEUFiM4f1QhhDSs6SePCtuE/s3NvsXYplEefYyWhmJ+nRS0mkq618yWSrk0jkljDHM+8Twsdrtynv48ZmTUu+yOuucmnl4HKblr0ekmmQTETtL6IQQH/eJCxJTPot9eSUC64ZAEtO6/WI53mkEmJXL/Ds5QUMOEIN9qQ77MmghNGAP51pE0L+9q77+/bXS6SZVU5h2E4JA1VPaCEpPU5fVs6/xorp96dtKJa+M0eWKnEQeO9pDOtbh2SvFWLqBlDQmxaXVGOEv7SNJFs3MgIM7YkyDMqE82BjLU+tGfrvPVlEmE4EVRyCJacV/oBzeKwgYCYzXQX8IHYJ5m4kdsiFtQQV1h2zwPYfl263OC/2PXP583/shreZBFaVdyRHdsyo/qtGzNUZKudR+Nhu06lBD7UxTU1+7kgcJOempTEt4yq2OiBmlpbubYoWH49ZdbXR5SAtotNCicQz6j+tAbT6Kd1VRKS3jzFsigwtG/gAADg1JREFUsKYI8KdjXonA+iNgZDHxGnWeT+euJ0EHWOixpKdDt3KOSvA94jZdyIP3QVc7OyXO0YQ056Ja5lTpVIYTkxqIjWJZD4KCPijrKI3ncGIt4ZECt0n7cs4KvcXH6vJgOfqWONOYuJPbHk87TZO8EoE1RSA1pjX94XLYsxGwObwU+dYQpKQZm4lcS1ssj9mMrjRLehg9nMsy789PX6qRyu7/d1Td9x+qEXtNNILB2kJN9tzFvdmDmpPbxXu4yPBGns+vpbWdyRLvQB0Sibf+i7GQkkZihGpExENcY8wUmXlPBNYbgSSm9f79tnv07QlaSDCHT2RZXvAKd9uzIaEPPvRgnhNFusV0/E4uir72v9vB29uRwrArNAbLeXbVguuE57/wHdZ4dGbLgVqii6U86BLt7FKeKNCYzrSkd8jekrpDZzKtSGnrzYYQD+owhJS+KbZXeWEsWZQIrBMCSUzr9GvlWBdCwCZqak5wiM3vlh+aE4Qh83F5V4iAgkS87YuUht/lEeJhZNtNtjEVmklbZi2w9NguUz+2gGhLdxoKZ5ZwfeS5pq1ZhF0zWdcSojygQ0h8fLFvin8Y+YyrftsZZZmVCKwnAklM6/m75ahBYM6cTDb7SDAT33E5tyhHCTcrkJsiPXLw9kh+9M60pMfBWzxC3N55aAx5C8Kqe+xy7UQFQUTWFTRUrsjnUdoNj7gd4kAtY8BJK0R4LUu8K5msoy0daG+JsTAul6OK+reINsF69MvXKO09SD7z5f+qnBZxtdORl/dEYPURSGJa/d8oR/gTCPhUzHeZxsvNc5j0lVHy0ExImiGEDB5O5EePJb3+w3319fvXaqDQGPeYjz/CTJKgf6lvMnSP55BHFulQrp7wXK62tMFBq/m8k4cJDs/+ef2l+tfNHxaK40g+8jhM22hLaHLej/VnaZPuFuA+FFUgUYgs8rxa61sFeSUCa4ZAEtOa/WA53MUQ8OkYCmFq5yJHaZvkPW1aFSwiFQgz7cPOvlnG9bWc97eW2O4ftOckX3pPT0N9rKGLQVIRZ+ekEB+yVS26NIIqz4yDSErWh7yHf5IV3iedWzrV/taB+ma/y8ZDfdU18aVLIyCylVnrgJASWXG3p/xKBDYDgSSmzfgdt/ctCkEEAD5d19xQT/CUR5nVhQCUgSaDikMkJCz0MIQgyu0f159kmfdYDeV5fHins03UUH0cNtRLeWMSQ7oxi5eocmdPp5LYX3p4tMi0+MC7luuhy6Ne1dNhWqLrYh2INmWjduHlBVymERx9I1X/NuRkb+J9eTK/E4GNQIDVjLwSgfVGgPmbT+tqP4ZW4cWlxJbAMIIoHxXiAsj86B0emUbD2SLz8K39H/PSUKzhjHrUDg7xdOmYZ8SXfJJ7Mn7oiKDwEI6BA26QbjB4kNZ0qqXDLrLVwBQfEyaSLPtSJqrIC1IyeiIvr0RggxFIYtrgH3erX02TvE/sPovbxM+XZ8YNSnBiUH3+Z+jqmT2fCx12vdIZozOFyDjuHJhWUy/NSUYQkAkCaPIMcCcsnq0rVUQr6xZtDAetn7WER5j3E4V7Zwlx7oUMjdmI1V/ACWxugyxIBDYDgVzK24zfMd+ihQCE4CThmUzsYUzgdEEptZoL0rHzQzq3dPjcqZ60pMfB2wsRyPf+bTV8lPm4PnFNS/AesZALX3amYOmL0BWHBwe2RPhJ2tK1tKaeDCDsMK3GMT4SJ6Poh/u4xtcuyXQisJkIpMa0mb9rvtWCCEALkBLkwOFblvO6Wnpj74dlvCt5ZLiUlnMgwwhfzlPFUj+6gJKMhCKj3JH7rHhLaEXI+XJ1Yx7EL7SMp7i0CrMhf3nIQoAuJ6CGppyy9GwdqEL7Tn0a5ZUIbCACqTFt4I+ar/TzCJhFnE310MGeTCF2KouRJA3nx2BQ/fP9W3U3lDeI55GMGWQCDiuwvGb/YjyhBCTDnSKlITKIDvNw9qu+WGRaLeFJG+so5hN9mtGDLdNZMyMnl+DPU9+lMOrEfapeZiQCa4xAEtMa/3g59PkIuPaBIYHX8bmfaZyM1nReyMSs86AXkQk10HKOtQdEMME7xWn66+s/1a2IaTTqmx89k2frDb6nZBJNvO9ZUWRLeF35w5OG9Pn8WuR0ZftKeDXvylov+Igxxoimlu1Uxni4vE7UjGcvy+9EYJMQSGLapF8z32UCAWOKkhfpuLeqGjG4O6A2C2BF1zs40VLemQjqsvohYhr+eKwetDxXB/2Tu4YdLf09oyJxDlcsY37xHrUkuNuRh4cTeXc4NxNxC5cuUuLMElZ6MJPVZUj1FTqXZxRdrFVaJzORCGwsAklMG/vT5osthEBRqWo6KOoJPIOX732Ry6lcBuEBvP84NK8Qg8cHeXTQoVvV2e3IZELaj5l4a4nPlvnkfugZYjrQ3pL2pwiXjufwI/nkM0ISsT2p3x0LDsWCHlpafTqpNewyGOW4djXGYK16mUwENguBJKbN+j3zbX4FgWb+H1sfY3mPPaJjxWy6kg89nLt+vWWv6a56vJeVng7g2h4Ri2zGGfoSKRFnkKVA9pIweiCkRU8y9vckTZoSpIRmxUZVaE5BOb6QOO8l2gOlTrSaVz/zE4H1RCCJaT1/txz1RyBQ5vmY/tFkOBx7sHugIII9aUsD7TWdVX0cvGpZ7+nxUSQEwaDRQDgalL5wCnsiIiLwIEYPOGo97urorshqrwgv3vds5ZD9KPSlWaTkmtK8l0VYktM8dDJ/fRFIYlrf3y5H/gEIFN4okn15DZdBh7s616QzTRDN3eBOn4G5LHoUET1CUFrOg2Dw43BAAEBFxb3Gw4PuZwrbjj88SAlPEyzhsXRn63OFeabpZXwk068aLagX6elamZMIrCMCSUzr+KvlmD8EgWkqwIMeuo2fb8Lh6mftNT0MtdfUl9akvSYCCj7JA/leR/TF0pyW6061n8Se1M3lVXWqQ7r7KmN5zwwm5KJoRx+PpCuSmskp0yOZfuEkpGlMMmdTEEhi2pRfMt9jAQRggRkT+hg5qFzPlkVVjBT0wF7Tobkq6lX3vUH17fSbwmLISu/2wT1CKMTFnizuLOigyOhK4TMuznQwV/7wduQPz7aUJI4lP2we3Cyc5TsuOsorEUgEAoEkpkAi7xuJwPi5oAlS0iNW28FVY7ZxymdpDm8QdolQ9p+1dyS/eZc6l/RFlnYDxW36MehXg8FQe0vSmrodBRz0JT+MHs60jNeRBmULghKGWbkzkdORfxf59S06rDMykQhsHQJJTFv3k2/zC09QATbhMJNlQwilnPzy5Mbc/mQkJ/PxM7kqIpZS/x5jiH/MIwQhMgibgXn4Debh2o863DsQucmUHLmoXXyU9u8kIFDNKxGYhUAS0yxUMm9LEIAigiDCIGH81RuNS/Siqhg3HEprwuLuVhFu/+/0LyOm/v1ddSrXQ/+lOE58iIZLXSe2hpSQPvvM0ni/+ZQIbDMCSUzb/Ovnu7+KQFCXeWhgv0ktOjJmON47qs5lQo7l3fDhofqh/adzkRWRaQmXcajDtOxLRbh0CIpPXA0dRs7kPWpM5sdzjKyRGSV5TwTWHYEkpnX/BXP8H4MA1gq67FtpiEmOiOwZc+99vI/LyAGvDpiA908G1enxscVZOhZJYWJOpCU+FoxQpOT/1FJJuDxLxddrhNSul6QUaOR9sxBIYtqs3zPf5gMQgCrw1mC0JBLaNXPvXVuuQzsiTMbwZFQdKebSuXzrHe0qREbRkHZV5lpTWOC1Fw8/YLApMhHYAASSmDbgR8xX+AAEzFBBpgqwkkzBn/koyZ4T1nXQzUF3XxFudU5JBhGs0u3rGY8PGEHE7hI01GhK4+M0eWNZ5MTVTkde+57aUhuNTG8WAklMm/V75tu8AQFIpyzWwTMlrUQhI0SjAYU2JD/h5kdvnyCCqsMhW/zhYfTgO0rI8wO6bRoJyom8aYKip7wSge1FYEdr5/H/yfaikG+eCAgBJyXuXP5k+0q2jKcc/lcRAcFa0BM1nmQmbh4dlG97SUZijY7kshoKihTyo1bkQWPN1U43uU2KVu1PU5KpRGDdEUhiWvdfMMf/rgg4HTgpGfEU6XU+CfGBU4K+9QyhlKNP42MpJOa2fBTVUlqUAj35lcRUgMjb1iOQS3lb/59AAjCNAFRRGKiQidcRiRQWsZuRkohJh3SDXMaqmxRv45TU9BTPdbumKFOJwNYjkMS09f8JJAAvIQBxBIm8VC/qBHFR19wdSUCUWV4RgtwkpQJG3hKBCQSSmCYAycdEYByB16nJCEiNWM5rk9C4nJfLkqQm0crnbUYAP5V5JQKJwIsITNOGEZCy20QEQQVJIY6yKI/7i91kYSKQCBgCqTHlfwiJwAsITFNSq/ILbDNZNFuO5zZlpKJlk9vqMZOJwFYgkMS0FT9zvuSiCAQ1TNNClIxLmq6ncmV6/mQpzxBPU9oymxgr08MC16T8BZpklURgDRBIc/E1+JFyiMtHIPQWem7STao9ovn04CVNqyZF+2gX97bMxdNva714P1kzEVgeAklMy8M6e0oEEoFEIBFYAIE0flgApKySCCQCiUAisDwEkpiWh3X2lAgkAolAIrAAAklMC4CUVRKBRCARSASWh0AS0/Kwzp4SgUQgEUgEFkAgiWkBkLJKIpAIJAKJwPIQSGJaHtbZUyKQCCQCicACCCQxLQBSVkkEEoFEIBFYHgJJTMvDOntKBBKBRCARWACBJKYFQMoqiUAikAgkAstDIIlpeVhnT4lAIpAIJAILIJDEtABIWSURSAQSgURgeQgkMS0P6+wpEUgEEoFEYAEE/h90oaQvvsrNHAAAAABJRU5ErkJggg==;" vertex="1" parent="1">
          <mxGeometry x="311.79" y="280" width="68.43" height="60" as="geometry" />
        </mxCell>
        <mxCell id="LdgYXwsfe8iCXs6my1w4-9" value="Front Server" style="text;html=1;strokeColor=none;fillColor=none;align=center;verticalAlign=middle;whiteSpace=wrap;rounded=0;" vertex="1" parent="1">
          <mxGeometry x="301" y="380" width="90" height="30" as="geometry" />
        </mxCell>
        <mxCell id="LdgYXwsfe8iCXs6my1w4-11" value="Vue.js" style="text;html=1;strokeColor=none;fillColor=none;align=center;verticalAlign=middle;whiteSpace=wrap;rounded=0;" vertex="1" parent="1">
          <mxGeometry x="301" y="340" width="90" height="30" as="geometry" />
        </mxCell>
        <mxCell id="LdgYXwsfe8iCXs6my1w4-12" value="" style="endArrow=classic;html=1;rounded=0;" edge="1" parent="1">
          <mxGeometry width="50" height="50" relative="1" as="geometry">
            <mxPoint x="206" y="299.75" as="sourcePoint" />
            <mxPoint x="266" y="299.75" as="targetPoint" />
          </mxGeometry>
        </mxCell>
        <mxCell id="LdgYXwsfe8iCXs6my1w4-13" value="" style="endArrow=classic;html=1;rounded=0;" edge="1" parent="1">
          <mxGeometry width="50" height="50" relative="1" as="geometry">
            <mxPoint x="266" y="319" as="sourcePoint" />
            <mxPoint x="206" y="319.25" as="targetPoint" />
          </mxGeometry>
        </mxCell>
        <mxCell id="LdgYXwsfe8iCXs6my1w4-16" value="Back Server" style="text;html=1;strokeColor=none;fillColor=none;align=center;verticalAlign=middle;whiteSpace=wrap;rounded=0;" vertex="1" parent="1">
          <mxGeometry x="615" y="380" width="90" height="30" as="geometry" />
        </mxCell>
        <mxCell id="LdgYXwsfe8iCXs6my1w4-17" value="Spring Boot" style="text;html=1;strokeColor=none;fillColor=none;align=center;verticalAlign=middle;whiteSpace=wrap;rounded=0;" vertex="1" parent="1">
          <mxGeometry x="510" y="335" width="90" height="30" as="geometry" />
        </mxCell>
        <mxCell id="LdgYXwsfe8iCXs6my1w4-18" value="" style="endArrow=classic;html=1;rounded=0;" edge="1" parent="1">
          <mxGeometry width="50" height="50" relative="1" as="geometry">
            <mxPoint x="430" y="299.75" as="sourcePoint" />
            <mxPoint x="490" y="299.75" as="targetPoint" />
          </mxGeometry>
        </mxCell>
        <mxCell id="LdgYXwsfe8iCXs6my1w4-19" value="" style="endArrow=classic;html=1;rounded=0;" edge="1" parent="1">
          <mxGeometry width="50" height="50" relative="1" as="geometry">
            <mxPoint x="490" y="321.25" as="sourcePoint" />
            <mxPoint x="430" y="321.25" as="targetPoint" />
          </mxGeometry>
        </mxCell>
        <mxCell id="LdgYXwsfe8iCXs6my1w4-20" value="" style="shape=image;verticalLabelPosition=bottom;labelBackgroundColor=default;verticalAlign=top;aspect=fixed;imageAspect=0;image=https://user-images.githubusercontent.com/33158051/103925017-e7673b80-50e4-11eb-9379-ceb82e3f382c.png;" vertex="1" parent="1">
          <mxGeometry x="525" y="275" width="60" height="60" as="geometry" />
        </mxCell>
        <mxCell id="LdgYXwsfe8iCXs6my1w4-23" value="MySQL" style="text;html=1;strokeColor=none;fillColor=none;align=center;verticalAlign=middle;whiteSpace=wrap;rounded=0;" vertex="1" parent="1">
          <mxGeometry x="710" y="335" width="90" height="30" as="geometry" />
        </mxCell>
        <mxCell id="LdgYXwsfe8iCXs6my1w4-26" value="" style="shape=image;verticalLabelPosition=bottom;labelBackgroundColor=default;verticalAlign=top;aspect=fixed;imageAspect=0;image=https://byline.network/wp-content/uploads/2017/10/mysql-logo.jpg;" vertex="1" parent="1">
          <mxGeometry x="708.1" y="290.40999999999997" width="93.8" height="39.18" as="geometry" />
        </mxCell>
        <mxCell id="LdgYXwsfe8iCXs6my1w4-29" value="" style="endArrow=classic;html=1;rounded=0;" edge="1" parent="1">
          <mxGeometry width="50" height="50" relative="1" as="geometry">
            <mxPoint x="600" y="296.75" as="sourcePoint" />
            <mxPoint x="690" y="296.75" as="targetPoint" />
          </mxGeometry>
        </mxCell>
        <mxCell id="LdgYXwsfe8iCXs6my1w4-30" value="" style="endArrow=classic;html=1;rounded=0;" edge="1" parent="1">
          <mxGeometry width="50" height="50" relative="1" as="geometry">
            <mxPoint x="690" y="322.75" as="sourcePoint" />
            <mxPoint x="600" y="322.25" as="targetPoint" />
          </mxGeometry>
        </mxCell>
        <mxCell id="LdgYXwsfe8iCXs6my1w4-31" value=":8080" style="text;html=1;strokeColor=none;fillColor=none;align=center;verticalAlign=middle;whiteSpace=wrap;rounded=0;" vertex="1" parent="1">
          <mxGeometry x="190" y="270" width="90" height="30" as="geometry" />
        </mxCell>
        <mxCell id="LdgYXwsfe8iCXs6my1w4-32" value=":9999" style="text;html=1;strokeColor=none;fillColor=none;align=center;verticalAlign=middle;whiteSpace=wrap;rounded=0;" vertex="1" parent="1">
          <mxGeometry x="414" y="270" width="90" height="30" as="geometry" />
        </mxCell>
        <mxCell id="LdgYXwsfe8iCXs6my1w4-33" value="REST API" style="text;html=1;strokeColor=none;fillColor=none;align=center;verticalAlign=middle;whiteSpace=wrap;rounded=0;" vertex="1" parent="1">
          <mxGeometry x="416" y="295" width="90" height="30" as="geometry" />
        </mxCell>
        <mxCell id="LdgYXwsfe8iCXs6my1w4-34" value="MyBatis" style="text;html=1;strokeColor=none;fillColor=none;align=center;verticalAlign=middle;whiteSpace=wrap;rounded=0;" vertex="1" parent="1">
          <mxGeometry x="600" y="295" width="90" height="30" as="geometry" />
        </mxCell>
        <mxCell id="LdgYXwsfe8iCXs6my1w4-35" value="" style="rounded=0;whiteSpace=wrap;html=1;" vertex="1" parent="1">
          <mxGeometry x="585" y="450" width="140" height="70" as="geometry" />
        </mxCell>
        <mxCell id="LdgYXwsfe8iCXs6my1w4-36" value="Open API" style="text;html=1;strokeColor=none;fillColor=none;align=center;verticalAlign=middle;whiteSpace=wrap;rounded=0;" vertex="1" parent="1">
          <mxGeometry x="610.89" y="520" width="90" height="30" as="geometry" />
        </mxCell>
        <mxCell id="LdgYXwsfe8iCXs6my1w4-37" value="" style="shape=image;verticalLabelPosition=bottom;labelBackgroundColor=default;verticalAlign=top;aspect=fixed;imageAspect=0;image=data:image/png,iVBORw0KGgoAAAANSUhEUgAAAXwAAABwCAYAAAAdUssFAAAMPWlDQ1BJQ0MgUHJvZmlsZQAASImVVwdYU8kWnluSkEBooUsJvQkiNYCUEFoA6V1UQhIglBgDQcVeFhVcu1jAhq6KKFhpFhRRLCyKvS8WVJR1sWBX3qSArvvK9+b7Zua//5z5z5lz55YBQO0ERyTKQ9UByBcWimNDAujJKal00lOAAyrQhS2Rwy0QMaOjIwAsQ/3fy7vrAJH2VxykWv8c/69Fg8cv4AKAREOcwSvg5kN8CAC8kisSFwJAlPLmUwpFUgwr0BLDACFeJMVZclwpxRlyvE9mEx/LgrgNACUVDkecBYDqJcjTi7hZUEO1H2InIU8gBECNDrFvfv4kHsTpENtAGxHEUn1Gxg86WX/TzBjW5HCyhrF8LbKiFCgoEOVxpv2f6fjfJT9PMuTDClaVbHForHTNMG83cyeFS7EKxH3CjMgoiDUh/iDgyewhRinZktAEuT1qyC1gwZwBHYideJzAcIgNIQ4W5kVGKPiMTEEwG2K4Q9CpgkJ2PMR6EC/iFwTFKWy2iCfFKnyh9ZliFlPBn+WIZX6lvu5LchOYCv3X2Xy2Qh9TLc6OT4KYArFFkSAxEmJViB0LcuPCFTZjirNZkUM2YkmsNH4LiGP5wpAAuT5WlCkOjlXYl+YXDK0X25ItYEcq8IHC7PhQeX6wNi5HFj9cC3aJL2QmDOnwC5IjhtbC4wcGydeOPeMLE+IUOh9EhQGx8rk4RZQXrbDHzfh5IVLeDGLXgqI4xVw8sRBuSLk+nikqjI6Xx4kX53DCouXx4MtBBGCBQEAHElgzwCSQAwSdfQ198Eo+Egw4QAyyAB84KJihGUmyESFs40Ax+BMiPigYnhcgG+WDIsh/HWblrQPIlI0WyWbkgicQ54NwkAevJbJZwmFvieAxZAT/8M6BlQvjzYNVOv7v+SH2O8OETISCkQx5pKsNWRKDiIHEUGIw0RY3wH1xbzwCtv6wOuMM3HNoHd/tCU8IXYSHhGuEbsKtiYJ54p+iHAu6oX6wIhcZP+YCt4KabngA7gPVoTKugxsAB9wV+mHiftCzG2RZirilWaH/pP23FfxwNxR2ZCcyStYl+5Ntfp6paqfqNqwizfWP+ZHHmjGcb9bwyM/+WT9knwf78J8tsUXYQawdO4mdw45iDYCOtWCNWAd2TIqHd9dj2e4a8hYriycX6gj+4W/ozkozWeBU49Tr9EU+VsifKn1HA9Yk0TSxICu7kM6EXwQ+nS3kOo6kOzs5uwAg/b7IX19vYmTfDUSn4zs3/w8AfFoGBwePfOfCWgDY7wEf/6bvnA0DfjqUATjbxJWIi+QcLm0I8C2hBp80fWAMzIENXI8zcAfewB8EgTAQBeJBCpgAo8+G+1wMpoAZYC4oAWVgOVgDNoDNYBvYBfaCA6ABHAUnwRlwAVwC18AduHt6wAvQD96BzwiCkBAqQkP0ERPEErFHnBEG4osEIRFILJKCpCNZiBCRIDOQ+UgZshLZgGxFqpH9SBNyEjmHdCG3kAdIL/Ia+YRiqAqqhRqhVugolIEy0XA0Hh2PZqGT0WJ0AboUXYdWoXvQevQkegG9hnajL9ABDGDKmA5mijlgDIyFRWGpWCYmxmZhpVg5VoXVYs3wPl/BurE+7CNOxGk4HXeAOzgUT8C5+GR8Fr4E34DvwuvxNvwK/gDvx78RqARDgj3Bi8AmJBOyCFMIJYRywg7CYcJp+Cz1EN4RiUQdojXRAz6LKcQc4nTiEuJGYh3xBLGL+Ig4QCKR9En2JB9SFIlDKiSVkNaT9pBaSJdJPaQPSspKJkrOSsFKqUpCpXlK5Uq7lY4rXVZ6qvSZrE62JHuRo8g88jTyMvJ2cjP5IrmH/JmiQbGm+FDiKTmUuZR1lFrKacpdyhtlZWUzZU/lGGWB8hzldcr7lM8qP1D+qKKpYqfCUklTkagsVdmpckLllsobKpVqRfWnplILqUup1dRT1PvUD6o0VUdVtipPdbZqhWq96mXVl2pkNUs1ptoEtWK1crWDahfV+tTJ6lbqLHWO+iz1CvUm9RvqAxo0jdEaURr5Gks0dmuc03imSdK00gzS5Gku0NymeUrzEQ2jmdNYNC5tPm077TStR4uoZa3F1srRKtPaq9Wp1a+tqe2qnag9VbtC+5h2tw6mY6XD1snTWaZzQOe6ziddI12mLl93sW6t7mXd93oj9Pz1+HqlenV61/Q+6dP1g/Rz9VfoN+jfM8AN7AxiDKYYbDI4bdA3QmuE9wjuiNIRB0bcNkQN7QxjDacbbjPsMBwwMjYKMRIZrTc6ZdRnrGPsb5xjvNr4uHGvCc3E10RgstqkxeQ5XZvOpOfR19Hb6P2mhqahphLTraadpp/NrM0SzOaZ1ZndM6eYM8wzzVebt5r3W5hYjLWYYVFjcduSbMmwzLZca9lu+d7K2irJaqFVg9Uzaz1rtnWxdY31XRuqjZ/NZJsqm6u2RFuGba7tRttLdqidm122XYXdRXvU3t1eYL/RvmskYaTnSOHIqpE3HFQcmA5FDjUODxx1HCMc5zk2OL4cZTEqddSKUe2jvjm5OeU5bXe6M1pzdNjoeaObR792tnPmOlc4X3WhugS7zHZpdHnlau/Kd93ketON5jbWbaFbq9tXdw93sXute6+HhUe6R6XHDYYWI5qxhHHWk+AZ4Dnb86jnRy93r0KvA15/eTt453rv9n42xnoMf8z2MY98zHw4Plt9un3pvum+W3y7/Uz9OH5Vfg/9zf15/jv8nzJtmTnMPcyXAU4B4oDDAe9ZXqyZrBOBWGBIYGlgZ5BmUELQhqD7wWbBWcE1wf0hbiHTQ06EEkLDQ1eE3mAbsbnsanZ/mEfYzLC2cJXwuPAN4Q8j7CLEEc1j0bFhY1eNvRtpGSmMbIgCUeyoVVH3oq2jJ0cfiSHGRMdUxDyJHR07I7Y9jhY3MW533Lv4gPhl8XcSbBIkCa2JaolpidWJ75MCk1YmdSePSp6ZfCHFIEWQ0phKSk1M3ZE6MC5o3JpxPWluaSVp18dbj586/twEgwl5E45NVJvImXgwnZCelL47/QsnilPFGchgZ1Rm9HNZ3LXcFzx/3mpeL9+Hv5L/NNMnc2XmsyyfrFVZvdl+2eXZfQKWYIPgVU5ozuac97lRuTtzB/OS8urylfLT85uEmsJcYdsk40lTJ3WJ7EUlou7JXpPXTO4Xh4t3FCAF4wsaC7Xgj3yHxEbyi+RBkW9RRdGHKYlTDk7VmCqc2jHNbtriaU+Lg4t/m45P505vnWE6Y+6MBzOZM7fOQmZlzGqdbT57weyeOSFzds2lzM2d+/s8p3kr572dnzS/eYHRgjkLHv0S8ktNiWqJuOTGQu+FmxfhiwSLOhe7LF6/+Fspr/R8mVNZedmXJdwl538d/eu6XweXZi7tXOa+bNNy4nLh8usr/FbsWqmxsnjlo1VjV9Wvpq8uXf12zcQ158pdyzevpayVrO1eF7Gucb3F+uXrv2zI3nCtIqCirtKwcnHl+428jZc3+W+q3Wy0uWzzpy2CLTe3hmytr7KqKt9G3Fa07cn2xO3tvzF+q95hsKNsx9edwp3du2J3tVV7VFfvNty9rAatkdT07knbc2lv4N7GWofarXU6dWX7wD7Jvuf70/dfPxB+oPUg42DtIctDlYdph0vrkfpp9f0N2Q3djSmNXU1hTa3N3s2Hjzge2XnU9GjFMe1jy45Tji84PthS3DJwQnSi72TWyUetE1vvnEo+dbUtpq3zdPjps2eCz5xqZ7a3nPU5e/Sc17mm84zzDRfcL9R3uHUc/t3t98Od7p31Fz0uNl7yvNTcNabr+GW/yyevBF45c5V99cK1yGtd1xOu37yRdqP7Ju/ms1t5t17dLrr9+c6cu4S7pffU75XfN7xf9YftH3Xd7t3HHgQ+6HgY9/DOI+6jF48LHn/pWfCE+qT8qcnT6mfOz472Bvdeej7uec8L0YvPfSV/avxZ+dLm5aG//P/q6E/u73klfjX4eskb/Tc737q+bR2IHrj/Lv/d5/elH/Q/7PrI+Nj+KenT089TvpC+rPtq+7X5W/i3u4P5g4Mijpgj+xXAYEUzMwF4vRMAagoANHg+o4yTn/9kBZGfWWUI/CcsPyPKijsAtfD/PaYP/t3cAGDfdnj8gvpqaQBEUwGI9wSoi8twHTqryc6V0kKE54AtUV8z8jPAvynyM+cPcf/cA6mqK/i5/xeBBnw7tObe9gAAAJZlWElmTU0AKgAAAAgABQESAAMAAAABAAEAAAEaAAUAAAABAAAASgEbAAUAAAABAAAAUgEoAAMAAAABAAIAAIdpAAQAAAABAAAAWgAAAAAAAACQAAAAAQAAAJAAAAABAAOShgAHAAAAEgAAAISgAgAEAAAAAQAAAXygAwAEAAAAAQAAAHAAAAAAQVNDSUkAAABTY3JlZW5zaG90jj1ulAAAAAlwSFlzAAAWJQAAFiUBSVIk8AAAAttpVFh0WE1MOmNvbS5hZG9iZS54bXAAAAAAADx4OnhtcG1ldGEgeG1sbnM6eD0iYWRvYmU6bnM6bWV0YS8iIHg6eG1wdGs9IlhNUCBDb3JlIDYuMC4wIj4KICAgPHJkZjpSREYgeG1sbnM6cmRmPSJodHRwOi8vd3d3LnczLm9yZy8xOTk5LzAyLzIyLXJkZi1zeW50YXgtbnMjIj4KICAgICAgPHJkZjpEZXNjcmlwdGlvbiByZGY6YWJvdXQ9IiIKICAgICAgICAgICAgeG1sbnM6ZXhpZj0iaHR0cDovL25zLmFkb2JlLmNvbS9leGlmLzEuMC8iCiAgICAgICAgICAgIHhtbG5zOnRpZmY9Imh0dHA6Ly9ucy5hZG9iZS5jb20vdGlmZi8xLjAvIj4KICAgICAgICAgPGV4aWY6VXNlckNvbW1lbnQ+U2NyZWVuc2hvdDwvZXhpZjpVc2VyQ29tbWVudD4KICAgICAgICAgPGV4aWY6UGl4ZWxYRGltZW5zaW9uPjM4MDwvZXhpZjpQaXhlbFhEaW1lbnNpb24+CiAgICAgICAgIDxleGlmOlBpeGVsWURpbWVuc2lvbj4xMTI8L2V4aWY6UGl4ZWxZRGltZW5zaW9uPgogICAgICAgICA8dGlmZjpSZXNvbHV0aW9uVW5pdD4yPC90aWZmOlJlc29sdXRpb25Vbml0PgogICAgICAgICA8dGlmZjpYUmVzb2x1dGlvbj4xNDQvMTwvdGlmZjpYUmVzb2x1dGlvbj4KICAgICAgICAgPHRpZmY6WVJlc29sdXRpb24+MTQ0LzE8L3RpZmY6WVJlc29sdXRpb24+CiAgICAgICAgIDx0aWZmOk9yaWVudGF0aW9uPjE8L3RpZmY6T3JpZW50YXRpb24+CiAgICAgIDwvcmRmOkRlc2NyaXB0aW9uPgogICA8L3JkZjpSREY+CjwveDp4bXBtZXRhPgoS+etoAAA1bklEQVR4Ae3dW5ccx3En8AZmBjeC4P1OiRKpmyXLuz62j/dhH/y0x1/Pn2Mf92HP2X3xm47X62Nba9m6UpQIkeBFIAkCBIG5YOOXOYEp9HRVV8/0zPTMZBw0qqe6KiszMjLiH5GRWRf+9u8+fTRZMbqwW5+Vq9iK8WnR6jS+Lsqx03196+/T3X9HUfuLR1FoK7NxoHGgcaBxYPU4sL56VZpMGrJfbq+sOtJb9fottzeOr7Q2jo6P16flSQ3hn5aeavVsHGgcaBw4JAdWEuEfsk3t9ikOrDrSW/X6TbGz/dk4sBIcSM84KzNmHDWEn9xqx8aBxoHGgTPOgYbwz3gHt+Y1DjQOnE0OjEH00y1vCH+aI+3vxoHGgcaBM8qBhvDPaMe2ZjUONA6cTQ4cJHafnGgIPznRjo0DjQONA2ecAw3hn/EObs1rHGgcOBscSGS/aOy+e19D+GdDFlorGgcaBxoH5nKgIfy5LGoXLMqBLqJY9N7u9csqp1tm+944cFo5sCiyz3Z272sIP7nSjo0DjQONA2ecAw3hn/EOPonmdRHFYZ6/rHIOU4d2b+PAWeJAQ/hnqTdbWxoHGgcaBwY40BD+DOYcNnac92fR00g1f58+n9e3Y+NA40DjwFFwoCH8o+BqK7NxoHGgcWAFOdAQ/oxOOSzynnf/vN9nVKmdahxoHGgcODQHGsI/NAtbAY0DjQONA6eDA03hn45+arVsHGgcOOUcMHeX83cn1ZSm8E+K8+25jQONA40Dx8yBFsM/Zoa3xzUONA6cTw6swtxdQ/jnU/ZaqxsHGgfOIQeOROGvQqzqLPZl4+tZ7NX+NrX+7udN++VgHDgShX+wqrS7GgcaBxoHGgeOkgNHEsNfhVjVUTLtuMvOmf1V42vWK/mxavXLep3WY+Pnae251ap3jlPy1BD+avVNq03jQONA48CRceBIEP6R1facFryqSG9V63VOxaQ1+5RxIJF3VvuoxlO33Ibwk9vt2DjQONA4cMY50BD+Ge/g1rzV5MBaQK1Laxcmbz63NvnP39iYvPbMOOz14Rc7k395f3Ny87PtycPtR5Ptndq+ZZc3j2svPX1x8qPXNiY/en198sPXN8rl//7BZjn6+5Mvtyf//Z/uT372wda8omb+/tbza5P/+t1LwZe1yd2vH01+d3t78s/R7ltfbM+8ft7JV6OcPw8+f/fltYnvyvmf//Zg8quPD1a/ec975urFyVsvrE2ev3Zxcim07NrFJ/H89s6jycN49O2vdia/++N2/D6Juq1P8JVc3L63M/nZh5vBx90OnvfAkb8fq8J/Lhq/vjaZXN24EMcnGTCyvnMv2wlGbgWPfDB1K+TDwNiM41Yc49RK0OX1C5MbVy8UXujsCxeG+fFw69HkyxD8+5vaNL4deI3vVy4Nl3/STDlo+zZCjq5F266GzsHTtTlyhXd4+HV8Ki9PuuXDzycX5GMjPpeifV89fFSOF8nMAXTfvPJICVG8fvlCKJ+1yVNx7BL+fR2KCs+vVD3f/bn3O32nHeSRMnR/1QFV8d2Ldn0Ryk+fPBoxRp+K+ynHpy5fnCh7evgwhOp6N8q9fXe+0iRH2lpl6cJkI/TUGKJX1Fm/3HtAz9TKU/KU/athyNejgtrepa1QRF+HfdyMo2fh8uW4B9/VYWtHHZ7kfff+g34/VoX/zktrk+tXLk5eDyY8HcejoAe7ilEH6Ii7X++EFQ1hur8TCjOUf/y+CkTZ/yiQEF5ciUEwr3P/GEL7i4+2Jh8EMlmkHZT9X7wVz3l2pASfEHMO2j6D45uBBl9/9uLkpev7FdR0c74MefggUPKHn29XXu4O0OnrVuVviuJayMfTVy5MXrhOeUwmP7uyVeQFQpxMFpPneeVduEABXZi8EZ7H33zv8uRbgVK7RDF/dMdY2nnsXXR/7/vuuZS9cv/sjY3SZ3TATmh3aPa9QLk/vbk54cGk0uwry3nK/m++f3ny9ovrUd/IPpnSjQ+CN+r4m0+2J//w3sO5daXstZUsvRFj5UbwewzdCRD2h5Cl34cHog2fh65BT0d5331lrdSPMZoujaHAS/35+7gPQMWPV6JdL4QcX17fPrB3NFTvY1X4r9wIF+epi8V1eeGpaRYMVXP8b6WjH+xMvgprS+F/GcfPQqA+i474LBDEnVD8aQz8zgM4TtL5hP/ZQDnfCQP4nXDjisKPc0P0YQyyr8NYMVgPo9J1sA/dUX8jyG+/tD75Xriyq0w3P9+Z/LH0U+2fsXVNhf/dV9Ynr94IIBHtHaIv7j+KwRwudFxGHnhNJ0FQLG/zq5BBbrvvlBZk+HSgVnJCPi+GAt4JRaAfodobITc8mWlUu6zyPFfZN+KZ74TcAGl4di/GFGS/qIFJ3qqz8f/WC+uTb7+4Nnk5vAce+M6jMAKhYHke+t/41S/zKBX0d0Ku74fi5LGpH1R/ENJmdYSwXwgdxbjyqLgb3XJ5JVdozaivsbixtlPAZPZJPtu9EP7LocBVicdR21uVv76993BSIh4vxrPwnRGjH+nGew/Gexn5zDHHY1X4Ogmy1UCMOArC3K3tYPIugzfjuBkdc5fiD0G6FYrz/bDGYqAFLR9QQA5a90Q6z0XHfiPQjjjfWvQ2gRsiA4Lh0g5xv7GKqrqWdbANlX/Sv1F8lDfEs4hkpMJnPBlRxnOIrl+JQRpSz3j+5pOiwYYuP7LfKGhIVrjhZ1ubBf1SJi/F2PjOyxHCie9/KHH6SYTkKMAwaBF77qNll5fPoex/+ofNybvBK8iep5whnTfDqzKWxxDPHrhhQC5HH90MVPz/AtFTdGLrz4ZegNZ3oqmLeOHq9/NbWxEHr/WDmtF0SOeZUL5D5Jk8jQxT3XtYwakQ8UdhkIVrEB0GhV+MAev6j+5sF4Tv+6x6Uy8MEgXvCNmjL8OAfhAgB/j8ZugAnvibPIuQ4elwd0p0rUG9/6D/H6vCNxlxJSyfQYpxR0f7y9YZlOTLT+9Mng3mPhMCpg4MQDd2uAymDrXrcvAAgoBGoQhKagw9FzG9b4S7yWi9+8n+9vWVYbKIEjxafvc9ffx5YYvimrN8I5rHMEBVz11jzACItV2lOfxMz1i7sDYRQjK4Lq3vFFQIYR8neRwlXRRBKIPSnuCBsIePPqMsvnq4Ex7hxUCDQij9lVx2eckLhpFSE674IJS00AP5fT74jucQqdgzZD5E1yLe/+ZzFeh9FciWMaOozemZuAZ+xLu/3lybvB+/HZYgfhPHABI+PzOnQIr48xhb6lP0VPCfEtbeWxFm+uRurZOwofbHz8X48c4+jo97U5l3H6XLnFcfxiiNAl0k2oB4PoyIsB3PACg8KjpWhX9UjRhTLqv59JVATtGj0PU3Q8Defmm7zNL/a8z+i+tyBwnHUVIiUrFC38cSJSBj4dNQVL6fd6LsucB4wmjiyZiBknJgMPsYZIvMiRwV33lwUL3YMeXHQAtxIEZqUVp2eerAQFJ2f/3tjQjLrBf5xXdepLmzIcoQh+t/d3urIHzGbiOADM9B/JrX/8qNR8XY8crHEOD2Z2/UkGU39MJA/f0vHwQ42i6e1LyyeFt3Yo5vY/1RGDGhNJ6VSfJJGI2IDIR+QOqfE6u/v11DcrwMsfwxcw9Zj+Lp747/eXI7jhNZ8vDx3Ch8HUjoCKdBRVB8KA7Wd+3i9hOIYJlM7nbB1ehkiMbH97FEGTx7NWb+Y8BxT8VzDTII5DwSBCzEQeFfj/6EzMZQygEFw2C8GPxcZE5kzDOGrvF8fQkV6/9032Xh+Ju3IkxyLeL4r4Q3KsQhPMFTexByCuWXCdyod8wCTO7vihCFvIzyZI4IsyyLFKU8Y09YZyOOd0JBdkMgnwfSNUdwJUCQfuHt1ATPg9eCPFDM+AlYvRoomofBu780ICvqG91T+igBmf5Kpey78z7lfFzrnj6q/T0pRgyY5D2gy2FYUvfQP8K0VT/x9oZK7HvSuPPnRuFPswPjIf2344dLa5fCmm9N/vE9sd1wW48Q6UMIMmYoKt/HkkFDORQhDkX1cXy4k1vhJp5HovDlrvv4vihJ45Qh9endtYXmRBZ9zvT1lATA8WL0n5gtBYeMcUqFXFD2JgYpK+mXYr+UAxRJ+ZMfhv5SIOXPQ3kiZS6jPKEuSHmahCWEIChqn9ee2YyslvUyB2Ueqo/IrTZTsj7aScFpU51nq+1jaFI5LqLv+mL4JMKz/+S19cmfRjYcgMVQ1uerbQ3RZL2zXxgEfcJ41nBo7YfN7dpGfULe/OYa1z57rYZqeAjTnk40vVxXDN7lvXRq543nDyPr7h9+uxkhrujQIMbuUlqXrNwSj+dW4ePp1ei0tUBTBhMSH4egKNKc/FkWrzPmDJ1D6SapEt2NeYYaEmDIglL4JAamOOCy6zmmLid5zTQfoPyDKHzrEihOIbJF5kQO23YK51IoDFkwL4fyECJBQjBkUpiJMtDXQijUuYVH5NIEH5Qo3PN8ZHLcvsc7qYpiWeV5lnUr0yQWLU5v0pbC//y+/PeaLjo0mTxdzrL/ZjzMMbz76XZZwKR+CI/Exl+6Pi6viIdE2Qsr+TwTxkEfGKPkJMEZkOic31zjWv0iNn8/rGLOZfgbajdOGRPlQ+70AF6Sg9TrrtWOB2H0HoYd8pFs4rpl07lV+MlInSe2DwH85VuXivL4v+9tRidu92Y4R18VWqQ/GBUhBJMzUHoKTdZj7DGR7Sd3L0a2UdZk7N2n/7ochOnp4Gka7EVaZwAznKsyJ2Lwm7iGgqvCrWEf7UT3I5ZMMVAEkPE8WnZ5857X9zsDJbadiixAbhljFUFXpee77BgKjiexDEUn/MUQCBVZpft69LW8eH3OG5omCBwQs55DcoSwWipmcyruQxQ2Ze0317CN+ovSL3Muu9k80sF/9dF26TeZiZ7JG6D4tZEnIPMHyPRs4/pa9DX57npA0/U87N8rq/BN6GAGpsg5H8pQwAQulvg85lEABMigZl0xcX8XV9bpPPdkeEdHfBBZAp4LPS8yETPUGTo0Y85QuucehLIcyOHapa1SjkEV/2aSLAXoZ1FKfkJKUGcinL5yCD2eeV7ts74azS7BghvKl7CLW/eR/jT30p3L6Lt26LxyTmJOhKJ4GG28E4uCPr5zoWaQBJLHZ4rBylFE3qOKxaPTF+sXrSUJxR/3QbG8UGVIZ0XrSyqP/Ktjkqw6SFmfmjdKj5JxUud5pCjyyVhZBHklNKZ26j9tqP1QV8zqe4ulFpmXMh7Uz73d+mW9nMcvbRLSIcdXaN0p8ru285rVi8EQ9mGM1NWYRRS7MIyQFBJmc88031z3+5JW+6jMH4SZiGfXRW3u8zyhY30rY0+qKgPCwOv3o6KVVfiU/T/9rub/Wimr44ZIx0sVk+oodUqKF6tsUI9B0xnTFwd9J/KFxTGtnhMjnKb9Z6av2P+3+h0m5pwlzvIUhuYcoJz//R8PiiBlGWOOyU+LtqzUvbqLcPrupRBkRPzm061y1H+LkAH02MCDTT2UyLzrZvdcOnh62lM4rjmRzAZ5EHNFQiMWHf3ZmxuTN0KhlMnaOHYBDrm8fhl4qeGbD7+oeedWd+IZtIi+vB/7siyhPMoWb5JqFszG5J1YLNXNgoFgpWmOpQxxMBLG591nQyFGJo3JVXFxIU6TtzJ2jPWxSq/Wb3+WTtZLDr18fwqYTPcR+ZXZI8XS/j9pE3iQ9gxyRIxBd48b/AdOla+MpPQwWDtKfOdRVepCb5T9jfhPOI9h9zfDx6jwIIj/1UvScbO05R1XVuF/HQwkUL/8eHvXNdtj5qzmUwRQOia+FNkNn3x5sQwAs/PibKw7xd+HrDFXTJ/BsMIQkuGifRED6TBExAygjL3PizlDQ+myq1N38KkHgVgPwejOBagjhDGLqiKeMQs36+LOOQMTcjJIfhQTX/OIkqKwb4aR/PmtzTJw591zkN8z9m7CdcjrmMfH6X45rjkRg1tflQnL+E7BQqaQJAUOMeIj+Uf4b+8ZitH3qjzqRCdFkwrfkaI4bHnqRfnwHixMm+dZj+3DryI+fTMmJgEWY8wWCz94db3It8VmSOqjBZH4kKGsvvJTQZtHoJz7xnXf/Xnefdora8rHeLP2ICeur13yvcbo3eO7ZzN4Se5xL89UfRh1/bDluri/rIqPy8XwXVeJBKJ6TI/aGdfL2jpom5TRR48f33fBaTkvpGAlqs4okzixOEnMzDLuv/rWpcm3I5NArF74ZogourdjNaByfv7h4opyumzCwNAQYPH7eTFnA85ARhRaX7qh33LSUVphn8Kfrs9p/zuza14LZDyE2MbyURk8r+OeE+HCM6jWY/jIyvll7JVUFjiV/ZKqDAAKAIuMmB/GzpT2e/nwi/XS3xYvZchxWeUJTyhT2f/r3x/0hm2EdCju6b12+uRLOOfXsTOlVhkLPOnXAtkzgMg6mHfDO9R+YGuewoe0//4XDyKzbrMoRuNsFmVIhy4Qmpkmyn5W1lReJ/xUs5/qA1yPpJZ2SSjK6uFPo16zsnW6157k9zOj8MsAD+lJZck6rsc+F1wtgwbiI5wWU8xCztkJEIjcbG4mF/tWxFmVGTr1QERAxsScCb7QjJgsYSr1j5w8xmIWFYW/m1bIbZ0c0hOZ9YxVOlf7sxpxRlMf7aGl/TVlAK20RBRrHx8pfF7X2DmR/U862BntgeLEyIEMQORBVFcIUWpkplvaG4gMWZAkvOM7eSanlvfn7M2yyos8oDJWeBp3EubOaKI+uLIRE2UjSX8AYgCM7BbjlRLubp7GyAhLpREbKppRuBfGQZx9DMmCgrqnCd9mZU3ldfjcBYn+5pHciC06uvTHezWej28XO+i/9Eu0Wbt9N+neDcVlGWsX62prf6unctJ7y2uWcTwzCn+aGRQ8BWrQy683mXhpvWbhDCHnRORCQOKrBPAwe+54lrmEeTFndYWuuPMmLwkZRcDVn0UFmUb9XPvzW7OuOFvnKGx90l0h26fEtbw7WW0iFC9nURnAoby62VNDcyKzyjjIOYPZoDahSAGoo0wSIRTJBzl3BOmajyI/lAYw4J6qEPaUzrLLO0ibhu5Jj4tSl/r5L+/XECuDJYRBgdvihLI3dleF8BV6v7crPoDZIopYqMYY9gE09TVP4MspD0Fkh0FAniGcneC1nl3O/2dX4Qd/CI6BbzGVQSS9CmIaQnx4TulDUQbax7tzAV/25sEMd8TYmLP83U/DuMgAEMuk3IQa+gi6hXIhLUjppPaE6avfss/vb+/u6Jh6EHRU0H3sfSJEIKZqYZC5nVme3aJzIlOPO/CfFLuUQZ6FtMHQc6V+JjRtppeDneEXchCnNqEJJTt+GUq/63Uuu7wDN6znRkpsJ5QnhX7n63GovKeopZ5Wr27WlPTXgxCjYN5DWcpMKgAyNLk9tNJT8P1BrLQdIt5cWawW/W/Ce1n0hMKfHkLLe8yyqrt4OYn07VP965iEosiHEF8+IZGfDaIOktaY5YyNOYs12qPd/t0yMChyk1p9VBFvXaizSnvC9NX3sOfTo6mTtf2l1VDOTsmw+m2koxpk5nZejZDIkGdXQmS7HtNh50TGjKNEvJDc/4k4NCNvIlPI0e6JMd4LpQHj+dld0aQmAzGN8JddXj+Hz9Yv1QABCTWcNOQ1DrWcVwi9A26zQlLABhmzDQivzfVDZAvv7OfbR6XwhypwWn/D1or0QwlEzO+Z3YnclyJNivWdHpzZToqihA9iRSNLuyhxz6pSrih8XswZojNx9d7uNq+eJ8TDuisn3b2sh7/VEbrPmPZx7gmT9TiuY1HIu6GNobd3MZxeX0cxmtjjSvOchEHWV2hOJBGv0M1vA4hIEiAD5o6k7uX8BAUCOUL1JW0wED5lz7B1adnldcue9V1YQxolcJITmb4jf9f9cZ6s46xy+s7Jhvk42syLwReh1cMg3ZIWGmXc/Kx6T3+8W+fL8A0vK58PXt++duRz8caYtXp6DIlMLCtDqvu8JyDk8pvbfdTJfq8KdbvM1FOkLCxFSunPIq4+ZeplFAex+u7hinsJQiLwoXJK/UIobA2rs6XiGTTqOpRdlB7EQfaEmW76Kvd/InDzIb73UfGUwnBayOW7vWgofvnVxzUnsggfHyPM7YowLRjsvhIPcs/X4Ylzy++ehSCTH8suL8udPjJQDFDJS999b60ECSSPXT38dlBiCO3DL7QBDOtL4+Kg5F7vrxU/vxwAzgT5mFcfHvR5eZ/5il+FQRe686YykYMxxMh7b4d65x0Hb/3eE59Q+Hunz943SOHLkBz7VlOiFGx4z5OLIVCzyKB76lLE8sP94o4tStLspNMVxBbKO+N30+Wky27CCorxZi7GyP7nUryg00sxW2cOYhblHIHJ2+PcE2ZWXY7inIlKCl5KnTh83x5EBgNPjtKp8yDbjxW+dx68/LTl9f0duX+OALp8Mh57FO3bQ5iysw7/hGWX11cjCl2Y9PNY/XsURMH7LIsK0uYVRTbNcRLvwTimd3g+0556X13IHh3Fk5qtofruHD7fo0aGbzrNv0qL8rYZSr+muc1uTcbcKBsz7YuSuQKTxPbl8L2PMuYstZI119EU1/1YqCLE8+L18ErCSzCJO4vUD+ql8IeQ76x7lzecZpW+nHPaJHtFxhQe9HllOVeDh3gJXeIthG9uRIrtD17tr5NyeVLdLKBV2Ce/v8btl5PmQI7IoXFELhlHnppspL6IwnRbHsWN7kFD5dcrxv9/7hQ+hUrZ+9yIbRfi30wqs+uBLiFraB1CXwTx7U0yDi8Q4qJ/HKmj4pUsOoSGcmn2rfAS3nmpv8uhhpPYE6bW8uj/r3u5xBvCAp0znH22N/sVkhKvF/5Amf0EZfGatmKb21nZOso9T3MiR99z7Qk4QAop/Tqu+8fxcXGr38c9rhoc83OEUIrCD5RPScyjjdAEJZa/iy7nXZ+/W/kopOPDYPRRInxKn5JPKpNWHaSa56eP1TCNX8k7ff+q/135GNvcBh+H4p/WCInT+3T5+NgQ7M6HMKqJnGa1PedE5q3knXVvO3e+OGC07o3Y09H2c6fwDfYaH6x7j8zrpidDO/OurivqhB7GTtZCoMIPJnUo/yRuIKQqHU+YQgwy0X9e48ithE6FPuyvLo2UkjztlB6WidYx7SqGM3hYQzl7rcczvMNDvMRTvO2j3KLADoa8tEaNA2eJA+dO4YuNyXqA/Lha8ygVj6ydMcwaG3PO59aQTkWm3ZXsDBM0yhvJbJ0hj2QsEs7nrvoxDa331ZqjmIfwKx9r1kjXcGY79zypyN7pGNb8PY9CSLyyec/L69vx/HEADDitUGCMDjtTPUrH29UO8hul8ON6CLrsWzKil2fFnGfdVrKGQpl7Kw7kSbF3Fbq6uaabrcMb6KOxz+27f9XOm5uQmpqZOXaUZHSn6TGfAsGbB5kOjeX1vDrZOlaqdkM++Xsexz43r2/HxoHTxIEZQ+g0VX/16joWaUPv9uixICOV/SwDlNk6Mk2G0tQW9SxWj3NP1mgs0k5PiBckHTOzc54srYbx8FDmE5720aKeRV857fzZ4wDg5gM0+oylvG/s9Ud53cB04lE+9vSUrWN5AzvFJeivt9APZTE25iysYPWkJfVyxxU/i6BRqHReto589acDFXfnDk5zWmHJcopQjk3DhlbW5lyHdxfYYTKzc6Z5OTZbJ0N4j/vxzlpZ2dpX7vRzVuXvlEceC+NpLx6pp7wkckre5HgLdZExryDkYfbJ4XS7+spXdvybhBNdPFTblh+k/OnnLevvrLeUbCDJuEG5old9gYhp8IVvhY/BS/fw+hF+udc8EV4axiXdW2ZfPAM/di8dNBKe57nkWWg3Q87KWyY1hT+HmxkykN1DiPtIxxKgZcWc8zljs3Xy+uph1N0fN0MSy8sX8scFjyeJTKRg5l7xQ+sYxvLHAGIAcz6Eh9Ud8NOs2fPUYsVjLMc/bZTyKCxmTsL6Avu4CI0xpuRZKNFWzLwiocVFAEJf+YWnoQ3Nk/FcPeMg5R8Vv7Pe+AFM2EwR5Ru81JdsUOJdkiH2YvDRAkB8tAEaehByZTWtRZPayQB4EZM9kTwDP8aQ/vBcSQUyzfRFKv0x94+95twpfPtiJ9JJKz3ErAwZ6Azf+2hW7HfWtSw2I6K8oZhz3psIliBmto7699WdgBFkC7F87Ltymki76iKo+tJ3MfwcXLPa8dgDCm9pKORlIE5n6wztrTNrTkS/rTo3c2Uy4GGVt6wtE9CUEOXGcykKPxRaKvyazlp34ayKv2aFzeL3vPKVzZugMClRG9cp/5PYvdSRYrTF86yJ9VnPW/Y5O5EaIxbifTdeZcoYInUjH2QISKqvaqlInjzinzfhGVteimK8U8h46FWon98PwY1/2k7ZW3T5ZnwY3DFUkH2EGgESnn9ZmxN1+ip4SFcsi86dwmeY7VdCMK3CnEebBansn1Sdvm9szLl6DDVNsLsidLq8/DsNTjdbZ3BvnUBwhI0gekXdYYiYLU/UxtUklT2FJb3V4ITK+mjsHEfe383Wofz63jdQDGeElCioXOF7FIgr67WsY9b7O6HMfvzGelmhDJ1u+AQf10IhUXrkkEEoSi7E5NNYB/Kb2F3UW6l+EW/esrnYLJpXvjHFaCvfqvZNSjTKx8ff396K/Wy2Y6+dzUDDs8uf9cxlniNLxn4qfF4korSFToEkwCop5dFK7/8U7x7+drwNDw8kfjBoj2KM/TwsBMO2Ge28GsYAsqfsf/DqRnlOljV0LCtr47EAjOfbp+gf33tY55xi7mlZdO4UvljcU5fqCzFmZX0kYwksZcvaE1gDY4gIUb7oZCjmnGUwEHK9v94c1wVeszYU2tgrd28Pn+tl47fYaz3aoT2ngbp7ENX6D9caovJGseKeh4EQix4iHgPU5b4+L8n9kOxpmhNJ5O0dzt+LbbV/6BMv3xaCKHF0ijfmir6K/d53woyXmHTIrHcjvxyy+ELsCsv4OV/mlEJmbJDm3uQHRddbfigq9+XLQShWYTGLFl+Oo7dEMZwWMroOhj4JpC+GT4kbS9rM6CHvJnDOb65JT/N521U/v162KvfqU3KGbO52NwxEmTuKPYXM8QhjlRee4GvIGKOS5eNj4Wfoki55lo94v+e7H7CgTxjJjbVINGgKv8uy/d+Df4WmdZzzXDGCRxB1bh8lsq6hnOmS9t+ls8bEnFPg7H3+3354uQjB/tL2n1F+iR8GKh2qt994AF2ErA3TMcn9T1iNM4WPwZt5exBlbSnw//LtS5Mfvx7KJgYc5DVE0G7uSe5Z8yjnRLj+h50Tmfesw/yeyJuy/8tvBhJ9cb2EHiga6NPCPoqDoqKYgB4v2PF6RyGflF/yyWhS/N7N8DCUGZpXvjAElCwGjWw6KJxE4dkLKe9PI+t5J4n0SyUH/qvjqCr7v357Y/L9V9aDT1XZU9y8lX94d7N4Q96qN8/7c8+7wU+ed5fSsJT3IIS3IVzk2c+GIRZCcvzJuwd8K0v3Qbvfx8HLGTeetlNF0YYQs5wQYXlXaDXuM5tiULDaYmiUfx9BMqyzMimFeTFnKkZdbJ18Y2jPhb4HzjlPgOqeMHsxcJNJBHKVKflyzav+AkVREvpqHkGlbx7khQXzCt79vXhuUR+uvgnOVZ0TMRn7rRcjjBCK6Vuh7BPZq/e7EXagjKWk3gmFDIULZ3lxu/Y8ehSx7FDM9TWLMb8Ucs8bsG7hs93dMNMgfC9CRW/FC9WnyxeC6Cp8BuWlp3eK4WaE7YXkmTyEGFrFc/C6QwpwlTxQGBAoePrypCD7P3ltvSj7LrKn7P/jwxr6sp25saVNQyRM85t4A9vN6IcuCYHZmZdhzE0a8RqvgB58XiadSYU/i/cZu4PuuVsZl+1jZt1zJ2L3c/bcoexN6HDflAvJeNZJUw5Qm4lBF6ueVlgMcvDS24AIP+N5BPZw4W4pfAyPAx8POyey8MMXuOF6eKzfC2XvA8wksqfsfxJI9LehbNLTo5wg+PdvXyiJAx5z4QIEW5H+NyKEYevjn/5hz+AyBm8H4nw7jIo+mi7f6yRrSKeOvvWLNbvJ2gjy9/2HcW+ERLxfgjG3Hbhxc+tOfSHJqnigJZQXOuKVQPPLQPbZhYnwf37ryUUgFejsvc50e2e9RArwW388fy1LWM7xTCr8WaypWRdrJc7urTN9+9PnvWL20Mdn92qOcp6fPkID4pPek8sqE5hVoIJMY2BBeL8N9LXqlC60CS+feQb5uNqzf05hteZE0sP0noDXQgYZSryE5PMtWZSxl2nMIo7fjatbgbKlBIYMB7o02VpDmTVnH6hRvjknYQ0yfzeA0HD5VfGbJIdgvW+AIX8uFFiZG4kxo663vrg42Q4ZPWkP1Ep67SJ7r96o4VlhnMMi++R56hM866PXntkJHj0Kbyj6JAwy8BjO11JpycUttW5LLUzMXgd+P2KclMk82svmGF6Kny8gqe9anV/uvOcu6/exWUPLet5hy3lSse5Nnh223MPeXw3R6s6JpIf5QihQ3oj68pagbSEWnzpJOpsTDINYugwVXqoQmQl+QEGKYJY/7cGOLb9etxWTwxcia6gaATXJmL7nQL9DdZxd88XPFjTdcxuPh14wD2f+441nq3FzufotGrPveUzv6ek9vvQBI7jsSOyZV/iZvQBdcCl1qIHRR0QSs8Uxa/7wk7tY5n1FeOI/ZUE+EL4JvlWhWesCGDGhqlUkvMNDvMRTcxGrQOqxynMiGzGCTfhZYc2rS75B6LbuMFErHp/EGPAKpGY6UnTiy9sRaBf2g3IRJSelUpnKNjdVDUotqa/8+uve/5Dt7ZgHoNjNF7iPESmecSB8YYvfR2jppIkBkmUn3EVPeAc14ykvnzFSf++bHhuzn26P+DxeigJ0SX/pC+Gtx55t9Am+WTkuTXOZdOYVfiKJb0fskbInYCnUsxiZltUg4H5R+t1dLPMeA4dArFrMOetnMGt7rvwlsGXytjP489pVONZ+qhO2Y9Jaj7vOlB35WbU5kYLAQyFTGJR/0uNtt0N+GfqklAv8poAAA0rH5KGUySRfybfrnr9eFdKY8vP+POZ4ojRNessYUtfH9Y66S5E9DsKFPU48+UToXgTA7zU0Wz2lzNZTfzyFurVpUfIiJSmeQE2XrI3QD2TL882fkDXPez8mh29HSHmZ1BGRZRZ7cmUlghHSEMaB7Cl72QUmYsQohygtqzQ2Oba5sdn0PQYDIRkbczbo5B1nbJQLdxiiFD3bgJxF1SB19va5s5p7wmR/GWQGg/mQIYNsRaLBYMEVnm4f0udN9I6P+rSj855gq0GZr5JcpTmRrgKHFJMoJoh9erI+Fa0QjQ/lMoukb0K7yr8eGTf4M6b86bJIOVGXGUT2IWZZO7XeFZRkdsr0vcf5Nzl4IQzbNDGE5JHeKNl9oVPIHzlchMi3SW9y1CUG1zmercVadAq5BjYtUrsVXtoy6cwp/BwAlAeLmWEcyl6O6zxKy/q7mOgU3yyTSdG33Tt19aIxZ8perFRqHKFfVGCm620y6S/e2phcDTd0iGoeOc9mNfeEyf7KhSqJ/vrapH9KiuHndbm+0MNhSOybnMgcGVrBfNrmRPp4QnGTHdsK+Fh8NItuBn8jsBBhmJ0whLOuOB/nMvR0P7KMrIxnuGr66WJyB5wZrz+KNM8u2erFGKD0M7vKhoq/jBXP9IXddJdJTz59mSUfsqxqccPqxeTJtWDGV3NiWcGzwjgKjjWGxkzQZhhnHrKHQrhv4oxyiil8YR0oZ9aQGBtzznJNgP06Fl5Yul4U/iFj6epmCwWKklCKxc6imp305Dth1WkxcZ1V8nLOdREng9znseTTUuH/Kpb/yxO3vP0w9FogKzwib5dCs3G9Z9GqzonoS/MyAETXaywhmZAJyrqb5148vzgvawa6l/6HtBsK1R+VYqI1+uP+ZmwjEM8YW/7uzfsOnkJGeVHqoE5l64Wpeu+78ZhOkCK85IVIGfX3jUDz5JH+EQr+TiB08yEWl92LtVBdvs6rZgKbrpfknhpKi3BayJ9PmWML/vCCrPJXn2VSj3gv8xEHKytjaiaLqgs1XA5hkmFQhDiO8pKV4e+hEEGWqvMwV5zxt7GniFl5E7cp/q7rsr4gpVhMAi0NxZyzXLFLEz4MyXZIlkF0GCKErL+VeIRxPdo5i2o9V3dPmFK/4GGuxpzVhu65VPiMJyPKeB6GKElehbkYk5NkZhblgF21OZGUr68jxNWNMgiT4K0Puc4895I/HwrtZsgiAhgQBMobvhRx5i4tWn733u73wr+QUUjWd/XQdz6ecdJUDGfUyTzXv76/WcbnD1+vnh8e1pDMWgm3GMdStrt8nVd/nuislbYlpBiyRwaN4zIeAqzSPTc/WwudE5GB+1P7Mcx72MDvK6vws+EEkdUr+9EPNWQ3FuY+n7FuKHWhs+8+jBdohBtrgYrMhtux8GRWfBg6IbBjY862TzUXAI0yJpTUMkg5XL+Xn94uq3b7PBh8WOU9YSgAKa2vhSfnex+RAbHNz6Jf6mT69kIDrq/cz9cimyX6G7B456V+41GQcfBSv5d37K7InMje5n7Cj3utLNk70Sbjp5vnboMvPAzzUDxY7ZEnz1u01YI8+S4Jad6NrXq/jNDOE+UHLxgLn62AoyX02b1x93vxNGJsJhgzNqFc15sfq3NkM2485lMMj8QGi+v+/cPNYoRyMhkYwSeZO+LsYvGUvZXCd6IdY4jCn7XStij8ABmA49pF84x1RbI1CqITdM3PPjgHCr9Oila3s6jIOXxNRUyYMGkspWXX2f8cll3czHcC6bfpxyqb0BJ0k15jY87z8qHH1jevk65Vt1AlhNO1zKv2jjWWXxe7rNKeMHhZNp2LQeV7H1H20JeVm4ydAbcMZDh2P/2s16rNiaQChzih5iS8pKjIMmXDM0K5Qvbug0kxnBSx2DEveFY2muuFD6V+dsvP2DbFpHyIdBZlckN3bydjqNQj6jxd71llHMe5XI9AuQrppmyJ2fP+rl9ZK+EoY/7Pv7HxOJ31ztcdKztQUTyE8KdX2l4MfQWUvR25/57DczeXJDJB4fM4/8dPBwpe8KeVRfiQAet3VEQ8C7KPjrD50S8jJvyLW1uT38VCFXHhvpCLvdmhQYIuxjmkpNRdzA+CpKgOG37o8qIowBjM0kYNtjLXEOzq4xj0/FqgCApgFfaEEYKjNJ4NRcKVhUT34sfdltbvjw1ceEoUTBdt7r96/BmxaTFZ+8B388T7QMOy50S0GXrMuQOKhjKkyB1T8fS1KBE+1C6zJnPpU2FYEUupkj0yw1O6H8IiBHThwqPJs49qjn1F+vufgs/Gg5xwaJyhVWeGAtrFO78pv1vfBGD2jOI92BdGTNz2zMadcVFkMbxfmXFj6bD86nsOY8dztHZB6i1Fr1bGjboXZbxrHN+Kv425Ms8XPCGP2j5E2qgfPGMWSc/88IvdLLVwLeqcEfAaPyyRVlbhL7GNM4tKZE/Z/+N7m2UzJHH7vjTMLCQHEuvr+zxKZFrz+YeFYl5Z3d8JqDIJEPTAI8kJse51+b3UOwbequwJkwgRuof+GM4+JasNe3wcXvmc7R17pFApMYqLAso88asQxwxK5LysffIp2ncids7gIXWhGChwdaGchyjrz+sBKiBQBlS5YvLulsvNYHbXYVDI5MXmXH/6emSPRLx6VhYbPZYTlV3+ZPm2ZFBXCr9b3/SEpUX/OPaR/2Fkpyg/xx2ZraG52etc+tp8WH71lYvNlDwD5zsFrj03A6xJtDDJXRG3eZ66GZx9iwCG7q6ifeXPO5/rJoxpsjAU3pxX1tDv507h61CDSkySoIrZCePIrabs56GN3EqBohrqFEJDCRNsA5hCIRzLohoDrW8tUr66D6cVrtY++Rkaqbs0zp9zyQFhfQTlvyyqCqiuLLW9AAVla98+z23ZcyKQo5gwFIzISZ1QFWMnq8MtzfpD95INGPb1iAVXD1S4bzL5QShb8WgGgZwwEpC2a6FV2Wxe8MEIk1vGIKkowvhP+fbkMVdk3xmLiExy2znTRms8FAaFvKuTv4U9lW8HzywfGmY4hDiFJOcBrKxHHg/Lryxn3zEqvRMfQ5R0FUMa7eYN0xE8Gu156lLdYp2hlNZKX+BNejj7yh15ouzOG7wReuOFAfZD+mVksfsuO3cKn7Lnthkc4mlV8PoXWE1zLJGpAcW976OqkLnCtWzPJUTLojrQq0GBlF6OPPuN0EYZGph+Ts6JdGOp6rSs0Mj08+b9vcfHcVtS1JBO/8rnec+b93uVi51AyKH0o28nV4fvWNacSEHKtjWOtyMhyhAlAq7qp5wa/C9j0BQHpchgAQA2PfOmpm+F4iWLyhWOEDKwBoHiNg+VyiU9xemHSVWUvSLUpM7XQtCsReFN/NW3NibvvCwTjDzWyV3l8TYoRnXAL6R9/zJjrmz6eX1/L4NfatI/cp98MgMl9k5eGWXoG29LPcKD4uHIzxdK4xEsi4Su9Iv0zGXSmVP4wf+CrFlJCtYAkM8KFRrUXHHpjBS+uD0XipC7b4gex5xDeMXwWXuDpo8g0k/jWZ8WYaiDoO/ag5xXXUrf4NUGyNdLlvtEOedETAIZpNpQXPwleh1j2lEGW/wHXdojHaIeNJzRh/quxIp3PRn9tWxiUCD8j4I3syYvp59HoS1jTsQ8FSWCD0lki1IZCnHltXmEMGWCeUPSC09tFXku4TIKvaDxtWhXfOI6H2VL6SXCUCUvkTKve/Ps1SXLT4O4sbZV5IzskSM7z2bywqux06OyjT2vKKCwjBH9B8kLJxp3smB41F7+PW/c5fPzuCx+ZXnzjupuHAvt2EuHoq+L9GLeJfjqRUby841Dew+ZhO16SPPKz9+LRxG8w2dp2yUk1hNWzHsOcjxzCj+RNYuLeSlolKLJ09wuQUjHZJTrCe88SkQ6NuZM8D+M51lZO88tn/fsod8JJMXNPbZX+TwqsXxoLwYf9DK99H7e/Yf9PWPHDA83f17+fbYPioJOx/bXovXMORFyQvnPo8LHFZoTIcN4U+ek6gSkGLNtRcisyVOInBzzALSQWjfhmnu2iFszPj94dT+QyfI/Cjn7yW8elvCQuPxbsfcLb1cYjDIU8gl9X7aogFJlQZFP2zMLjVD0QlbQ8LyJznl9sOjvBWzETdo+v4dr6dotPfuzAFT/9oet8Awq/56OrB1kIlq+vnx5E/+M50EUfpkziPvxheE9KjpzCj/6piAKjKcgIJePA/lYLOFlEFxKzF00vCLmSaANFuhOLHeISvZEPL/mL48Vr6ESZ/9W38xV324/pk119n++hzL7aYc/azBAlZCawdK30CmftB1zLgyTvtRviyLCLGfekWv+VcTMGUAIdR6JicvSmufpzStnWb+TMMpJ/TcDaPhb/Qq6D6RtCaHFWOk1kBX8ZNyEYng3+T5g56fpcfnRDzd344C8xOeu7ZTnUPgUfJaf92f/AVrCp6nsgbHTQGpJ5qz0BzpeCYP3oPMe6ssRiWPwPomtW6RU4ud+czm/pRXh1/lFsnhUdOFv/+7Toyv9qGp9RsudFpTDdkyWd9hyzii7W7MaB84dB/YH684dC1qDGwcaBxoHzgcHzlxI5zR327KR+LLLO828bXVvHGgcqPM2jQ+NA40DjQONA+eAA0eC8A8bO+67P89nvzQEm5xox8aBxoHGgfkcaDH8+TxqVzQONA40DpwJDhwJwj8s8u67v+/8meiJ1ojGgcaBxoEj5kBD+EfM4FZ840DjQOPAqnDgSBD+qjSu1aNxoHHg9HOgzd0trw8bwl8eL1tJjQONA40DK82BhvBXunta5RoHGgfa3N3yZKAh/OXxspXUONA40Diw0hw4Fwi/xQBXWgaXXrns74YMl87aVuAp50BD+Ke8A1v1GwcaBxoHxnLgTCP8VUd6q16/sUK0atc1ZL9qPXK663OWxmlD+KdbFlvtGwcaBxoHRnPgTCP8VUd6q16/0VLULmwcOAEOHBfyPkvjtCH8ExDU9sjGgcaBxoGT4MCZRvgnwdD2zMaBxoHj4cBZQt7Hw7G2H/5x8bk9p3GgcaBx4MQ50EI6J94FrQKNA40Di3BA7D7j94vc165tCL/JQONA40DjwLnhQIvhn5uubg1tHDidHJhG82Nj9we973RyaVytW0hnHJ/aVY0DjQONA6eeAw3hL7ELE1GMRSB9j85y8vfDlpfltGPjwGnkwEHl/6D3nUYeja1zQ/hjOdWuaxxoHGgcOOUcaAh/iR24LESxrHKW2LRWVONA48AZ4EBD+GegE1sTGgcaBxoHxnDg/wP/fmCT6ts+XgAAAABJRU5ErkJggg==;" vertex="1" parent="1">
          <mxGeometry x="605" y="470" width="101.79" height="30" as="geometry" />
        </mxCell>
        <mxCell id="LdgYXwsfe8iCXs6my1w4-39" value="" style="endArrow=classic;html=1;rounded=0;" edge="1" parent="1">
          <mxGeometry width="50" height="50" relative="1" as="geometry">
            <mxPoint x="430" y="380" as="sourcePoint" />
            <mxPoint x="580" y="460" as="targetPoint" />
          </mxGeometry>
        </mxCell>
        <mxCell id="LdgYXwsfe8iCXs6my1w4-40" value="" style="endArrow=classic;html=1;rounded=0;" edge="1" parent="1">
          <mxGeometry width="50" height="50" relative="1" as="geometry">
            <mxPoint x="570" y="470" as="sourcePoint" />
            <mxPoint x="410" y="390" as="targetPoint" />
          </mxGeometry>
        </mxCell>
      </root>
    </mxGraphModel>
  </diagram>
</mxfile>
